<ttFont>
          <CharString index="0">
            330 225 rmoveto
            0 -43 -183 -26 vvcurveto
            -18 12 -10 24 20 35 26 80 85 vhcurveto
            -13 24 -12 1 rlineto
            -52 -60 -9 -7 -10 hhcurveto
            -3 4 rlineto
            -57 callgsubr
            189 0 vvcurveto
            -7 8 -58 9 -9 -3 -18 -95 rlineto
            -169 -76 -81 -122 -38 hhcurveto
            -21 -9 11 24 60 99 278 0 hvcurveto
            -9 12 rlineto
            0 -101 -6 -61 vhcurveto
            -8 -67 callsubr
            29 13 -11 -25 hvcurveto
            -44 -74 -199 -57 vvcurveto
            -51 34 -33 54 vhcurveto
            62 46 60 79 60 115 rrcurveto
            return
          </CharString>
          <CharString index="1">
            331 64 rmoveto
            -75 callsubr
            -100 16 rlineto
            -112 -117 -172 -164 -86 29 -50 51 hvcurveto
            64 45 58 74 65 120 6 -2 rcurveline
            0 -43 -184 -24 vvcurveto
            -19 12 -10 24 21 38 29 77 81 vhcurveto
            -13 24 -12 1 rlineto
            -52 -60 -9 -7 -10 -21 callsubr
            27 41 -13 -20 33 hvcurveto
            -167 -73 -90 -137 -37 hhcurveto
            return
          </CharString>
          <CharString index="2">
            185 80 rmoveto
            34 15 72 16 112 vhcurveto
            3 16 30 4 28 hhcurveto
            53 82 -3 0 hvcurveto
            20 56 -3 -49 callgsubr
            -84 -11 -34 vhcurveto
            -29 -49 1 -21 hhcurveto
            31 199 rlineto
            38 6 4 1 63 hhcurveto
            117 25 -4 -46 -26 9 callsubr
            44 4 rlineto
            17 92 25 72 9 callgsubr
            -9 -64 -71 -3 -154 hhcurveto
            -57 -74 3 0 hvcurveto
            -11 -42 1 -3 rlineto
            return
          </CharString>
          <CharString index="3">
            340 40 callsubr
            -112 -115 -1 callgsubr
            -102 44 -63 72 57 66 50 71 38 vhcurveto
            -15 24 -14 1 rlineto
            -52 -27 -43 -34 -40 hhcurveto
            -47 -28 57 85 5 hvcurveto
            171 57 67 55 84 vvcurveto
            -111 20 rmoveto
            26 14 -16 -30 -55 -47 -37 -116 -36 hvcurveto
            95 15 56 79 52 hhcurveto
            return
          </CharString>
          <CharString index="4">
            311 35 rmoveto
            -111 -73 99 151 175 103 133 138 114 75 -99 -151 -177 -104 -131 -142 hvcurveto
            -25 -47 rmoveto
            196 162 177 217 156 -101 110 -146 -193 -159 -178 -216 -157 99 -109 142 hvcurveto
            return
          </CharString>
          <CharString index="5">
            hstem
            45 87 vstem
            307 -12 rmoveto
            121 89 47 0 hvcurveto
            6 8 rlineto
            0 -1 21 9 vvcurveto
            19 8 67 6 36 vhcurveto
            7 47 14 29 19 13 -1 20 rcurveline
            0 -42 -5 -41 vhcurveto
            -57 -65 4 1 hhcurveto
            -14 -47 1 -4 rlineto
            67 hlineto
            44 8 -9 -45 -5 hvcurveto
            -15 -126 rlineto
            0 -56 -39 -79 -119 -71 99 150 187 104 125 147 88 43 -28 -56 -20 -9 -39 0 vhcurveto
            -71 callgsubr
            return
          </CharString>
          <CharString index="6">
            hstemhm
            hintmask 01110000
            195 567 rmoveto
            24 12 8 66 6 vhcurveto
            8 33 -2 7 rlineto
            0 -82 -9 -55 -44 -59 4 -29 callsubr
            -36 2 -4 76 -7 2 -26 29 -84 rlinecurve
            63 -182 18 -49 0 -26 -4 -40 rlinecurve
            -5 -45 -8 -75 -10 -20 -70 -15 -39 callsubr
            hintmask 10110000
            0 61 12 48 41 78 -44 callsubr
            -28 -3 -19 -35 -5 17 52 7 vhcurveto
            16 113 1 34 27 37 117 175 rcurveline
            65 97 9 21 68 12 11 35 rcurveline
            -3 -11 callgsubr
            -52 -4 -37 vhcurveto
            -35 -70 8 1 hhcurveto
            -11 -37 -11 callsubr
            39 -3 18 -9 -16 vvcurveto
            -13 -8 -20 -13 -20 vhcurveto
            -139 -218 rlineto
            -4 hlineto
            -2 -77 229 36 vvcurveto
            return
          </CharString>
          <CharString index="7">
            520 134 rmoveto
            0 -135 243 -130 263 vhcurveto
            0 -31 -4 -31 -26 -55 5 -29 callsubr
            -34 rlineto
            -2 1 -1 -2 vvcurveto
            64 -7 18 -14 -5 -40 -67 -443 rcurveline
            -6 -41 -21 -17 -40 -5 -11 -43 rcurveline
            0 52 8 37 42 58 -4 -33 callsubr
            3 rlineto
            -49 hlineto
            -22 -7 9 30 4 hvcurveto
            60 441 rlineto
            4 hlineto
            0 141 -253 152 -311 vhcurveto
            25 14 82 566 6 39 23 18 45 6 rlinecurve
            return
          </CharString>
          <CharString index="8">
            69 vvcurveto
            54 -33 42 -43 vhcurveto
            -62 -36 -72 -94 -69 -135 -5 3 rcurveline
            19 117 42 121 -45 callgsubr
            0 -101 -6 -61 vhcurveto
            -7 -67 callsubr
            31 12 -12 -28 -32 -55 -336 -54 callgsubr
            82 rlineto
            164 69 75 111 42 hhcurveto
            20 14 -17 -24 return
          </CharString>
          <CharString index="9">
            rmoveto
            -38 41 -10 2 rlineto
            0 -78 -95 -72 -78 vhcurveto
            20 -19 9 -2 rlineto
            84 76 84 64 0 vvcurveto
            return
          </CharString>
          <CharString index="10">
            43 138 rmoveto
            -11 -19 -17 -45 -8 -30 rrcurveto
            -35 11 45 -21 61 hhcurveto
            86 79 72 77 72 -81 45 -45 48 hvcurveto
            -18 19 -12 19 22 vvcurveto
            31 25 23 32 40 32 -26 -44 15 vhcurveto
            14 hlineto
            9 19 17 35 8 24 rrcurveto
            25 -19 -39 15 -45 hhcurveto
            -83 -73 -65 -75 -57 50 -40 44 -38 hvcurveto
            34 -29 29 -28 -34 vvcurveto
            -35 -32 -29 -38 -62 -34 36 68 vhcurveto
            return
          </CharString>
          <CharString index="11">
            hstemhm
            hintmask 01110000
            90 320 rmoveto
            49 16 22 16 54 hhcurveto
            101 -1 -284 -364 11 -17 rlineto
            21 35 29 9 28 hhcurveto
            hintmask 10110000
            73 51 -45 61 hhcurveto
            48 40 47 56 11 -3 12 -5 16 hvcurveto
            -18 2 rlineto
            -43 -10 -26 -22 -37 hhcurveto
            hintmask 01110000
            -44 -55 22 -43 hhcurveto
            -29 -7 61 82 121 149 113 132 rlinecurve
            -5 19 -44 7 -16 -20 rlineto
            -12 -10 -6 -3 -15 hhcurveto
            -91 -114 28 0 hvcurveto
            -14 -10 rlineto
            -10 -62 -24 -78 0 vvcurveto
            return
          </CharString>
          <CharString index="12">
            41 7 rlineto
            56 145 -5 0 hvcurveto
            9 6 rlineto
            10 49 22 62 0 vvcurveto
            -39 -4 rlineto
            -46 -16 -13 -11 -41 hhcurveto
            -76 hlineto
            -2 5 rlineto
            127 135 39 58 51 vvcurveto
            47 -40 30 -57 -46 -53 -34 -46 -31 vhcurveto
            4 -41 rlineto
            8 hlineto
            40 28 34 22 33 hhcurveto
            29 15 -13 -25 -39 -40 -65 -73 -81 hvcurveto
            -77 -77 rlineto
            endchar
          </CharString>
          <CharString index="13">
            rmoveto
            -50 47 -30 56 80 63 57 68 42 -27 25 -30 18 vhcurveto
            29 15 40 30 52 vvcurveto
            50 -46 28 -50 -73 -56 -55 -61 -39 24 -25 29 -19 vhcurveto
            -32 -14 -54 -32 -60 vvcurveto
            118 -41 rmoveto
            -35 -22 27 31 42 32 21 20 10 hvcurveto
            35 -19 35 -17 -33 vvcurveto
            -36 -31 -26 -34 vhcurveto
            -22 253 rmoveto
            27 23 25 32 27 18 -18 -32 -37 -20 -20 -17 -11 vhcurveto
            -32 18 -31 17 31 vvcurveto
            endchar
          </CharString>
          <CharString index="14">
            rmoveto
            31 25 26 29 20 -12 18 -24 -30 -26 callsubr
            11 -19 24 hvcurveto
            -160 hmoveto
            31 25 26 29 20 -12 18 -24 -31 -24 -26 -29 -19 11 -19 24 hvcurveto
            endchar
          </CharString>
          <CharString index="15">
            rmoveto
            31 24 26 29 20 -11 18 -24 -31 -26 callsubr
            12 -19 24 hvcurveto
            -160 hmoveto
            31 24 26 29 20 -11 18 -24 -31 -26 callsubr
            12 -19 24 hvcurveto
            return
          </CharString>
          <CharString index="16">
            -20 hstem
            64 hmoveto
            -71 callsubr
            15 113 rlineto
            141 55 72 90 57 hhcurveto
            17 11 -5 0 hvcurveto
            8 3 rlineto
            3 13 2 11 11 vvcurveto
            28 -9 24 -20 17 vhcurveto
            -44 -82 -103 -125 -55 hvcurveto
            -4 1 rlineto
            19 99 35 108 -45 callgsubr
            0 -101 -6 -61 vhcurveto
            -7 -67 callsubr
            32 11 -12 -32 -40 -55 -324 0 hvcurveto
            return
          </CharString>
          <CharString index="17">
            rmoveto
            -41 -4 10 -16 32 hhcurveto
            87 101 72 66 38 -24 26 -50 15 hvcurveto
            1 5 rlineto
            47 21 32 37 38 vvcurveto
            40 -35 27 -47 -44 -56 -36 -7 -12 vhcurveto
            6 -37 rlineto
            7 hlineto
            17 22 30 11 21 hhcurveto
            22 14 -14 -21 -28 -25 -28 -33 -16 hvcurveto
            -42 -9 rlineto
            -32 vlineto
            hintmask 11000000
            5 -5 rlineto
            62 29 -16 -36 -42 -44 -30 -55 -17 -17 3 5 -16 hvcurveto
            endchar
          </CharString>
          <CharString index="18">
            69 -3 7 -5 -28 -340 -4 -54 0 -54 -8 -65 rlinecurve
            -45 -6 -31 -34 -35 hhcurveto
            -43 -28 33 50 1 hvcurveto
            -14 hlineto
            -11 -19 -17 -42 -6 -23 rrcurveto
            -26 9 39 -20 42 hhcurveto
            85 58 61 106 12 hvcurveto
            52 return
          </CharString>
          <CharString index="19">
            -1 callsubr
            90 28 74 -32 callgsubr
            0 -94 23 -79 -211 -161 -171 -224 return
          </CharString>
          <CharString index="20">
            0 27 2 14 29 5 -12 -42 -5 vhcurveto
            -52 -424 -7 -56 -20 -19 -61 -12 rlinecurve
            12 callgsubr
            return
          </CharString>
          <CharString index="21">
            rmoveto
            57 -71 63 -89 0 vvcurveto
            13 hlineto
            0 85 89 75 71 vhcurveto
            -13 23 -8 1 -53 -43 -53 -37 -29 -21 rlinecurve
            -25 21 -42 36 -43 44 -8 -1 rcurveline
            endchar
          </CharString>
          <CharString index="22">
            rmoveto
            -9 1 -125 -65 -109 65 -10 -1 -16 -22 120 -111 rlineto
            13 hlineto
            148 111 rlineto
            endchar
          </CharString>
          <CharString index="23">
            0 22 2 11 29 5 -11 -43 14 callsubr
            -57 -19 -19 -59 -8 -39 callsubr
            return
          </CharString>
          <CharString index="24">
            -45 callgsubr
            0 -100 -6 -61 vhcurveto
            -6 -67 callsubr
            30 12 -12 return
          </CharString>
          <CharString index="25">
            -102 16 rlineto
            -105 -113 -161 -150 -61 19 -48 32 -19 hvcurveto
            -1 -9 -83 -49 -69 -45 -35 -28 rlinecurve
            -2 -5 rlineto
            -62 -4 81 -64 83 hhcurveto
            111 134 125 116 14 hvcurveto
            return
          </CharString>
          <CharString index="26">
            -72 12 rlineto
            -112 -117 -172 -164 -86 29 -50 51 hvcurveto
            63 44 58 74 65 121 7 -2 rcurveline
            0 -43 -188 -20 vvcurveto
            -19 12 -10 24 21 36 28 78 83 vhcurveto
            -13 24 -12 1 rlineto
            -55 -65 -5 -4 -9 -21 callsubr
            26 40 -13 -19 32 hvcurveto
            -170 -73 -87 -135 -37 hhcurveto
            return
          </CharString>
          <CharString index="27">
            rmoveto
            21 158 65 261 0 vvcurveto
            -10 12 rlineto
            0 -98 -6 -61 vhcurveto
            -8 -67 callsubr
            31 13 -13 -30 -35 -50 -292 0 hvcurveto
            -18 -141 -33 -56 -77 -55 -3 -8 rcurveline
            15 -19 95 49 58 74 19 139 rlinecurve
            return
          </CharString>
          <CharString index="28">
            hstem
            447 13 rmoveto
            16 95 33 107 0 vvcurveto
            -43 -5 -36 -115 -46 -51 -66 -1 rlinecurve
            -199 -7 49 67 179 245 214 254 rlinecurve
            -7 28 -244 7 -167 11 -11 -9 rlineto
            -13 -91 -28 -101 0 vvcurveto
            44 4 23 102 36 35 88 2 rlinecurve
            170 6 -429 -568 8 -31 69 6 344 -6 rlineto
            return
          </CharString>
          <CharString index="29">
            -20 hstemhm
            443 79 hintmask 01111100
            -86 callgsubr
            rlineto
            hintmask 10111100
            -7 -58 -16 -13 -61 -7 -14 -43 rcurveline
            0 62 4 47 -1 vhcurveto
            45 -1 55 -2 0 vvcurveto
            13 40 -1 3 rlineto
            -62 -7 10 73 10 hvcurveto
            22 154 rlineto
            9 52 rmoveto
            9 72 9 72 21 107 rrcurveto
            18 5 3 5 13 hhcurveto
            108 54 -40 -76 -138 -126 -31 2 1 hvcurveto
            return
          </CharString>
          <CharString index="30">
            -57 callgsubr
            190 -45 callgsubr
            0 -101 -6 -61 vhcurveto
            return
          </CharString>
          <CharString index="31">
            27 77 -33 32 hhcurveto
            16 4 84 89 1 5 -20 -46 callgsubr
            -22 vhcurveto
            return
          </CharString>
          <CharString index="32">
            -57 callgsubr
            193 0 vvcurveto
            -8 12 -31 15 -5 -1 -9 -25 return
          </CharString>
          <CharString index="33">
            rcurveline
            37 250 64 269 -83 callsubr
            -27 return
          </CharString>
          <CharString index="34">
            rmoveto
            99 75 99 136 91 -41 59 -69 -99 -76 -98 -135 -93 40 -59 71 hvcurveto
            18 66 rmoveto
            -51 -30 41 65 87 42 57 64 51 31 -42 -65 -87 -44 -56 -63 hvcurveto
            endchar
          </CharString>
          <CharString index="35">
            30 callgsubr
            22 -82 rmoveto
            2 -10 27 -6 51 97 rlineto
            -7 13 15 -4 16 hhcurveto
            125 104 151 176 55 -16 42 -27 25 hvcurveto
            45 83 -3 12 -29 7 -43 -82 rlineto
            5 -13 -13 2 -15 hhcurveto
            -121 -106 -148 -164 -58 15 -46 26 -28 hvcurveto
            111 23 rmoveto
            -18 -16 9 17 -13 hvcurveto
            147 280 rlineto
            9 -24 5 -30 -35 vvcurveto
            -125 -48 -92 -66 vhcurveto
            -80 159 rmoveto
            116 48 86 65 17 15 -7 -13 13 vhcurveto
            -144 -277 rlineto
            -9 26 -5 32 37 vvcurveto
            return
          </CharString>
          <CharString index="36">
            7 -9 rlineto
            16 45 17 6 1 hvcurveto
            return
          </CharString>
          <CharString index="37">
            14 43 -2 -49 callgsubr
            -20 -3 -35 -33 -14 15 36 38 58 378 20 94 vhcurveto
            142 -7 3 -3 3 -119 44 4 rcurveline
            0 -2 81 8 83 vhcurveto
            -8 7 return
          </CharString>
          <CharString index="38">
            0 -55 -9 -40 -32 -57 4 0 vhcurveto
            -14 -42 -11 callsubr
            -1 20 1 17 hhcurveto
            20 10 -14 -29 -3 hvcurveto
            -52 -418 rlineto
            return
          </CharString>
          <CharString index="39">
            rmoveto
            -40 -34 17 33 -12 hvcurveto
            -8 hlineto
            -18 -10 rlineto
            -49 8 30 -49 67 hhcurveto
            67 42 49 49 20 hvcurveto
            -15 10 rlineto
            -8 hlineto
            -33 -20 -38 -17 -41 hhcurveto
            endchar
          </CharString>
          <CharString index="40">
            -38 rlineto
            41 hlineto
            return
          </CharString>
          <CharString index="41">
            0 -77 -6 -48 -56 -91 1 0 vhcurveto
            -16 -45 -26 callgsubr
            82 1 56 vhcurveto
            137 1 13 47 rlineto
            endchar
          </CharString>
          <CharString index="42">
            rmoveto
            36 29 30 35 23 -14 22 -28 -37 -29 -30 -35 -23 13 -22 30 hvcurveto
            endchar
          </CharString>
          <CharString index="43">
            -27 -78 33 -32 hhcurveto
            -15 -4 -84 -89 -1 -5 19 -21 rlineto
            return
          </CharString>
          <CharString index="44">
            0 69 10 74 99 194 -5 -2 -2 vhcurveto
            5 6 rlineto
            19 84 28 83 0 vvcurveto
            -3 5 -44 -5 rlineto
            -110 -29 -18 -12 -138 hhcurveto
            -53 -20 18 50 -1 hvcurveto
            -6 171 108 9 83 2 19 52 -4 5 -90 -13 -116 -11 -2 230 rlineto
            23 10 8 59 124 22 -7 -44 -25 -9 -38 0 vhcurveto
            47 4 rlineto
            17 92 25 73 0 vvcurveto
            return
          </CharString>
          <CharString index="45">
            -83 callsubr
            -28 return
          </CharString>
          <CharString index="46">
            0 -77 -6 -48 -57 -91 1 0 vhcurveto
            -15 -45 -26 callgsubr
            81 1 57 vhcurveto
            136 1 13 47 rlineto
            endchar
          </CharString>
          <CharString index="47">
            -22 34 -12 28 56 72 45 53 35 -44 28 -28 22 vhcurveto
            return
          </CharString>
          <CharString index="48">
            vvcurveto
            -53 39 -30 57 vhcurveto
            51 17 53 46 0 vvcurveto
            return
          </CharString>
          <CharString index="49">
            -88 -90 -64 41 -38 48 -29 vhcurveto
            -49 -23 -95 -54 -102 vvcurveto
            177 -79 rmoveto
            -62 -40 50 55 82 66 38 36 15 hvcurveto
            hintmask 11110000
            59 -33 60 -30 -61 vvcurveto
            -66 -59 -50 -60 vhcurveto
            -48 425 rmoveto
            49 41 47 58 vhcurveto
            hintmask 11101000
            47 34 -32 -60 -70 -40 -35 -31 -18 hvcurveto
            -55 33 -54 30 56 vvcurveto
            endchar
          </CharString>
          <CharString index="50">
            59 rmoveto
            17 -16 15 -26 -28 vvcurveto
            -43 -34 -47 -45 -31 vhcurveto
            -10 vlineto
            18 -15 rlineto
            60 35 80 66 77 vvcurveto
            51 -23 27 -28 -22 -23 -16 -10 -13 vhcurveto
            return
          </CharString>
          <CharString index="51">
            0 vvcurveto
            -7 9 rlineto
            0 -70 -4 -44 vhcurveto
            -5 -32 rlineto
            24 hlineto
            return
          </CharString>
          <CharString index="52">
            27 77 -33 32 hhcurveto
            16 4 83 79 rlineto
            5 vlineto
            -19 21 rlineto
            -6 hlineto
            0 -44 -45 -22 vhcurveto
            return
          </CharString>
          <CharString index="53">
            5 -43 callsubr
            return
          </CharString>
          <CharString index="54">
            -156 17 rlineto
            -112 -117 -172 -164 -86 29 -50 51 hvcurveto
            51 36 48 55 51 83 rrcurveto
            -9 vlineto
            -102 44 -63 72 57 66 50 71 38 vhcurveto
            -15 24 -14 1 rlineto
            -52 -27 -43 -34 -40 hhcurveto
            -47 -28 57 85 5 hvcurveto
            171 57 67 55 84 vvcurveto
            return
          </CharString>
          <CharString index="55">
            -95 343 44 212 48 hstem
            141 387 rmoveto
            -27 -17 35 56 70 26 51 36 28 16 -30 -54 -77 -25 -51 -37 hvcurveto
            -25 -44 rmoveto
            86 67 90 113 64 -31 37 -53 -84 -68 -88 -106 -68 33 -42 50 hvcurveto
            endchar
          </CharString>
          <CharString index="56">
            126 118 rmoveto
            -7 -57 -15 -13 -61 -6 -15 -43 rcurveline
            0 62 1 47 43 74 -23 callsubr
            15 44 -2 -49 callgsubr
            -25 -3 -19 -34 -9 14 53 8 vhcurveto
            65 434 6 38 17 15 49 7 rlinecurve
            8 43 rlineto
            return
          </CharString>
          <CharString index="57">
            rmoveto
            0 -40 -23 -37 -30 -19 20 28 return
          </CharString>
          <CharString index="58">
            rmoveto
            36 27 31 35 23 -14 21 -27 -37 -27 -32 -34 -22 14 -22 28 hvcurveto
            return
          </CharString>
          <CharString index="59">
            51 -8 callgsubr
            33 79 211 77 vstem
            417 -9 callsubr
            -371 -109 -322 vvcurveto
            -102 54 -77 96 123 94 98 110 71 -47 77 -100 return
          </CharString>
          <CharString index="60">
            rmoveto
            186 173 2 15 -145 166 -24 -15 -2 -10 82 -155 -119 -149 -1 -10 rlineto
            return
          </CharString>
          <CharString index="61">
            -4 -36 callgsubr
            return
          </CharString>
          <CharString index="62">
            1 rcurveline
            11 67 23 68 0 vvcurveto
            -6 9 rlineto
            -19 callgsubr
            20 7 -7 -19 -1 hvcurveto
            -1 -24 -33 -199 0 vvcurveto
            -35 callgsubr
            6 return
          </CharString>
          <CharString index="63">
            -3 -33 callsubr
            -49 callgsubr
            return
          </CharString>
          <CharString index="64">
            -11 -14 callsubr
            return
          </CharString>
          <CharString index="65">
            0 -71 -9 -39 vhcurveto
            -103 hlineto
            -11 -42 rlineto
            -3 vlineto
            0 35 4 12 28 6 -10 -14 callsubr
            return
          </CharString>
          <CharString index="66">
            -64 callsubr
            endchar
          </CharString>
          <CharString index="67">
            hstem
            34 72 194 75 vstem
            return
          </CharString>
          <CharString index="68">
            rlinecurve
            -11 -43 rlineto
            return
          </CharString>
          <CharString index="69">
            rmoveto
            22 -13 18 -22 -27 vvcurveto
            -34 -32 -40 -40 -25 vhcurveto
            -10 vlineto
            18 -15 rlineto
            55 29 73 54 72 vvcurveto
            hintmask 11010000
            -24 callsubr
          </CharString>
          <CharString index="70">
            75 -12 81 337 54 return
          </CharString>
          <CharString index="71">
            rmoveto
            41 29 32 37 28 -17 22 -33 -40 -28 -32 -37 -26 14 -24 34 hvcurveto
            endchar
          </CharString>
          <CharString index="72">
            9 -21 24 -21 380 93 return
          </CharString>
          <CharString index="73">
            2 callgsubr
            5 return
          </CharString>
          <CharString index="74">
            0 vhcurveto
            14 43 -2 return
          </CharString>
          <CharString index="75">
            0 vvcurveto
            endchar
          </CharString>
          <CharString index="76">
            vhcurveto
            -56 -53 -42 -46 -49 -59 callsubr
            return
          </CharString>
          <CharString index="77">
            -27 -12 60 358 58 return
          </CharString>
          <CharString index="78">
            0 vhcurveto
            -11 return
          </CharString>
          <CharString index="79">
            hstem
            -15 callgsubr
            vstem
            return
          </CharString>
          <CharString index="80">
            -19 11 -10 20 return
          </CharString>
          <CharString index="81">
            -25 -26 -29 -19 return
          </CharString>
          <CharString index="82">
            -56 callsubr
            18 return
          </CharString>
          <CharString index="83">
            44 -24 27 -30 -22 -23 -16 -10 -13 vhcurveto
            endchar
          </CharString>
          <CharString index="84">
            -3 0 vhcurveto
            return
          </CharString>
          <CharString index="85">
            -272 -21 226 return
          </CharString>
          <CharString index="86">
            hhcurveto
            -203 9 rmoveto
            -16 -13 46 58 119 63 114 65 return
          </CharString>
          <CharString index="87">
            51 -37 -21 325 59 -15 callsubr
            16 return
          </CharString>
          <CharString index="88">
            -44 24 -27 30 22 23 16 10 13 vhcurveto
            return
          </CharString>
          <CharString index="89">
            8 0 vhcurveto
            -12 -41 -11 callsubr
            return
          </CharString>
          <CharString index="90">
            64 -31 64 22 -20 hstemhm
            return
          </CharString>
          <CharString index="91">
            -1 8 40 -4 3 return
          </CharString>
          <CharString index="92">
            hstemhm
            hintmask 01100000
            return
          </CharString>
          <CharString index="93">
            -43 -5 vhcurveto
            return
          </CharString>
          <CharString index="94">
            rmoveto
            -14 43 -8 -11 callgsubr
            -95 -54 -84 -44 vhcurveto
            5 -22 7 -4 rlineto
            95 36 91 30 -32 callsubr
          </CharString>
          <CharString index="95">
            -20 hstemhm
            hintmask 11000000
            return
          </CharString>
          <CharString index="96">
            2 -4 rlineto
            return
          </CharString>
          <CharString index="97">
            vhcurveto
            -7 -11 callgsubr
            -62 -8 -43 -6 vhcurveto
            -2 -31 rlineto
            0 23 3 7 15 6 -6 -18 3 vhcurveto
            return
          </CharString>
          <CharString index="98">
            563 rmoveto
            -7 30 -6 5 rlineto
            0 return
          </CharString>
          <CharString index="99">
            134 0 41 -32 -21 656 -20 return
          </CharString>
          <CharString index="100">
            -242 47 83 -20 return
          </CharString>
          <CharString index="101">
            42 158 -20 hstem
            17 callgsubr
            return
          </CharString>
          <CharString index="102">
            -8 0 hvcurveto
            7 6 38 118 -34 -4 -14 -30 return
          </CharString>
          <CharString index="103">
            26 65 60 38 42 57 57 return
          </CharString>
          <CharString index="104">
            2 -46 callsubr
            11 return
          </CharString>
          <CharString index="105">
            -4 -29 3 -5 69 -3 return
          </CharString>
          <CharString index="106">
            43 4 rlineto
            17 return
          </CharString>
          <CharString index="107">
            80 -12 43 521 46 hstemhm
            40 75 221 73 -60 77 hintmask 11110000
            40 110 rmoveto
            -79 return
          </CharString>
          <CharString index="108">
            2 153 hhcurveto
            14 51 rlineto
            endchar
          </CharString>
          <CharString index="109">
            5 -9 rlineto
            return
          </CharString>
          <CharString index="110">
            -10 -35 rmoveto
            51 34 44 45 30 -17 29 -43 -48 -36 -37 -49 -36 20 -26 39 hvcurveto
            return
          </CharString>
          <CharString index="111">
            hhcurveto
            33 41 -14 -29 45 7 callgsubr
            15 -29 -52 10 -40 hhcurveto
            return
          </CharString>
          <CharString index="112">
            56 124 205 -52 52 11 callsubr
            23 return
          </CharString>
          <CharString index="113">
            305 20 callsubr
            return
          </CharString>
          <CharString index="114">
            12 -12 79 -34 56 295 52 return
          </CharString>
          <CharString index="115">
            1 rlineto
            -29 -34 -6 -5 -6 hhcurveto
            return
          </CharString>
          <CharString index="116">
            -9 -39 0 hvcurveto
            return
          </CharString>
          <CharString index="117">
            -25 callsubr
            7 -7 -17 return
          </CharString>
          <CharString index="118">
            hstemhm
            hintmask 10100000
            return
          </CharString>
          <CharString index="119">
            rmoveto
            -16 -23 10 27 25 15 16 27 27 13 -15 -23 -36 -28 -4 -15 hvcurveto
            return
          </CharString>
          <CharString index="120">
            -82 -11 rlineto
            -298 hlineto
            return
          </CharString>
          <CharString index="121">
            -5 vhcurveto
            -53 10 callgsubr
            return
          </CharString>
          <CharString index="122">
            -42 -12 59 358 59 return
          </CharString>
          <CharString index="123">
            89 104 67 -46 40 -51 31 vhcurveto
            hintmask 11101000
            46 24 68 50 86 vvcurveto
            80 return
          </CharString>
          <CharString index="124">
            0 -89 43 -74 36 vhcurveto
            -151 70 1 6 153 60 rlineto
            83 34 return
          </CharString>
          <CharString index="125">
            568 40 callsubr
            -25 -24 -8 -13 -23 vhcurveto
            return
          </CharString>
          <CharString index="126">
            29 callgsubr
            0 return
          </CharString>
          <CharString index="127">
            -21 -21 42 25 callgsubr
            return
          </CharString>
          <CharString index="128">
            -1 40 -34 -21 612 -20 64 -20 return
          </CharString>
          <CharString index="129">
            444 41 callsubr
            return
          </CharString>
          <CharString index="130">
            66 250 69 hstem
            148 return
          </CharString>
          <CharString index="131">
            vhcurveto
            -6 -32 rlineto
            24 hlineto
            return
          </CharString>
          <CharString index="132">
            hhcurveto
            -107 -89 -89 -122 -15 23 callgsubr
            return
          </CharString>
          <CharString index="133">
            -84 -21 194 54 361 -20 21 -20 hstemhm
            hintmask 11010000
            return
          </CharString>
          <CharString index="134">
            rmoveto
            -1 -1 -128 -5 -76 -85 -142 1 -2 hhcurveto
            return
          </CharString>
          <CharString index="135">
            -228 -20 34 -21 46 -20 201 54 335 83 return
          </CharString>
          <CharString index="136">
            -16 -49 rlineto
            hintmask 01100000
            4 -9 rlineto
            return
          </CharString>
          <CharString index="137">
            0 vvcurveto
            8 -6 51 11 rlineto
            0 return
          </CharString>
          <CharString index="138">
            0 57 10 72 vhcurveto
            return
          </CharString>
          <CharString index="139">
            62 -7 9 -159 -13 rlineto
            -83 hmoveto
            -156 5 return
          </CharString>
          <CharString index="140">
            116 109 152 163 93 -42 64 -60 return
          </CharString>
          <CharString index="141">
            -21 344 41 hstem
            33 return
          </CharString>
          <CharString index="142">
            67 -21 354 -20 hstem
            return
          </CharString>
          <CharString index="143">
            -12 70 249 59 149 69 47 -20 hstem
            return
          </CharString>
          <CharString index="144">
            80 vstem
            26 -70 rmoveto
            8 -30 6 -5 rlineto
            0 return
          </CharString>
          <CharString index="145">
            -158 -136 -21 256 return
          </CharString>
          <CharString index="146">
            123 -12 44 567 49 return
          </CharString>
          <CharString index="147">
            386 rmoveto
            -14 callgsubr
            return
          </CharString>
          <CharString index="148">
            -21 226 -20 hstem
            return
          </CharString>
          <CharString index="149">
            -58 -73 -42 vhcurveto
            5 -45 rlineto
            9 hlineto
            70 return
          </CharString>
          <CharString index="150">
            102 -12 49 362 54 288 -20 hstem
            return
          </CharString>
          <CharString index="151">
            rmoveto
            -42 -44 -4 callsubr
            return
          </CharString>
          <CharString index="152">
            -20 hstemhm
            hintmask 10110000
            return
          </CharString>
        <CharString name=".notdef">
          -194 endchar
        </CharString>
        <CharString name="A">
          166 11 -21 31 -21 649 -20 -102 callgsubr
          hintmask 01100000
          0 70 10 73 32 69 -23 callsubr
          11 39 -2 3 -55 6 -19 15 -10 51 rlinecurve
          -152 433 rmoveto
          7 hlineto
          44 -267 rlineto
          -3 -22 -43 -3 -26 hhcurveto
          -85 hlineto
          endchar
        </CharString>
        <CharString name="AE">
          392 0 44 -33 -21 598 49 -42 -20 74 -20 hstemhm
          366 72 hintmask 01100100
          266 35 rmoveto
          -6 -38 1 -7 rlineto
          hintmask 10100100
          -63 callsubr
          hintmask 10011100
          -2 6 rlineto
          hintmask 10100100
          -67 callgsubr
          endchar
        </CharString>
        <CharString name="AEacute">
          395 0 44 -33 -21 598 49 -42 -20 315 -20 hstemhm
          366 72 hintmask 01101100
          266 35 rmoveto
          -6 -38 1 -7 rlineto
          hintmask 10101100
          -63 callsubr
          -2 6 rlineto
          -67 callgsubr
          346 532 -98 callsubr
          endchar
        </CharString>
        <CharString name="Aacute">
          -30 callgsubr
          841 -20 -102 callgsubr
          hintmask 01100000
          0 70 10 73 32 69 -23 callsubr
          11 39 -2 3 -55 6 -19 15 -10 51 rlinecurve
          -152 433 rmoveto
          7 hlineto
          44 -267 rlineto
          -3 -22 -43 -3 -26 hhcurveto
          -85 hlineto
          333 516 -96 callgsubr
        </CharString>
        <CharString name="Abreve">
          -30 callgsubr
          710 58 50 -20 hstemhm
          hintmask 01110000
          456 111 rmoveto
          -106 callgsubr
          rlineto
          hintmask 10110000
          2 -7 rlineto
          hintmask 01110000
          0 70 10 73 32 69 -23 callsubr
          11 39 -2 3 -55 6 -19 15 -10 51 rlinecurve
          -152 433 rmoveto
          7 hlineto
          44 -267 rlineto
          -3 -22 -43 -3 -26 hhcurveto
          -85 hlineto
          174 497 -68 callsubr
        </CharString>
        <CharString name="Acircumflex">
          -30 callgsubr
          846 -20 -102 callgsubr
          hintmask 01100000
          0 70 10 73 32 69 -23 callsubr
          11 39 -2 3 -55 6 -19 15 -10 51 rlinecurve
          -152 433 rmoveto
          7 hlineto
          44 -267 rlineto
          -3 -22 -43 -3 -26 hhcurveto
          -85 hlineto
          42 442 -82 callgsubr
        </CharString>
        <CharString name="Adieresis">
          -30 callgsubr
          725 93 -102 callgsubr
          hintmask 01100000
          0 70 10 73 32 69 -23 callsubr
          11 39 -2 3 -55 6 -19 15 -10 51 rlinecurve
          -152 433 rmoveto
          7 hlineto
          44 -267 rlineto
          -3 -22 -43 -3 -26 hhcurveto
          -85 hlineto
          245 454 -93 callsubr
        </CharString>
        <CharString name="Agrave">
          -30 callgsubr
          841 -20 -102 callgsubr
          hintmask 01100000
          0 70 10 73 32 69 -23 callsubr
          11 39 -2 3 -55 6 -19 15 -10 51 rlinecurve
          -152 433 rmoveto
          7 hlineto
          44 -267 rlineto
          -3 -22 -43 -3 -26 hhcurveto
          -85 hlineto
          30 506 rmoveto
          0 101 -34 105 -40 vhcurveto
          8 5 6 24 rlineto
          -94 49 -105 60 -13 callgsubr
          -6 -16 -48 rlineto
          endchar
        </CharString>
        <CharString name="Amacron">
          -30 callgsubr
          730 52 6 -20 -102 callgsubr
          hintmask 01010000
          0 70 10 73 32 69 -23 callsubr
          11 39 -2 3 -55 6 -19 15 -10 51 rlinecurve
          -152 433 rmoveto
          7 hlineto
          44 -267 rlineto
          -3 -22 -43 -3 -26 hhcurveto
          -85 hlineto
          314 517 rmoveto
          hintmask 01100000
          -66 callsubr
        </CharString>
        <CharString name="Aogonek">
          172 -242 59 204 -21 649 -20 hstem
          519 -160 -50 callsubr
          42 23 30 65 62 vhcurveto
          50 -2 11 39 -2 3 -55 6 -19 15 -10 51 rlinecurve
          -106 callgsubr
          2 -7 rlineto
          0 70 10 73 vhcurveto
          9 hlineto
          -63 -57 -47 -50 -52 -59 callsubr
          -225 723 rmoveto
          7 hlineto
          44 -267 rlineto
          -3 -22 -43 -3 -26 hhcurveto
          -85 hlineto
          endchar
        </CharString>
        <CharString name="Aring">
          -30 callgsubr
          674 164 -102 callgsubr
          hintmask 01100000
          0 70 10 73 32 69 -23 callsubr
          11 39 -2 3 -55 6 -19 15 -10 51 rlinecurve
          -152 433 rmoveto
          7 hlineto
          44 -267 rlineto
          -3 -22 -43 -3 -26 hhcurveto
          -85 hlineto
          170 441 -79 callgsubr
        </CharString>
        <CharString name="Aringacute">
          -30 callgsubr
          669 148 125 -20 hstemhm
          hintmask 01110000
          456 111 rmoveto
          -106 callgsubr
          rlineto
          hintmask 10110000
          2 -7 rlineto
          hintmask 01110000
          0 70 10 73 32 69 -23 callsubr
          11 39 -2 3 -55 6 -19 15 -10 51 rlinecurve
          -152 433 rmoveto
          7 hlineto
          44 -267 rlineto
          -3 -22 -43 -3 -26 hhcurveto
          -85 hlineto
          176 433 12 callsubr
          3 callsubr
          129 224 -13 callsubr
        </CharString>
        <CharString name="Atilde">
          -30 callgsubr
          711 64 -31 64 12 -20 hstemhm
          hintmask 01101000
          456 111 rmoveto
          -106 callgsubr
          rlineto
          hintmask 10101000
          2 -7 rlineto
          hintmask 01010000
          0 70 10 73 32 69 -23 callsubr
          11 39 -2 3 -55 6 -19 15 -10 51 rlinecurve
          -152 433 rmoveto
          7 hlineto
          44 -267 rlineto
          -3 -22 -43 -3 -26 hhcurveto
          -85 hlineto
          38 428 34 callgsubr
          hintmask 01101000
          -55 callsubr
          hintmask 01010000
          -41 callgsubr
        </CharString>
        <CharString name="B">
          185 -10 47 -28 -21 33 -21 596 -20 64 -20 hstemhm
          433 81 hintmask 00111100
          138 hmoveto
          hintmask 10011100
          49 45 -10 43 hhcurveto
          126 113 98 108 68 -49 52 -84 19 hvcurveto
          82 34 51 62 77 vvcurveto
          85 -70 47 -111 vhcurveto
          0 -67 -4 -35 -36 -68 3 0 vhcurveto
          -12 -41 -3 callsubr
          29 -54 callsubr
          -52 -424 -7 -57 -18 -18 -62 -12 rlinecurve
          hintmask 01011100
          -10 -43 rlineto
          hintmask 00111100
          0 60 12 49 vhcurveto
          178 302 rmoveto
          78 -14 39 -43 -65 vvcurveto
          hintmask 10011100
          -86 -56 -57 -86 -81 -28 19 52 6 vhcurveto
          28 192 rlineto
          7 49 rmoveto
          13 88 13 75 11 67 rrcurveto
          18 4 3 5 14 hhcurveto
          106 50 -36 -75 -125 -109 -25 0 -13 -92 8 0 hvcurveto
          endchar
        </CharString>
        <CharString name="C">
          218 -12 45 561 54 -98 callgsubr
          endchar
        </CharString>
        <CharString name="Cacute">
          24 callgsubr
          193 -20 -98 callgsubr
          249 799 -96 callgsubr
        </CharString>
        <CharString name="Ccaron">
          24 callgsubr
          190 -20 -98 callgsubr
          246 849 -85 callsubr
        </CharString>
        <CharString name="Ccedilla">
          217 -27 callgsubr
          150 44 561 54 hstemhm
          45 87 hintmask 01111100
          254 -77 callgsubr
          hintmask 10111100
          -60 callsubr
          17 39 rlineto
          105 4 69 35 0 vvcurveto
          6 9 rlineto
          15 70 31 90 0 vvcurveto
          -43 -4 rlineto
          -109 -38 -60 -51 -88 hhcurveto
          -119 -71 99 150 187 104 125 147 88 43 -28 -56 -20 9 callsubr
          -88 callsubr
          -154 95 -101 144 -9 vhcurveto
          endchar
        </CharString>
        <CharString name="Ccircumflex">
          24 callgsubr
          229 -20 -98 callgsubr
          -42 714 -99 callgsubr
        </CharString>
        <CharString name="Cdotaccent">
          24 callgsubr
          71 110 -98 callgsubr
          101 731 -65 callsubr
        </CharString>
        <CharString name="D">
          289 -12 47 -14 -21 596 44 hstemhm
          567 86 hintmask 10110000
          286 -12 rmoveto
          201 166 177 211 157 -120 107 -171 hvcurveto
          0 -92 -4 -44 -37 -63 3 -29 callsubr
          -41 1 -4 rlineto
          0 22 2 12 28 -54 callsubr
          -52 10 callgsubr
          -56 -18 -18 -62 -12 -39 callsubr
          hintmask 01110000
          0 64 12 48 vhcurveto
          hintmask 10110000
          48 98 -12 0 hvcurveto
          12 608 rmoveto
          175 94 -87 -153 -189 -104 -132 -158 -86 -28 15 57 36 27 156 44 275 hvcurveto
          18 3 7 4 26 hhcurveto
          endchar
        </CharString>
        <CharString name="Dcaron">
          288 -12 47 -14 -21 596 44 198 -20 hstemhm
          567 86 hintmask 10111000
          286 -12 rmoveto
          201 166 177 211 157 -120 107 -171 hvcurveto
          0 -92 -4 -44 -37 -63 3 -29 callsubr
          -41 1 -4 rlineto
          0 22 2 12 28 -54 callsubr
          -52 10 callgsubr
          -56 -18 -18 -62 -12 -39 callsubr
          hintmask 01111000
          0 64 12 48 vhcurveto
          hintmask 10111000
          48 98 -12 0 hvcurveto
          12 608 rmoveto
          175 94 -87 -153 -189 -104 -132 -158 -86 -28 15 57 36 27 156 44 275 hvcurveto
          18 3 7 4 26 hhcurveto
          227 241 -85 callsubr
        </CharString>
        <CharString name="Dcroat">
          -80 callgsubr
        </CharString>
        <CharString name="Delta">
          134 0 57 592 -20 hstem
          -10 hmoveto
          466 hlineto
          8 7 rlineto
          -45 225 -62 417 0 vvcurveto
          -8 hlineto
          -68 -17 -299 -619 rlineto
          315 527 rmoveto
          76 -483 rlineto
          -309 hlineto
          226 483 rlineto
          endchar
        </CharString>
        <CharString name="E">
          181 0 41 -30 -21 315 46 239 46 -40 -20 72 45 callsubr
          185 80 rmoveto
          34 15 72 16 112 vhcurveto
          3 16 30 4 28 hhcurveto
          53 82 -3 0 hvcurveto
          20 56 -3 -49 callgsubr
          -84 -11 -34 vhcurveto
          -29 -49 1 -21 hhcurveto
          31 199 rlineto
          38 6 4 1 63 hhcurveto
          117 25 -4 -46 -26 9 callsubr
          44 4 rlineto
          17 92 25 72 0 vvcurveto
          hintmask 10101100
          -2 5 rlineto
          hintmask 10110000
          -9 -64 -71 -3 -154 hhcurveto
          -57 -74 3 0 hvcurveto
          -11 -42 1 -3 rlineto
          hintmask 01101100
          -84 callsubr
          hintmask 10110000
          0 60 10 72 90 199 -7 0 vhcurveto
          5 5 rlineto
          19 84 28 82 -34 callsubr
          -41 -5 rlineto
          -111 -29 -19 -12 -154 hhcurveto
          -56 -16 4 35 hvcurveto
          endchar
        </CharString>
        <CharString name="Eacute">
          -63 callgsubr
          265 -20 -104 callgsubr
          hintmask 10110100
          0 60 10 72 90 199 -7 0 vhcurveto
          5 5 rlineto
          19 84 28 82 -34 callsubr
          -41 -5 rlineto
          -111 -29 -19 -12 -154 hhcurveto
          -56 -16 4 35 hvcurveto
          300 707 -96 callgsubr
        </CharString>
        <CharString name="Ebreve">
          -63 callgsubr
          147 58 66 -20 hstemhm
          hintmask 10110110
          -105 callsubr
          hintmask 01101110
          -84 callsubr
          hintmask 10110110
          0 60 10 72 90 199 -7 0 vhcurveto
          5 5 rlineto
          19 84 28 82 -34 callsubr
          -41 -5 rlineto
          -111 -29 -19 -12 -154 hhcurveto
          -56 -16 4 35 hvcurveto
          183 701 -95 callgsubr
          endchar
        </CharString>
        <CharString name="Ecaron">
          -63 callgsubr
          262 -20 -104 callgsubr
          hintmask 10110100
          0 60 10 72 90 199 -7 0 vhcurveto
          5 5 rlineto
          19 84 28 82 -34 callsubr
          -41 -5 rlineto
          -111 -29 -19 -12 -154 hhcurveto
          -56 -16 4 35 hvcurveto
          319 757 -85 callsubr
        </CharString>
        <CharString name="Ecircumflex">
          -63 callgsubr
          270 -20 -104 callgsubr
          hintmask 10110100
          0 60 10 72 90 199 -7 0 vhcurveto
          5 5 rlineto
          19 84 28 82 -34 callsubr
          -41 -5 rlineto
          -111 -29 -19 -12 -154 hhcurveto
          -56 -16 4 35 hvcurveto
          51 633 -82 callgsubr
        </CharString>
        <CharString name="Edieresis">
          -63 callgsubr
          149 93 -104 callgsubr
          hintmask 10110100
          0 60 10 72 90 199 -7 0 vhcurveto
          5 5 rlineto
          19 84 28 82 -34 callsubr
          -41 -5 rlineto
          -111 -29 -19 -12 -154 hhcurveto
          -56 -16 4 35 hvcurveto
          254 645 -93 callsubr
        </CharString>
        <CharString name="Edotaccent">
          -63 callgsubr
          143 110 -104 callgsubr
          hintmask 10110100
          0 60 10 72 90 199 -7 0 vhcurveto
          5 5 rlineto
          19 84 28 82 -34 callsubr
          -41 -5 rlineto
          -111 -29 -19 -12 -154 hhcurveto
          -56 -16 4 35 hvcurveto
          174 639 -65 callsubr
        </CharString>
        <CharString name="Egrave">
          -63 callgsubr
          265 -20 -104 callgsubr
          hintmask 10110100
          0 60 10 72 90 199 -7 0 vhcurveto
          5 5 rlineto
          19 84 28 82 -34 callsubr
          -41 -5 rlineto
          -111 -29 -19 -12 -154 hhcurveto
          -56 -16 4 35 hvcurveto
          39 697 rmoveto
          0 101 -34 105 -40 vhcurveto
          8 5 6 24 rlineto
          -94 49 -105 60 -13 callgsubr
          -6 -16 -48 rlineto
          endchar
        </CharString>
        <CharString name="Emacron">
          -63 callgsubr
          154 52 6 -20 -104 callgsubr
          hintmask 10110010
          0 60 10 72 90 199 -7 0 vhcurveto
          5 5 rlineto
          19 84 28 82 -34 callsubr
          -41 -5 rlineto
          -111 -29 -19 -12 -154 hhcurveto
          -56 -16 4 35 hvcurveto
          323 708 rmoveto
          hintmask 10110100
          -66 callsubr
        </CharString>
        <CharString name="Eng">
          305 -133 -21 154 44 549 44 8 -20 hstemhm
          hintmask 11100000
          189 637 rmoveto
          -21 -58 5 0 hvcurveto
          -12 -37 3 -5 65 -10 15 -13 -5 -39 rlinecurve
          -62 -414 -11 -64 -16 -18 -44 -4 rlinecurve
          -11 -46 rlineto
          0 47 8 39 46 63 -4 0 vhcurveto
          14 46 -2 -49 callgsubr
          -39 -2 -9 -23 -6 10 30 4 vhcurveto
          57 427 rlineto
          5 hlineto
          0 122 -222 140 -281 vhcurveto
          -23 -55 -38 -37 -71 -29 -4 -8 rcurveline
          13 -33 121 42 56 69 21 129 rlinecurve
          64 450 6 39 20 18 47 6 rlinecurve
          hintmask 11010000
          10 46 rlineto
          hintmask 11100000
          0 -56 -8 -41 -31 -61 4 0 vhcurveto
          -15 -45 -11 callsubr
          0 19 1 17 22 8 -14 -29 -3 vhcurveto
          -50 -405 rlineto
          -5 hlineto
          0 -151 274 -107 222 vhcurveto
          0 -56 -4 -15 vhcurveto
          endchar
        </CharString>
        <CharString name="Eogonek">
          182 -241 59 182 41 264 46 239 46 -40 -20 72 -20 hstemhm
          hintmask 11110000
          447 -159 -50 callsubr
          41 22 29 60 59 vhcurveto
          28 -1 19 -1 0 vvcurveto
          5 5 rlineto
          19 84 28 82 -34 callsubr
          -41 -5 rlineto
          -111 -29 -19 -12 -154 hhcurveto
          -56 -16 4 35 34 15 72 16 112 hvcurveto
          3 16 30 4 28 hhcurveto
          53 82 -3 0 hvcurveto
          20 56 -3 -49 callgsubr
          -84 -11 -34 vhcurveto
          -29 -49 1 -21 hhcurveto
          31 199 rlineto
          38 6 4 1 63 hhcurveto
          117 25 -4 -46 -26 9 callsubr
          44 4 rlineto
          17 92 25 72 0 vvcurveto
          hintmask 11101100
          -2 5 rlineto
          hintmask 11110000
          -9 -64 -71 -3 -154 hhcurveto
          -57 -74 3 0 hvcurveto
          -11 -42 1 -3 rlineto
          hintmask 11101100
          -84 callsubr
          0 60 10 72 50 85 -2 -2 65 vhcurveto
          -59 -55 -45 -48 -51 -59 callsubr
          endchar
        </CharString>
        <CharString name="Eth">
          -80 callgsubr
        </CharString>
        <CharString name="Euro">
          178 -9 46 133 153 -38 222 -52 52 11 callsubr
          352 210 rmoveto
          -175 -4 rlineto
          -6 14 hlineto
          23 2 22 4 20 vhcurveto
          187 1 7 30 -5 9 -175 -4 rlineto
          -5 hlineto
          hintmask 11010000
          84 27 64 50 84 hhcurveto
          68 33 -21 -42 -15 -7 -33 0 hvcurveto
          46 4 rlineto
          14 74 23 60 -32 callgsubr
          0 -81 19 -65 -133 -105 -74 -112 -43 vhcurveto
          -82 hlineto
          -8 -29 rlineto
          hintmask 10100000
          4 -7 rlineto
          74 hlineto
          -6 -25 -4 -27 -27 vvcurveto
          -74 hlineto
          -8 -29 rlineto
          hintmask 11010000
          4 -7 rlineto
          79 hlineto
          -111 13 82 -68 120 hhcurveto
          95 65 31 0 hvcurveto
          6 8 rlineto
          12 57 24 74 0 vvcurveto
          -46 -4 rlineto
          -83 -29 -45 -37 -68 hhcurveto
          -77 -50 50 83 -14 hvcurveto
          175 1 7 30 rlineto
          endchar
        </CharString>
        <CharString name="F">
          104 0 40 -31 -21 299 47 256 46 -40 -20 72 45 callsubr
          213 280 rmoveto
          3 17 29 4 29 hhcurveto
          45 74 -3 0 hvcurveto
          19 57 -2 -49 callgsubr
          -72 -11 -30 vhcurveto
          -99 1 33 216 rlineto
          38 6 4 1 63 hhcurveto
          100 24 -4 -45 -27 -9 -42 0 hvcurveto
          -1 callsubr
          92 26 75 0 vvcurveto
          hintmask 10101100
          -2 5 rlineto
          hintmask 10110000
          -9 -62 -77 -3 -132 hhcurveto
          -57 -74 3 0 hvcurveto
          -11 -42 1 -3 rlineto
          hintmask 01101100
          0 22 2 11 29 5 -11 -43 14 callsubr
          -56 -17 -18 -62 -12 rlinecurve
          -10 -43 rlineto
          hintmask 10110000
          0 61 12 47 51 91 -4 0 vhcurveto
          13 43 -1 -49 callgsubr
          -49 -3 -20 -33 -8 21 47 7 vhcurveto
          endchar
        </CharString>
        <CharString name="G">
          13 callgsubr
          -102 callsubr
          endchar
        </CharString>
        <CharString name="Gbreve">
          13 callgsubr
          82 58 50 -20 -102 callsubr
          97 800 -68 callsubr
        </CharString>
        <CharString name="Gcircumflex">
          13 callgsubr
          229 -20 -102 callsubr
          -55 714 -99 callgsubr
        </CharString>
        <CharString name="Gcommaaccent">
          254 -22 callsubr
          55 0 45 0 219 0 47 295 54 -102 callsubr
          -76 -95 -101 callgsubr
          endchar
        </CharString>
        <CharString name="Gdotaccent">
          13 callgsubr
          71 110 -102 callsubr
          88 731 -65 callsubr
        </CharString>
        <CharString name="H">
          20 callgsubr
          250 40 10 -20 hstemhm
          hintmask 10101000
          -20 callgsubr
          hintmask 10110000
          -48 callgsubr
          hintmask 10101000
          8 43 rlineto
          hintmask 01110000
          0 -60 -10 -40 -37 -69 -55 callgsubr
          -48 -391 -8 -83 -10 -22 -73 -15 -39 callsubr
          hintmask 10110000
          -83 callgsubr
          42 38 237 30 183 vhcurveto
          endchar
        </CharString>
        <CharString name="Hbar">
          20 callgsubr
          103 46 101 40 10 -20 hstemhm
          hintmask 10110100
          -20 callgsubr
          hintmask 10111000
          0 -71 -10 -45 -33 -58 3 1 1 vhcurveto
          -13 -43 2 -3 -36 callgsubr
          12 28 8 -11 -43 -7 vhcurveto
          -6 -46 rlineto
          -1 -46 -49 0 -41 hhcurveto
          -167 hlineto
          3 16 11 72 6 11 58 9 rlinecurve
          hintmask 10110100
          8 43 rlineto
          hintmask 01111000
          0 -60 -10 -40 -37 -69 -55 callgsubr
          -6 -47 rlineto
          -59 -46 1 0 hvcurveto
          -7 -39 9 -9 rlineto
          97 hlineto
          -36 -297 -8 -83 -10 -22 -73 -15 -39 callsubr
          hintmask 10111000
          -83 callgsubr
          35 26 169 26 161 vhcurveto
          104 1 4 37 -13 13 rlineto
          0 -37 -2 -50 -1 vhcurveto
          2 17 3 16 3 16 rrcurveto
          -241 -97 rmoveto
          152 hlineto
          -12 -93 rlineto
          -7 -58 -38 -3 -49 -54 -55 1 -54 hhcurveto
          16 102 rlineto
          endchar
        </CharString>
        <CharString name="Hcircumflex">
          20 callgsubr
          250 40 267 -20 hstemhm
          hintmask 01111000
          -20 callgsubr
          -48 callgsubr
          8 43 rlineto
          0 -60 -10 -40 -37 -69 -55 callgsubr
          -48 -391 -8 -83 -10 -22 -73 -15 -39 callsubr
          hintmask 10111000
          -83 callgsubr
          42 38 237 30 183 vhcurveto
          -332 182 -99 callgsubr
        </CharString>
        <CharString name="I">
          -40 -52 callgsubr
          26 -20 hstemhm
          hintmask 10001000
          256 546 rmoveto
          6 38 16 12 54 7 10 43 rcurveline
          hintmask 10100000
          0 -66 -10 -44 vhcurveto
          hintmask 10010000
          -39 -76 4 2 -70 callgsubr
          hintmask 01100000
          -87 callsubr
          hintmask 10100000
          -91 callgsubr
          endchar
        </CharString>
        <CharString name="IJ">
          274 -122 -21 143 42 553 -20 21 -17 callgsubr
          hintmask 11100100
          256 546 rmoveto
          6 38 16 12 54 7 10 43 rcurveline
          hintmask 11110000
          0 -66 -10 -44 vhcurveto
          hintmask 11101000
          -39 -76 4 2 -70 callgsubr
          hintmask 11110000
          -87 callsubr
          -91 callgsubr
          205 -432 -60 callgsubr
          -42 callsubr
          endchar
        </CharString>
        <CharString name="Iacute">
          -39 -52 callgsubr
          221 -20 -89 callgsubr
          hintmask 10101000
          -91 callgsubr
          135 241 -96 callgsubr
        </CharString>
        <CharString name="Ibreve">
          -39 -52 callgsubr
          100 58 50 -20 hstemhm
          hintmask 10101100
          256 546 rmoveto
          6 38 16 12 54 7 10 43 rcurveline
          0 -66 -10 -44 vhcurveto
          hintmask 10011100
          -39 -76 4 2 -70 callgsubr
          hintmask 01101100
          -87 callsubr
          hintmask 10101100
          -91 callgsubr
          -19 232 -68 callsubr
        </CharString>
        <CharString name="Icircumflex">
          -39 -52 callgsubr
          226 -20 -89 callgsubr
          hintmask 10101000
          -91 callgsubr
          -146 167 -82 callgsubr
        </CharString>
        <CharString name="Idieresis">
          -39 -52 callgsubr
          105 93 -89 callgsubr
          hintmask 10101000
          -91 callgsubr
          57 179 -93 callsubr
        </CharString>
        <CharString name="Idotaccent">
          -39 -52 callgsubr
          99 110 -89 callgsubr
          hintmask 10101000
          -91 callgsubr
          -23 173 -65 callsubr
        </CharString>
        <CharString name="Igrave">
          -39 -52 callgsubr
          221 -20 -89 callgsubr
          hintmask 10101000
          -91 callgsubr
          -158 231 rmoveto
          0 101 -34 105 -40 vhcurveto
          8 5 6 24 rlineto
          -94 49 -105 60 -13 callgsubr
          -6 -16 -48 rlineto
          endchar
        </CharString>
        <CharString name="Imacron">
          -39 -52 callgsubr
          110 52 6 -20 -89 callgsubr
          hintmask 10100100
          -91 callgsubr
          126 242 rmoveto
          hintmask 10101000
          -66 callsubr
        </CharString>
        <CharString name="Iogonek">
          -39 -242 59 183 42 554 -17 callgsubr
          hintmask 11001000
          258 -160 -50 callsubr
          42 23 30 64 62 vhcurveto
          23 -1 20 -1 0 vvcurveto
          14 44 -2 -43 callgsubr
          -23 -26 -11 10 33 42 39 239 31 180 vhcurveto
          6 38 16 12 54 7 10 43 rcurveline
          hintmask 11100000
          0 -66 -10 -44 vhcurveto
          hintmask 11010000
          -39 -76 4 2 -70 callgsubr
          hintmask 11100000
          -87 callsubr
          0 63 12 48 vhcurveto
          40 hlineto
          -62 -57 -47 -50 -52 -59 callsubr
          endchar
        </CharString>
        <CharString name="Itilde">
          -39 -52 callgsubr
          128 -17 callsubr
          hintmask 10101010
          256 546 rmoveto
          6 38 16 12 54 7 10 43 rcurveline
          0 -66 -10 -44 vhcurveto
          hintmask 10011010
          -39 -76 4 2 -70 callgsubr
          hintmask 01101010
          -87 callsubr
          hintmask 10100110
          -91 callgsubr
          -153 180 -23 callgsubr
          hintmask 10101010
          -76 callsubr
          hintmask 10100110
          -41 callsubr
        </CharString>
        <CharString name="J">
          -73 -122 -21 738 41 9 -16 callgsubr
          114 114 -60 callgsubr
          hintmask 11000000
          -42 callsubr
          endchar
        </CharString>
        <CharString name="Jcircumflex">
          -72 -122 -21 738 41 241 -20 hstem
          114 114 -60 callgsubr
          -42 callsubr
          -65 160 -99 callgsubr
        </CharString>
        <CharString name="K">
          215 0 42 -35 -21 610 40 10 -20 hstemhm
          hintmask 10010000
          -51 callsubr
          hintmask 01100000
          0 -60 -10 -41 -37 -68 -55 callgsubr
          64 -227 rmoveto
          140 -243 rlineto
          -53 31 35 -33 31 hhcurveto
          10 69 12 0 hvcurveto
          9 32 -3 3 rlineto
          -45 -29 23 62 -39 hvcurveto
          -136 221 178 174 66 62 21 14 34 6 rlinecurve
          10 39 -2 -11 callgsubr
          -50 -4 -37 -36 -68 -18 callsubr
          39 -3 18 -9 -16 vvcurveto
          -14 -11 -16 -25 -24 vhcurveto
          -198 -189 rlineto
          endchar
        </CharString>
        <CharString name="Kcommaaccent">
          219 -22 callsubr
          67 0 42 554 40 10 -20 hstemhm
          hintmask 10101000
          -51 callsubr
          hintmask 11010000
          0 -60 -10 -41 -37 -68 -55 callgsubr
          64 -227 rmoveto
          140 -243 rlineto
          -53 31 35 -33 31 hhcurveto
          10 69 12 0 hvcurveto
          9 32 -3 3 rlineto
          -45 -29 23 62 -39 hvcurveto
          -136 221 178 174 66 62 21 14 34 6 rlinecurve
          10 39 -2 -11 callgsubr
          -50 -4 -37 -36 -68 -18 callsubr
          39 -3 18 -9 -16 vvcurveto
          -14 -11 -16 -25 -24 vhcurveto
          -198 -189 rlineto
          -24 -435 -101 callgsubr
          endchar
        </CharString>
        <CharString name="L">
          99 0 41 -30 -21 606 -17 callgsubr
          hintmask 10001000
          167 hmoveto
          -85 callgsubr
          hintmask 10100000
          31 callgsubr
          hintmask 10010000
          -36 -71 4 1 -70 callgsubr
          hintmask 01100000
          -64 callgsubr
          hintmask 10100000
          31 callsubr
          endchar
        </CharString>
        <CharString name="Lacute">
          102 0 41 -30 -21 606 40 4 -20 221 -20 hstemhm
          hintmask 10101000
          167 hmoveto
          -85 callgsubr
          31 callgsubr
          hintmask 10011000
          -36 -71 4 1 -70 callgsubr
          hintmask 01101000
          -64 callgsubr
          hintmask 10101000
          31 callsubr
          240 787 -96 callgsubr
        </CharString>
        <CharString name="Lcaron">
          102 0 41 -30 -21 606 -17 callgsubr
          hintmask 10010000
          496 634 rmoveto
          -70 -14 rlineto
          0 10 -108 -4 -110 vhcurveto
          11 -2 25 14 rlineto
          hintmask 10001000
          21 102 14 110 0 vvcurveto
          -336 -626 rmoveto
          -85 callgsubr
          hintmask 10100000
          31 callgsubr
          hintmask 10010000
          -36 -71 4 1 -70 callgsubr
          hintmask 01100000
          -64 callgsubr
          hintmask 10100000
          31 callsubr
          endchar
        </CharString>
        <CharString name="Lcommaaccent">
          102 -22 callsubr
          67 0 41 555 -17 callgsubr
          hintmask 10100100
          167 hmoveto
          -85 callgsubr
          hintmask 11010000
          31 callgsubr
          hintmask 11001000
          -36 -71 4 1 -70 callgsubr
          hintmask 10110000
          -64 callgsubr
          31 callsubr
          23 -107 -38 callsubr
        </CharString>
        <CharString name="Ldot">
          102 0 41 -30 -21 423 119 64 -17 callgsubr
          hintmask 10100100
          167 hmoveto
          -85 callgsubr
          hintmask 10110000
          31 callgsubr
          hintmask 10101000
          -36 -71 4 1 -70 callgsubr
          hintmask 01110000
          -64 callgsubr
          hintmask 10110000
          31 callsubr
          268 413 -36 callsubr
        </CharString>
        <CharString name="Lslash">
          102 0 41 -30 -21 606 -17 callgsubr
          hintmask 10001000
          167 hmoveto
          89 166 -9 0 hvcurveto
          5 5 rlineto
          23 97 28 89 0 1 -1 2 1 vvcurveto
          -42 -4 rlineto
          -123 -35 -23 -18 -113 hhcurveto
          -62 -14 9 41 21 16 115 17 111 hvcurveto
          163 80 -5 31 -8 5 -143 -71 22 125 16 83 3 4 56 9 rlinecurve
          8 42 rlineto
          hintmask 10100000
          31 callgsubr
          hintmask 10010000
          -36 -71 4 1 -70 callgsubr
          hintmask 01100000
          0 22 2 11 27 7 -10 -44 -5 vhcurveto
          -24 -189 -120 -60 5 -32 9 -3 101 50 -24 -191 -7 -57 -18 -19 -50 -8 rlinecurve
          12 callgsubr
          hintmask 10100000
          31 callsubr
          endchar
        </CharString>
        <CharString name="M">
          427 0 41 -39 -21 661 -16 callgsubr
          374 -13 rmoveto
          84 176 85 179 85 187 rrcurveto
          5 hlineto
          0 -17 -410 -4 -34 vhcurveto
          -4 -29 -19 -16 -40 -5 -9 -43 rcurveline
          0 56 8 42 35 55 -3 36 callgsubr
          -16 -2 -11 -31 -7 17 79 2 vhcurveto
          3 143 15 242 3 27 3 33 22 15 57 7 9 34 rcurveline
          1 -1 2 1 vvcurveto
          0 -77 -6 -28 -18 -43 5 -2 1 vhcurveto
          -125 -296 -99 -209 0 vvcurveto
          -4 hlineto
          0 -56 207 -54 299 vhcurveto
          0 -35 -4 -28 -30 -73 5 -29 callsubr
          -32 -11 callsubr
          54 -4 24 -15 -31 vvcurveto
          -23 -75 -341 -16 -78 vhcurveto
          -12 -54 -18 -18 -40 -6 -11 -43 rcurveline
          0 44 8 38 32 60 -4 36 callgsubr
          -30 -1 -10 -18 -8 8 17 20 89 443 0 vhcurveto
          4 hlineto
          hintmask 01100000
          41 -187 41 -183 40 -178 rrcurveto
          endchar
        </CharString>
        <CharString name="N">
          303 20 callsubr
          9 -20 hstemhm
          hintmask 11110000
          -100 callsubr
          hintmask 11101000
          10 44 rlineto
          hintmask 11110000
          -69 callsubr
          endchar
        </CharString>
        <CharString name="Nacute">
          6 callsubr
          205 -20 hstem
          -100 callsubr
          10 44 rlineto
          -69 callsubr
          54 653 -96 callgsubr
        </CharString>
        <CharString name="Ncaron">
          6 callsubr
          202 -20 hstem
          -100 callsubr
          10 44 rlineto
          -69 callsubr
          31 703 -85 callsubr
        </CharString>
        <CharString name="Ncommaaccent">
          305 -272 -21 293 25 callgsubr
          9 -20 hstemhm
          hintmask 11110000
          -100 callsubr
          hintmask 11101000
          10 44 rlineto
          hintmask 11110000
          -69 callsubr
          -268 -241 -101 callgsubr
          endchar
        </CharString>
        <CharString name="Ntilde">
          6 callsubr
          75 64 -31 64 12 -20 hstemhm
          hintmask 11110100
          -100 callsubr
          10 44 rlineto
          -69 callsubr
          -241 565 34 callgsubr
          hintmask 11111010
          -55 callsubr
          hintmask 11110100
          -41 callgsubr
        </CharString>
        <CharString name="O">
          279 -12 47 558 55 -28 callsubr
          -103 callsubr
          endchar
        </CharString>
        <CharString name="OE">
          537 -12 57 -44 44 258 50 234 48 -48 62 -58 -20 hstemhm
          45 90 hintmask 10101010
          546 105 rmoveto
          26 191 76 7 rlineto
          51 82 -3 0 hvcurveto
          21 59 -3 5 rlineto
          0 -84 -11 -35 vhcurveto
          -99 1 32 194 rlineto
          37 6 3 2 62 hhcurveto
          114 25 -5 -46 -25 -9 -38 0 hvcurveto
          49 4 rlineto
          17 92 26 74 -32 callgsubr
          hintmask 10110010
          -10 -70 -88 -4 -136 hhcurveto
          hintmask 10101010
          -79 -74 14 -66 hhcurveto
          -190 -155 -176 -220 -156 97 -109 138 hvcurveto
          hintmask 01100110
          68 69 13 98 hhcurveto
          93 199 -8 0 hvcurveto
          6 6 rlineto
          19 85 27 83 -34 callsubr
          -45 -5 rlineto
          -110 -29 -20 -12 -149 hhcurveto
          -69 -6 6 54 7 hvcurveto
          -240 -65 rmoveto
          -106 -65 97 143 183 103 128 133 135 33 -25 -99 -12 hvcurveto
          -33 -259 rlineto
          -123 -17 -50 -45 -121 hhcurveto
          endchar
        </CharString>
        <CharString name="Oacute">
          -34 callgsubr
          193 -20 -28 callsubr
          -103 callsubr
          243 799 -96 callgsubr
        </CharString>
        <CharString name="Obreve">
          -34 callgsubr
          85 58 66 -20 -28 callsubr
          -103 callsubr
          100 803 -95 callgsubr
          endchar
        </CharString>
        <CharString name="Ocircumflex">
          -34 callgsubr
          198 -20 -28 callsubr
          -103 callsubr
          -28 725 -82 callgsubr
        </CharString>
        <CharString name="Odieresis">
          -34 callgsubr
          77 93 -28 callsubr
          -103 callsubr
          175 737 -93 callsubr
        </CharString>
        <CharString name="Ograve">
          -34 callgsubr
          193 -20 -28 callsubr
          -103 callsubr
          -30 789 rmoveto
          0 101 -34 105 -40 vhcurveto
          8 5 6 24 rlineto
          -94 49 -105 60 -13 callgsubr
          -6 -16 -48 rlineto
          endchar
        </CharString>
        <CharString name="Ohungarumlaut">
          -34 callgsubr
          189 -20 -28 callsubr
          -103 callsubr
          159 802 rmoveto
          -22 43 -9 -49 callgsubr
          -81 -64 -72 -53 vhcurveto
          9 -21 8 -5 38 callgsubr
          143 hmoveto
          -22 42 -9 5 rlineto
          0 -81 -64 -72 -54 vhcurveto
          10 -21 7 -4 38 callgsubr
          endchar
        </CharString>
        <CharString name="Omacron">
          -34 callgsubr
          82 42 callgsubr
          -15 callgsubr
          hintmask 11011100
          -103 callsubr
          254 800 rmoveto
          hintmask 11101100
          -66 callsubr
        </CharString>
        <CharString name="Omega">
          430 1 55 -41 -21 595 60 hstemhm
          124 86 hintmask 10110000
          728 10 rmoveto
          10 72 30 92 0 vvcurveto
          -41 -5 rlineto
          -88 -25 -25 -25 -61 hhcurveto
          -101 hlineto
          121 80 82 133 134 vvcurveto
          145 -107 101 -152 -183 -152 -146 -182 -96 43 -100 75 -69 vhcurveto
          -87 hlineto
          -62 -19 27 91 -2 hvcurveto
          -39 -5 rlineto
          0 5 -87 -7 -72 vhcurveto
          hintmask 01110000
          14 -16 237 14 rlineto
          hintmask 10110000
          40 -7 10 23 rlineto
          -78 70 -44 114 111 vvcurveto
          163 103 107 138 108 67 -86 -125 -132 -51 -97 -153 -126 vhcurveto
          4 -21 41 6 rlineto
          hintmask 01110000
          244 -14 rlineto
          endchar
        </CharString>
        <CharString name="Oslash">
          277 -77 -21 86 47 558 55 60 -74 callgsubr
          endchar
        </CharString>
        <CharString name="Oslashacute">
          277 -77 -21 86 47 558 55 193 -74 callgsubr
          399 502 -96 callgsubr
        </CharString>
        <CharString name="Otilde">
          -34 callgsubr
          63 64 -31 64 12 -20 hstemhm
          -15 callgsubr
          hintmask 11010110
          -103 callsubr
          -22 711 34 callgsubr
          hintmask 11101110
          -55 callsubr
          hintmask 11010110
          -41 callgsubr
        </CharString>
        <CharString name="P">
          142 0 41 -28 -21 604 44 hstemhm
          457 78 hintmask 01110000
          115 598 rmoveto
          -3 callsubr
          28 6 -43 callsubr
          -52 10 callgsubr
          -57 -15 -14 -58 -11 rlinecurve
          12 callgsubr
          hintmask 10110000
          3 2 88 5 53 hhcurveto
          30 55 -2 -1 hvcurveto
          14 44 rlineto
          1 -1 2 1 vvcurveto
          0 -34 -4 -19 -33 -11 13 38 6 vhcurveto
          23 154 rlineto
          92 hlineto
          123 113 118 125 98 -73 53 -120 hvcurveto
          0 -84 -4 -26 vhcurveto
          -36 -71 4 2 hhcurveto
          90 -339 rmoveto
          13 95 16 102 17 84 rrcurveto
          13 2 -1 1 26 hhcurveto
          114 53 -40 -87 -104 -50 -65 -90 -14 hvcurveto
          endchar
        </CharString>
        <CharString name="Q">
          284 -214 73 129 47 558 55 -28 callsubr
          286 -12 rmoveto
          1 hlineto
          -172 206 55 -30 92 hhcurveto
          18 78 66 0 hvcurveto
          -3 15 -4 2 rlineto
          0 -32 -10 -46 -77 -77 36 99 -126 vhcurveto
          6 vlineto
          156 42 117 155 185 vvcurveto
          156 -101 110 -146 -193 -159 -178 -216 -157 99 -109 142 vhcurveto
          25 47 rmoveto
          -111 -73 99 151 175 103 133 138 114 75 -99 -151 -177 -104 -131 -142 hvcurveto
          endchar
        </CharString>
        <CharString name="R">
          199 21 callsubr
          hstemhm
          443 79 hintmask 01111000
          -86 callgsubr
          rlineto
          hintmask 10111000
          -7 -58 -16 -13 -61 -7 -14 -43 rcurveline
          0 62 4 47 -1 vhcurveto
          45 -1 55 -2 0 vvcurveto
          13 40 -1 3 rlineto
          -62 -7 10 73 10 hvcurveto
          22 154 rlineto
          9 52 rmoveto
          9 72 9 72 21 107 rrcurveto
          18 5 3 5 13 hhcurveto
          108 54 -40 -76 -138 -126 -31 2 1 hvcurveto
          endchar
        </CharString>
        <CharString name="Racute">
          203 21 callsubr
          221 -78 callsubr
          193 469 -96 callgsubr
        </CharString>
        <CharString name="Rcaron">
          203 21 callsubr
          218 -78 callsubr
          170 519 -85 callsubr
        </CharString>
        <CharString name="Rcommaaccent">
          203 -272 -21 292 40 0 237 320 -20 64 -20 hstemhm
          443 79 hintmask 11011100
          -86 callgsubr
          -7 -58 -16 -13 -61 -7 rlinecurve
          -14 -43 rlineto
          0 62 4 47 -1 vhcurveto
          45 -1 55 -2 0 vvcurveto
          13 40 -1 3 rlineto
          -62 -7 10 73 10 hvcurveto
          hintmask 10111100
          22 154 rlineto
          9 52 rmoveto
          9 72 9 72 21 107 rrcurveto
          18 5 3 5 13 hhcurveto
          108 54 -40 -76 -138 -126 -31 2 1 hvcurveto
          -109 -425 -101 callgsubr
          endchar
        </CharString>
        <CharString name="S">
          121 -12 44 567 49 hstem
          96 74 191 81 vstem
          192 -12 rmoveto
          148 102 90 117 97 -119 44 -80 54 hvcurveto
          -41 29 -32 30 43 vvcurveto
          61 60 46 76 77 28 -19 -55 -30 -11 -44 0 vhcurveto
          5 -5 36 4 rlineto
          17 92 24 77 9 callgsubr
          0 -67 24 -85 -131 -101 -89 -109 -86 85 -44 74 -44 vhcurveto
          57 -34 49 -35 -53 vvcurveto
          -73 -62 -49 -88 -105 -17 29 149 18 vhcurveto
          -41 -5 rlineto
          -12 -99 -22 -75 0 vvcurveto
          4 -10 rlineto
          0 66 -33 90 vhcurveto
          endchar
        </CharString>
        <CharString name="Sacute">
          39 callsubr
          193 -20 hstem
          96 74 191 81 vstem
          192 -12 rmoveto
          148 102 90 117 97 -119 44 -80 54 hvcurveto
          -41 29 -32 30 43 vvcurveto
          61 60 46 76 77 28 -19 -55 -30 -11 -44 0 vhcurveto
          5 -5 36 4 rlineto
          17 92 24 77 9 callgsubr
          0 -67 24 -85 -131 -101 -89 -109 -86 85 -44 74 -44 vhcurveto
          57 -34 49 -35 -53 vvcurveto
          -73 -62 -49 -88 -105 -17 29 149 18 vhcurveto
          -41 -5 rlineto
          -12 -99 -22 -75 0 vvcurveto
          4 -10 rlineto
          0 66 -33 90 vhcurveto
          287 799 -96 callgsubr
        </CharString>
        <CharString name="Scaron">
          39 callsubr
          190 -20 hstem
          96 74 191 81 vstem
          192 -12 rmoveto
          148 102 90 117 97 -119 44 -80 54 hvcurveto
          -41 29 -32 30 43 vvcurveto
          61 60 46 76 77 28 -19 -55 -30 -11 -44 0 vhcurveto
          5 -5 36 4 rlineto
          17 92 24 77 9 callgsubr
          0 -67 24 -85 -131 -101 -89 -109 -86 85 -44 74 -44 vhcurveto
          57 -34 49 -35 -53 vvcurveto
          -73 -62 -49 -88 -105 -17 29 149 18 vhcurveto
          -41 -5 rlineto
          -12 -99 -22 -75 0 vvcurveto
          4 -10 rlineto
          0 66 -33 90 vhcurveto
          274 849 -85 callsubr
        </CharString>
        <CharString name="Scedilla">
          123 -27 callgsubr
          149 44 567 49 hstemhm
          96 74 191 81 hintmask 01111110
          161 -77 callgsubr
          hintmask 10111110
          -60 callsubr
          18 41 rlineto
          125 14 84 84 106 vvcurveto
          97 -119 44 -80 54 vhcurveto
          -41 29 -32 30 43 vvcurveto
          61 60 46 76 77 28 -19 -55 -30 -11 -44 0 vhcurveto
          5 -5 36 4 rlineto
          17 92 24 77 9 callgsubr
          0 -67 24 -85 -131 -101 -89 -109 -86 85 -44 74 -44 vhcurveto
          57 -34 49 -35 -53 vvcurveto
          -73 -62 -49 -88 -105 -17 29 149 18 vhcurveto
          -41 -5 rlineto
          -12 -99 -22 -75 0 vvcurveto
          4 -10 rlineto
          0 66 -33 89 vhcurveto
          endchar
        </CharString>
        <CharString name="Scircumflex">
          39 callsubr
          229 -20 hstem
          96 74 191 81 vstem
          192 -12 rmoveto
          148 102 90 117 97 -119 44 -80 54 hvcurveto
          -41 29 -32 30 43 vvcurveto
          61 60 46 76 77 28 -19 -55 -30 -11 -44 0 vhcurveto
          5 -5 36 4 rlineto
          17 92 24 77 9 callgsubr
          0 -67 24 -85 -131 -101 -89 -109 -86 85 -44 74 -44 vhcurveto
          57 -34 49 -35 -53 vvcurveto
          -73 -62 -49 -88 -105 -17 29 149 18 vhcurveto
          -41 -5 rlineto
          -12 -99 -22 -75 0 vvcurveto
          4 -10 rlineto
          0 66 -33 90 vhcurveto
          5 714 -99 callgsubr
        </CharString>
        <CharString name="Scommaaccent">
          123 -22 callsubr
          55 0 44 567 49 hstemhm
          96 74 191 81 hintmask 10111100
          192 -12 rmoveto
          148 102 90 117 97 -119 44 -80 54 hvcurveto
          -41 29 -32 30 43 vvcurveto
          61 60 46 76 77 28 -19 -55 -30 -11 -44 0 vhcurveto
          5 -5 36 4 rlineto
          17 92 24 77 9 callgsubr
          0 -67 24 -85 -131 -101 -89 -109 -86 85 -44 74 -44 vhcurveto
          57 -34 49 -35 -53 vvcurveto
          -73 -62 -49 -88 -105 -17 29 149 18 vhcurveto
          -41 -5 rlineto
          -12 -99 -22 -75 0 vvcurveto
          4 -10 rlineto
          0 66 -33 90 vhcurveto
          -49 -95 rmoveto
          22 -13 18 -22 -27 vvcurveto
          -34 -32 -40 -40 -25 vhcurveto
          -10 vlineto
          18 -15 rlineto
          55 29 73 54 72 vvcurveto
          hintmask 11011100
          -24 callsubr
        </CharString>
        <CharString name="T">
          137 0 41 -24 -21 641 -20 31 -20 hstemhm
          hintmask 01010000
          -38 callgsubr
          hintmask 10010000
          0 83 4 46 46 94 -3 0 vhcurveto
          -70 callsubr
          rlineto
          hintmask 10100000
          13 callsubr
          hintmask 10010000
          -62 callgsubr
          endchar
        </CharString>
        <CharString name="Tbar">
          140 0 41 -24 -21 313 46 282 -20 31 -20 hstemhm
          hintmask 01101000
          -38 callgsubr
          hintmask 10101000
          0 83 4 46 46 94 -44 callsubr
          -20 -3 -35 -33 -14 15 36 18 13 95 16 104 vhcurveto
          96 1 4 37 -13 13 -80 -4 16 102 17 101 9 43 rlinecurve
          142 -7 3 -3 3 -119 44 4 rcurveline
          0 -2 81 8 83 vhcurveto
          -8 7 rlineto
          hintmask 10110000
          13 callsubr
          hintmask 10101000
          -62 callgsubr
          -30 -247 -97 1 -7 -39 9 -9 89 1 rlineto
          endchar
        </CharString>
        <CharString name="Tcaron">
          140 0 41 -24 -21 641 -20 221 -20 hstemhm
          hintmask 01110000
          -38 callgsubr
          hintmask 10110000
          0 83 4 46 46 94 -3 0 vhcurveto
          -70 callsubr
          13 callsubr
          -62 callgsubr
          199 235 -85 callsubr
        </CharString>
        <CharString name="Tcedilla">
          140 -27 callgsubr
          161 41 596 -20 31 -20 hstemhm
          hintmask 01110100
          183 -77 callgsubr
          hintmask 10110100
          -60 callsubr
          22 50 rlineto
          47 -1 57 -2 0 vvcurveto
          -70 callsubr
          rlineto
          hintmask 01111000
          13 callsubr
          hintmask 01110100
          -62 callgsubr
          -53 -440 -14 -108 -8 -9 -90 -9 rlinecurve
          -12 -40 rlineto
          0 78 4 46 vhcurveto
          endchar
        </CharString>
        <CharString name="Thorn">
          137 0 44 -35 -21 466 49 91 43 3 -20 26 -20 hstemhm
          432 87 hintmask 10100110
          260 544 rmoveto
          6 38 15 12 54 7 10 45 rcurveline
          hintmask 10110010
          0 -69 -9 -44 vhcurveto
          hintmask 10101010
          -40 -74 3 -1 hhcurveto
          -13 -44 -11 callsubr
          hintmask 01110010
          0 26 2 14 29 5 -12 -42 -5 vhcurveto
          -52 -420 -7 -56 -19 -18 -61 -12 rlinecurve
          -12 -46 rlineto
          hintmask 10110010
          0 65 12 49 45 82 -5 callgsubr
          -34 -6 14 54 6 vhcurveto
          5 36 rlineto
          68 hlineto
          129 124 97 115 92 -66 51 -122 hvcurveto
          -78 hlineto
          -10 -57 rmoveto
          7 2 3 1 21 hhcurveto
          112 51 -36 -77 -86 -44 -52 -87 -11 hvcurveto
          -27 1 -46 8 -22 8 7 51 11 71 19 115 rrcurveto
          endchar
        </CharString>
        <CharString name="U">
          269 -12 53 555 40 10 -16 callgsubr
          222 546 rmoveto
          7 38 13 12 49 7 9 43 rcurveline
          hintmask 11000000
          0 -60 -10 -41 -36 -70 3 0 vhcurveto
          -12 -41 1 -46 callsubr
          12 30 -54 callsubr
          -41 -332 rlineto
          -2 -14 -1 -13 -13 vvcurveto
          -116 -1 65 -66 121 hhcurveto
          150 97 80 138 17 hvcurveto
          42 340 5 42 11 8 57 7 rlinecurve
          hintmask 10100000
          10 43 rlineto
          hintmask 11000000
          0 -53 -10 -41 -36 -71 3 -29 callsubr
          -41 rlineto
          -4 vlineto
          0 31 2 12 28 4 -8 -46 -3 vhcurveto
          0 -26 -257 -9 -70 vhcurveto
          -113 -13 -65 -61 -107 hhcurveto
          -92 -48 57 104 15 1 17 2 18 hvcurveto
          endchar
        </CharString>
        <CharString name="Uacute">
          -39 callgsubr
          205 -20 hstem
          -107 callgsubr
          386 535 -96 callgsubr
        </CharString>
        <CharString name="Ubreve">
          -39 callgsubr
          97 58 66 -20 hstem
          -107 callgsubr
          216 539 -95 callgsubr
          endchar
        </CharString>
        <CharString name="Ucircumflex">
          -39 callgsubr
          210 -20 hstem
          -107 callgsubr
          95 461 -82 callgsubr
        </CharString>
        <CharString name="Udieresis">
          -39 callgsubr
          89 93 hstem
          -107 callgsubr
          298 473 -93 callsubr
        </CharString>
        <CharString name="Ugrave">
          -39 callgsubr
          205 -20 hstem
          -107 callgsubr
          83 525 rmoveto
          0 101 -34 105 -40 vhcurveto
          8 5 6 24 rlineto
          -94 49 -105 60 -13 callgsubr
          -6 -16 -48 rlineto
          endchar
        </CharString>
        <CharString name="Uhungarumlaut">
          -39 callgsubr
          201 -20 hstem
          -107 callgsubr
          302 538 rmoveto
          -22 43 -9 -49 callgsubr
          -81 -64 -72 -53 vhcurveto
          9 -21 8 -5 38 callgsubr
          143 hmoveto
          -22 42 -9 5 rlineto
          0 -81 -64 -72 -54 vhcurveto
          10 -21 7 -4 38 callgsubr
          endchar
        </CharString>
        <CharString name="Umacron">
          -39 callgsubr
          94 42 callgsubr
          hintmask 11010000
          -107 callgsubr
          367 536 rmoveto
          hintmask 11100000
          -66 callsubr
        </CharString>
        <CharString name="Uogonek">
          266 -241 59 170 53 555 40 10 -20 hstemhm
          hintmask 11010000
          467 -159 rmoveto
          0 -40 -23 -37 -29 -20 19 29 37 21 29 111 113 vhcurveto
          41 41 28 57 8 63 42 340 rcurveline
          3 39 10 9 60 9 10 43 rcurveline
          hintmask 11100000
          0 -53 -10 -41 -36 -71 3 -29 callsubr
          -41 rlineto
          -4 vlineto
          0 31 2 12 28 4 -7 -47 -3 vhcurveto
          0 -26 -257 -9 -70 vhcurveto
          -114 -14 -65 -60 -106 hhcurveto
          -91 -49 56 105 15 1 17 2 18 hvcurveto
          44 294 6 38 14 12 49 7 rlinecurve
          hintmask 11010000
          9 43 rlineto
          hintmask 11100000
          0 -60 -10 -41 -36 -70 3 0 vhcurveto
          -12 -41 1 -46 callsubr
          12 29 6 -10 -44 -5 vhcurveto
          -41 -332 rlineto
          -2 -14 -1 -13 -13 vvcurveto
          -117 -1 66 -65 120 hhcurveto
          33 32 4 8 28 hvcurveto
          -72 -71 -30 -47 -40 vvcurveto
          -51 37 -32 59 vhcurveto
          51 17 53 46 -32 callsubr
        </CharString>
        <CharString name="Uring">
          -39 callgsubr
          38 164 hstem
          -107 callgsubr
          223 460 -79 callgsubr
        </CharString>
        <CharString name="Utilde">
          -39 callgsubr
          112 -17 callsubr
          hintmask 11011000
          -107 callgsubr
          76 474 -23 callgsubr
          hintmask 11101000
          -76 callsubr
          hintmask 11011000
          -41 callsubr
        </CharString>
        <CharString name="V">
          198 4 -21 665 -20 hstem
          122 538 rmoveto
          51 -269 54 -286 0 vvcurveto
          58 22 268 542 20 38 11 8 40 2 rlinecurve
          13 45 rlineto
          0 -60 -4 -46 -63 -73 8 -29 callsubr
          -41 -11 callsubr
          51 hlineto
          43 19 -11 -25 -28 -151 -301 -68 -141 hvcurveto
          -8 hlineto
          0 -66 421 46 vvcurveto
          30 11 9 80 5 vhcurveto
          9 37 -2 7 rlineto
          0 -95 -12 -50 -32 -77 3 0 vhcurveto
          -12 -40 1 -4 50 -1 26 -18 7 -38 rlinecurve
          endchar
        </CharString>
        <CharString name="W">
          507 4 -21 665 -20 hstem
          -105 callgsubr
          endchar
        </CharString>
        <CharString name="Wacute">
          511 4 -21 858 -20 hstem
          -105 callgsubr
          148 804 -96 callgsubr
        </CharString>
        <CharString name="Wcircumflex">
          511 4 -21 863 -20 hstem
          -105 callgsubr
          -143 730 -82 callgsubr
        </CharString>
        <CharString name="Wdieresis">
          511 4 -21 621 214 -93 93 hstemhm
          hintmask 11000000
          -105 callgsubr
          hintmask 10100000
          60 742 -93 callsubr
        </CharString>
        <CharString name="Wgrave">
          511 4 -21 858 -20 hstem
          -105 callgsubr
          -155 794 rmoveto
          0 101 -34 105 -40 vhcurveto
          8 5 6 24 rlineto
          -94 49 -105 60 -13 callgsubr
          -6 -16 -48 rlineto
          endchar
        </CharString>
        <CharString name="X">
          241 13 -21 29 -21 644 -20 21 46 callgsubr
          170 180 rmoveto
          -68 -75 -46 -46 -60 -18 -10 -38 rcurveline
          3 -7 rlineto
          0 57 4 36 36 68 -7 0 vhcurveto
          12 41 -2 3 rlineto
          -36 3 -16 8 16 vvcurveto
          20 10 16 51 59 vhcurveto
          108 125 83 -168 rlineto
          8 -17 6 -14 -11 vvcurveto
          -25 -26 -11 -55 -3 vhcurveto
          -8 -36 rlineto
          hintmask 10100000
          2 -7 rlineto
          hintmask 01100000
          0 94 8 54 44 74 -23 callsubr
          11 44 -61 6 -33 25 -28 52 rlinecurve
          -116 218 137 154 62 69 22 24 59 10 rlinecurve
          10 35 -3 -11 callgsubr
          -55 -4 -37 vhcurveto
          -35 -71 8 1 hhcurveto
          -9 -37 rlineto
          -1 1 -2 -1 vvcurveto
          36 -4 17 -7 -16 vvcurveto
          -29 -103 -109 -52 -64 vhcurveto
          -50 102 -34 74 18 vvcurveto
          22 24 11 57 4 vhcurveto
          7 33 rlineto
          hintmask 01010000
          -2 7 rlineto
          0 -53 -9 -77 -42 -95 4 0 vhcurveto
          -9 -36 rlineto
          -4 vlineto
          59 -8 38 -27 25 -48 103 -201 rcurveline
          endchar
        </CharString>
        <CharString name="Y">
          126 0 41 -32 -21 656 -20 21 -20 hstemhm
          hintmask 01010000
          195 567 rmoveto
          24 12 8 66 6 vhcurveto
          8 33 -2 7 rlineto
          0 -82 -9 -55 -44 -59 4 -29 callsubr
          -36 2 -4 76 -7 2 -26 29 -84 rlinecurve
          63 -182 18 -49 0 -26 -4 -40 rlinecurve
          -5 -45 -8 -75 -10 -20 -70 -15 -39 callsubr
          hintmask 10100000
          0 61 12 48 41 78 -44 callsubr
          -28 -3 -19 -35 -5 17 52 7 vhcurveto
          16 113 1 34 27 37 117 175 rcurveline
          65 97 9 21 68 12 11 35 rcurveline
          -3 -11 callgsubr
          -52 -4 -37 vhcurveto
          -35 -70 8 1 hhcurveto
          -11 -37 -11 callsubr
          39 -3 18 -9 -16 vvcurveto
          -13 -8 -20 -13 -20 vhcurveto
          -139 -218 rlineto
          -4 hlineto
          -2 -77 229 36 vvcurveto
          endchar
        </CharString>
        <CharString name="Yacute">
          -8 callsubr
          217 -20 -101 callsubr
          307 220 -96 callgsubr
        </CharString>
        <CharString name="Ycircumflex">
          -8 callsubr
          222 -20 -101 callsubr
          16 146 -82 callgsubr
        </CharString>
        <CharString name="Ydieresis">
          -8 callsubr
          101 93 -101 callsubr
          219 158 -93 callsubr
        </CharString>
        <CharString name="Ygrave">
          -8 callsubr
          217 -20 -101 callsubr
          4 210 rmoveto
          0 101 -34 105 -40 vhcurveto
          8 5 6 24 rlineto
          -94 49 -105 60 -13 callgsubr
          -6 -16 -48 rlineto
          endchar
        </CharString>
        <CharString name="Z">
          158 18 -21 596 40 15 -12 callsubr
          447 13 rmoveto
          16 95 33 107 0 vvcurveto
          -43 -5 -36 -115 -46 -51 -66 -1 rlinecurve
          -199 -7 49 67 179 245 214 254 rlinecurve
          -7 28 -244 7 rlineto
          hintmask 10100000
          -167 11 -11 -9 rlineto
          -13 -91 -28 -101 0 vvcurveto
          44 4 23 102 36 35 88 2 rlinecurve
          170 6 -429 -568 8 -31 69 6 344 -6 rlineto
          endchar
        </CharString>
        <CharString name="Zacute">
          40 callgsubr
          208 -20 -79 callsubr
          78 790 -96 callgsubr
        </CharString>
        <CharString name="Zcaron">
          40 callgsubr
          205 -20 -79 callsubr
          55 840 -85 callsubr
        </CharString>
        <CharString name="Zdotaccent">
          40 callgsubr
          86 110 -79 callsubr
          -90 722 -65 callsubr
        </CharString>
        <CharString name="a">
          -37 callsubr
          10 -20 hstemhm
          32 70 hintmask 10110000
          331 64 rmoveto
          -75 callsubr
          rlineto
          hintmask 11010000
          -100 16 rlineto
          -112 -117 -172 -164 -86 29 -50 51 hvcurveto
          64 45 58 74 65 120 6 -2 rcurveline
          0 -43 -184 -24 vvcurveto
          -19 12 -10 24 21 38 29 77 81 vhcurveto
          -13 24 -12 1 rlineto
          -52 -60 -9 -7 -10 -21 callsubr
          27 41 -13 -20 33 hvcurveto
          -167 -73 -90 -137 -37 hhcurveto
          endchar
        </CharString>
        <CharString name="a.sups">
          -69 callgsubr
        </CharString>
        <CharString name="aacute">
          -37 callsubr
          255 -20 hstem
          32 70 vstem
          -106 callsubr
          271 603 -98 callsubr
          endchar
        </CharString>
        <CharString name="abreve">
          -37 callsubr
          98 58 66 -20 hstem
          32 70 vstem
          -106 callsubr
          150 547 -95 callgsubr
          endchar
        </CharString>
        <CharString name="acircumflex">
          -37 callsubr
          243 -20 hstem
          32 70 vstem
          -106 callsubr
          11 459 -99 callgsubr
        </CharString>
        <CharString name="acute">
          542 -21 194 -20 hstem
          366 672 -98 callsubr
          endchar
        </CharString>
        <CharString name="acute.cap">
          724 -21 138 -20 hstem
          406 787 -96 callgsubr
        </CharString>
        <CharString name="adieresis">
          -37 callsubr
          106 93 hstem
          32 70 vstem
          -106 callsubr
          226 497 -92 callsubr
          endchar
        </CharString>
        <CharString name="ae">
          201 -12 60 -60 81 337 58 -4 -20 hstemhm
          32 70 hintmask 10101000
          18 callsubr
          hintmask 10011000
          -53 callsubr
          hintmask 01101000
          -50 callgsubr
          endchar
        </CharString>
        <CharString name="aeacute">
          201 -12 60 -60 81 337 58 -4 -20 275 -20 hstemhm
          32 70 hintmask 10101100
          18 callsubr
          hintmask 10011100
          -53 callsubr
          hintmask 01101100
          -50 callgsubr
          51 266 -98 callsubr
          endchar
        </CharString>
        <CharString name="agrave">
          -37 callsubr
          254 -20 hstem
          32 70 vstem
          -106 callsubr
          25 591 -78 callgsubr
          endchar
        </CharString>
        <CharString name="amacron">
          -37 callsubr
          135 42 callgsubr
          32 70 hintmask 11011000
          -106 callsubr
          290 584 rmoveto
          hintmask 11101000
          -61 callsubr
        </CharString>
        <CharString name="ampersand">
          181 -12 58 268 51 229 55 hstemhm
          47 77 -21 71 hintmask 11101000
          174 479 rmoveto
          72 52 43 85 61 32 -26 -44 -17 -9 -36 0 vhcurveto
          46 4 8 45 17 62 15 39 rlinecurve
          -2 4 rlineto
          14 -46 -62 10 -45 hhcurveto
          -121 -102 -82 -105 -64 38 -53 68 -26 hvcurveto
          hintmask 11110000
          -98 -30 -64 -70 -82 vvcurveto
          -86 83 -63 105 144 123 109 129 30 -10 31 -15 19 vhcurveto
          5 8 rlineto
          98 hlineto
          39 16 9 32 16 hvcurveto
          28 56 -18 10 -28 -30 -27 -15 -37 -2 rlinecurve
          -261 -17 rlineto
          hintmask 11101000
          -80 -54 51 71 hvcurveto
          269 -266 rmoveto
          -98 -81 -69 -105 vhcurveto
          hintmask 11110000
          -78 -55 52 69 61 33 38 102 48 hvcurveto
          116 hlineto
          40 28 -44 -57 hvcurveto
          endchar
        </CharString>
        <CharString name="aogonek">
          75 -241 59 191 -21 418 54 10 -20 hstemhm
          32 70 hintmask 11011000
          375 -159 -50 callsubr
          58 52 48 140 118 vhcurveto
          -16 28 -12 1 rlineto
          -52 -60 -9 -7 -10 hhcurveto
          -3 4 rlineto
          -75 callsubr
          rlineto
          hintmask 11101000
          -100 16 rlineto
          -112 -117 -172 -164 -86 29 -50 51 hvcurveto
          64 45 58 74 65 120 6 -2 rcurveline
          0 -43 -184 -24 vvcurveto
          -15 7 -9 14 -3 -31 callsubr
          -254 247 rmoveto
          -16 -13 46 58 119 63 114 65 27 41 -13 -20 33 hvcurveto
          -167 -73 -90 -137 -37 hhcurveto
          endchar
        </CharString>
        <CharString name="approxequal">
          100 134 64 -55 -21 55 64 55 64 -21 64 12 -20 hstemhm
          hintmask 10001000
          78 284 rmoveto
          0 45 55 23 vhcurveto
          hintmask 10010100
          43 127 -43 50 hhcurveto
          16 4 85 89 1 5 -20 -46 callgsubr
          -23 vhcurveto
          hintmask 01101000
          -43 -126 43 -51 6 callgsubr
          -14 -162 rmoveto
          0 45 55 23 vhcurveto
          hintmask 10010100
          43 127 -43 50 hhcurveto
          16 4 85 89 1 5 -20 -46 callgsubr
          -22 vhcurveto
          hintmask 01110100
          -44 -126 43 -51 6 callgsubr
          endchar
        </CharString>
        <CharString name="aring">
          -37 callsubr
          -54 176 -38 164 hstemhm
          32 70 hintmask 11011000
          -106 callsubr
          hintmask 10101000
          125 513 rmoveto
          -18 -25 12 30 27 17 18 30 29 15 -17 -25 -40 -31 -5 -17 hvcurveto
          hintmask 11011000
          -11 -38 rmoveto
          57 37 48 50 34 -18 32 -48 -54 -39 -41 -55 -40 22 -28 43 hvcurveto
          endchar
        </CharString>
        <CharString name="aringacute">
          -37 callsubr
          21 148 -35 -20 177 -20 hstemhm
          32 70 hintmask 11011100
          -106 callsubr
          153 447 12 callsubr
          hintmask 11101100
          3 callsubr
          127 221 -13 callsubr
        </CharString>
        <CharString name="asciicircum">
          99 78 -21 424 -20 hstem
          292 481 rmoveto
          -48 -2 -107 -203 rlineto
          -49 -91 -53 -110 0 vvcurveto
          3 -9 49 -7 rlineto
          0 51 112 43 82 vhcurveto
          76 154 rlineto
          6 hlineto
          46 -168 rlineto
          24 -82 29 -99 0 vvcurveto
          11 -1 43 30 rlineto
          0 -34 106 -24 82 vhcurveto
          -22 73 -34 125 -32 callsubr
        </CharString>
        <CharString name="asciitilde">
          100 214 64 -55 -21 55 64 12 46 callgsubr
          66 202 rmoveto
          0 45 55 23 vhcurveto
          hintmask 10010000
          44 128 -43 52 hhcurveto
          16 4 85 89 rlineto
          5 vlineto
          -19 -46 callgsubr
          -23 vhcurveto
          hintmask 01100000
          -44 -128 43 -52 6 callgsubr
          endchar
        </CharString>
        <CharString name="asterisk">
          49 438 -21 320 -20 hstem
          124 666 rmoveto
          -9 -4 rlineto
          -9 -30 0 -38 0 vvcurveto
          0 55 -12 51 -17 vhcurveto
          6 5 6 33 rlineto
          -45 34 -55 29 0 vvcurveto
          5 -193 rmoveto
          1 -9 rlineto
          26 -18 36 -12 0 vvcurveto
          0 28 49 32 43 vhcurveto
          -3 7 -29 16 rlineto
          -47 -32 -44 -44 0 vvcurveto
          185 -55 rmoveto
          9 -1 rlineto
          25 19 22 30 0 vvcurveto
          0 -37 42 -31 44 vhcurveto
          -8 -1 -24 -23 rlineto
          16 -54 28 -56 0 vvcurveto
          109 159 rmoveto
          4 9 rlineto
          -10 29 -22 31 0 vvcurveto
          0 -51 -23 -52 -16 vhcurveto
          -1 -8 14 -29 rlineto
          56 -2 62 9 0 vvcurveto
          -117 153 rmoveto
          -7 7 rlineto
          -31 -36 -12 0 hvcurveto
          0 5 -56 -54 vvcurveto
          6 -4 34 5 rlineto
          18 53 11 61 -32 callsubr
        </CharString>
        <CharString name="at">
          415 -209 43 154 66 352 54 97 56 hstem
          24 71 107 70 vstem
          468 -12 rmoveto
          212 110 154 162 173 -138 136 -201 -261 -166 -207 -218 -208 137 -177 261 -12 hvcurveto
          26 36 rlineto
          7 vlineto
          -247 14 -106 165 193 vvcurveto
          188 128 163 203 177 118 -101 -176 -134 -71 -92 -146 vhcurveto
          -4 4 rlineto
          26 186 58 199 0 vvcurveto
          -8 12 -31 15 -5 -1 -9 -25 -100 16 rlineto
          -107 -122 -166 -170 -80 26 -56 54 hvcurveto
          61 43 60 71 66 125 6 -2 rcurveline
          0 -43 -189 -19 vvcurveto
          -19 12 -10 24 vhcurveto
          -167 81 rmoveto
          -17 -12 49 55 123 65 110 63 41 47 -25 -8 13 hvcurveto
          -178 -77 -88 -126 -35 hhcurveto
          endchar
        </CharString>
        <CharString name="atilde">
          -37 callsubr
          113 -17 callsubr
          32 70 hintmask 11011100
          -106 callsubr
          19 482 -23 callgsubr
          hintmask 11101100
          -76 callsubr
          hintmask 11011100
          -41 callsubr
        </CharString>
        <CharString name="b">
          67 -8 54 335 83 269 -20 hstem
          57 35 rmoveto
          10 -19 rlineto
          0 58 -24 70 33 callsubr
          vhcurveto
          -60 -49 -49 -75 -65 -140 -3 2 -74 callsubr
          -41 -92 -574 0 hvcurveto
          248 346 rmoveto
          24 22 -58 -64 1 callgsubr
        </CharString>
        <CharString name="b.sups">
          -66 345 46 104 -20 170 -20 189 -20 hstem
          43 380 rmoveto
          8 -13 rlineto
          0 40 -22 55 79 73 95 104 61 -30 40 -45 vhcurveto
          -35 -28 -29 -42 -40 -80 rrcurveto
          -3 hlineto
          23 146 38 164 10 callsubr
          -24 -57 -350 0 hvcurveto
          168 203 rmoveto
          13 11 -32 -36 -65 -31 -59 -34 -17 -30 10 5 -15 hvcurveto
          104 43 42 73 18 hhcurveto
          endchar
        </CharString>
        <CharString name="backslash">
          -70 -89 -21 785 -20 hstem
          89 665 rmoveto
          0 40 -288 21 -162 vhcurveto
          21 -165 20 -160 0 vvcurveto
          49 hlineto
          7 8 rlineto
          0 -29 176 -19 152 vhcurveto
          -55 449 rlineto
          -46 hlineto
          endchar
        </CharString>
        <CharString name="bar">
          -31 -248 -21 1076 -20 hstem
          277 807 rmoveto
          -61 -11 -64 -520 rlineto
          -23 -179 -44 -360 0 vvcurveto
          8 -6 59 11 rlineto
          0 46 377 21 172 vhcurveto
          20 166 48 344 -32 callsubr
        </CharString>
        <CharString name="braceleft">
          -89 -112 -21 782 -20 hstem
          130 83 vstem
          47 247 rmoveto
          47 -11 36 -24 -44 -47 -63 -85 -66 vvcurveto
          -56 37 -47 69 30 25 8 0 vhcurveto
          11 28 -3 -11 callgsubr
          -29 -6 -19 -37 -15 26 31 vhcurveto
          50 51 99 60 vvcurveto
          51 -27 26 -32 13 vhcurveto
          1 6 rlineto
          38 12 46 32 79 39 -7 60 37 vvcurveto
          48 20 41 48 17 27 -5 0 vhcurveto
          11 30 -2 5 rlineto
          0 -30 6 -25 -87 -51 -62 -70 vhcurveto
          -50 19 -65 -41 vvcurveto
          -50 -49 -29 -50 -14 vhcurveto
          endchar
        </CharString>
        <CharString name="braceright">
          -89 -112 -21 782 -20 hstem
          94 83 vstem
          259 269 rmoveto
          -46 11 -36 24 44 47 63 85 66 vvcurveto
          56 -37 47 -69 -30 -25 -8 -29 callsubr
          -28 2 -6 rlineto
          0 29 6 20 37 14 -26 -31 vhcurveto
          -50 -50 -99 -60 vvcurveto
          -51 27 -26 31 -13 vhcurveto
          -6 vlineto
          -38 -12 -46 -32 -79 -39 6 -60 -37 vvcurveto
          -48 -20 -41 -48 -16 -27 5 -29 callsubr
          -30 2 -5 rlineto
          0 30 -6 25 86 52 62 70 vhcurveto
          50 -19 65 41 vvcurveto
          50 49 29 50 14 vhcurveto
          endchar
        </CharString>
        <CharString name="bracketleft">
          -89 -116 -21 777 -20 hstem
          224 -137 rmoveto
          10 30 -3 7 -108 24 80 655 112 24 10 31 -4 6 -179 -11 rlineto
          0 -24 -279 -12 -100 vhcurveto
          -13 -100 -44 -276 -32 callsubr
        </CharString>
        <CharString name="bracketright">
          -89 -116 -21 777 -20 hstem
          81 640 rmoveto
          -10 -30 3 -7 108 -24 -80 -655 -112 -24 -10 -31 3 -6 180 11 rlineto
          0 24 279 12 100 vhcurveto
          13 100 44 276 -32 callsubr
        </CharString>
        <CharString name="breve">
          558 58 66 -20 hstem
          240 616 -95 callgsubr
          endchar
        </CharString>
        <CharString name="breve.cap">
          710 58 50 -20 hstem
          258 768 -68 callsubr
        </CharString>
        <CharString name="brokenbar">
          -31 -248 -21 1076 -20 hstem
          137 166 rmoveto
          -53 -429 8 -6 60 11 rlineto
          0 28 239 24 194 vhcurveto
          -3 3 rlineto
          28 198 rmoveto
          23 176 35 249 0 vvcurveto
          -10 6 -61 -11 -17 -142 -18 -142 -18 -142 rlinecurve
          4 -3 rlineto
          endchar
        </CharString>
        <CharString name="bullet">
          -60 117 221 hstem
          149 117 rmoveto
          70 53 57 67 52 -34 45 -59 -69 -53 -58 -67 -52 32 -44 60 hvcurveto
          endchar
        </CharString>
        <CharString name="c">
          15 callsubr
          -93 callgsubr
          endchar
        </CharString>
        <CharString name="c.sups">
          -140 343 52 204 48 hstem
          164 599 rmoveto
          17 15 -9 -20 13 hvcurveto
          13 2 25 53 -3 8 rlineto
          8 -14 -22 6 -23 hhcurveto
          -79 -74 -95 -102 -66 31 -41 51 41 47 35 47 23 hvcurveto
          -16 21 -10 1 rlineto
          -31 -15 -26 -21 -23 hhcurveto
          -25 -16 29 47 66 34 62 36 hvcurveto
          endchar
        </CharString>
        <CharString name="cacute">
          15 callsubr
          251 -20 -93 callgsubr
          163 267 -98 callsubr
          endchar
        </CharString>
        <CharString name="caron">
          547 -21 184 -20 hstem
          102 686 -86 callsubr
        </CharString>
        <CharString name="caron.alt">
          496 -21 234 -20 hstem
          285 709 -59 callgsubr
        </CharString>
        <CharString name="caron.cap">
          725 -21 134 -20 hstem
          393 837 -85 callsubr
        </CharString>
        <CharString name="ccaron">
          15 callsubr
          246 -20 -93 callgsubr
          -101 281 -86 callsubr
        </CharString>
        <CharString name="ccedilla">
          -42 -27 callgsubr
          566 59 hstemhm
          34 70 hintmask 01111000
          106 -77 callgsubr
          hintmask 10111000
          -60 callsubr
          19 42 49 13 51 45 32 59 rlinecurve
          -15 24 -14 1 rlineto
          -51 -24 -45 -36 -40 hhcurveto
          -42 -27 53 83 112 62 110 63 27 25 -14 -29 21 hvcurveto
          14 3 34 67 -5 11 rlineto
          13 -19 -32 8 -34 hhcurveto
          -114 -112 -154 -157 -96 38 -60 64 -8 hvcurveto
          endchar
        </CharString>
        <CharString name="ccircumflex">
          15 callsubr
          238 -20 -93 callgsubr
          -99 122 -99 callgsubr
        </CharString>
        <CharString name="cdotaccent">
          15 callsubr
          138 110 -93 callgsubr
          19 197 -58 callgsubr
        </CharString>
        <CharString name="cedilla">
          -3 -27 callgsubr
          184 -20 hstemhm
          hintmask 01110000
          107 -77 callgsubr
          hintmask 10110000
          -60 callsubr
          33 73 rlineto
          -42 hlineto
          endchar
        </CharString>
        <CharString name="cent">
          -42 -133 -21 812 -20 hstem
          34 70 vstem
          312 649 rmoveto
          -4 9 -28 -4 -41 -192 rlineto
          -107 -17 -98 -145 -147 vvcurveto
          -96 39 -62 65 -6 vhcurveto
          -29 -136 4 -7 27 3 30 141 52 10 55 46 34 63 rlinecurve
          -15 24 -14 1 -22 -47 -40 -34 -37 -6 rlinecurve
          75 352 16 -7 15 -12 13 -18 rlinecurve
          14 3 34 67 -5 11 -17 11 -27 8 -29 2 rlinecurve
          -168 -281 rmoveto
          111 60 108 63 3 vhcurveto
          -76 -353 rlineto
          -29 15 -18 48 68 vvcurveto
          endchar
        </CharString>
        <CharString name="circumflex">
          548 -21 176 -20 hstem
          103 528 -99 callgsubr
        </CharString>
        <CharString name="circumflex.cap">
          733 -21 134 -20 hstem
          125 713 -82 callgsubr
        </CharString>
        <CharString name="colon">
          -158 -12 119 161 119 hstem
          79 -12 rmoveto
          -73 callgsubr
          34 280 rmoveto
          -73 callgsubr
          endchar
        </CharString>
        <CharString name="comma">
          38 callsubr
          -20 hstem
          33 -57 callsubr
          endchar
        </CharString>
        <CharString name="commaaccent">
          -272 41 callsubr
          83 -107 -101 callgsubr
          endchar
        </CharString>
        <CharString name="copyright">
          279 -12 40 -40 167 276 167 -40 40 hstemhm
          hintmask 10010000
          47 261 rmoveto
          -152 107 -121 150 175 157 154 183 152 -108 121 -149 -175 -1 callgsubr
          -183 vhcurveto
          41 4 rmoveto
          159 136 134 150 128 93 -105 -132 -159 -136 -134 -150 -128 -93 105 132 vhcurveto
          254 -140 rmoveto
          63 42 21 0 hvcurveto
          4 5 rlineto
          8 37 16 49 0 vvcurveto
          -30 -2 rlineto
          hintmask 01100000
          -55 -19 -30 -25 -45 hhcurveto
          -60 -35 47 74 95 50 60 75 45 21 -14 -27 -10 -4 -22 0 hvcurveto
          30 3 rlineto
          9 48 15 40 2 callgsubr
          -49 callgsubr
          -53 12 -43 -116 -83 -85 -117 -85 56 -53 86 vhcurveto
          endchar
        </CharString>
        <CharString name="currency">
          40 194 -21 40 48 197 48 51 -20 hstem
          86 343 rmoveto
          -23 5 -25 9 -18 vhcurveto
          -32 -35 -34 -30 -1 hhcurveto
          19 -39 10 -3 rlineto
          0 35 31 38 36 vhcurveto
          -17 21 26 -10 31 hhcurveto
          30 30 10 17 25 hvcurveto
          55 -66 44 30 4 11 rlineto
          0 -29 32 -31 34 vhcurveto
          19 27 14 31 36 vvcurveto
          25 -6 26 -11 19 vhcurveto
          76 69 -23 40 -12 3 -75 -75 rlineto
          15 -20 -26 9 -28 hhcurveto
          -29 -28 -9 -15 -23 hvcurveto
          -29 35 -27 34 0 vvcurveto
          -43 -26 -3 -12 rlineto
          0 29 -33 30 -36 vhcurveto
          -23 -29 -14 -33 -39 vvcurveto
          48 6 rmoveto
          59 50 50 56 48 35 -39 -49 -60 -51 -49 -56 -48 -34 39 49 vhcurveto
          endchar
        </CharString>
        <CharString name="d">
          77 -12 81 337 54 273 -20 hstem
          32 70 vstem
          331 64 rmoveto
          30 228 92 429 -45 callgsubr
          0 -100 -6 -61 vhcurveto
          -6 -67 callsubr
          33 12 -13 -31 -4 hvcurveto
          -26 -197 -81 callsubr
          endchar
        </CharString>
        <CharString name="d.sups">
          -61 343 64 193 43 171 -20 hstem
          244 407 rmoveto
          20 136 55 262 -56 callsubr
          20 7 -8 -20 -2 hvcurveto
          -16 -116 -45 9 rlineto
          -74 -77 -108 -102 -57 24 -33 40 hvcurveto
          37 26 33 42 39 71 5 -1 rcurveline
          -3 -15 -21 -89 -12 vvcurveto
          -14 9 -8 17 19 25 19 57 57 vhcurveto
          -9 19 -10 1 rlineto
          -33 -39 -2 -1 -5 hhcurveto
          -136 2 rmoveto
          -9 -7 26 33 67 33 67 34 18 26 -10 -9 15 hvcurveto
          -95 -39 -50 -79 -21 hhcurveto
          endchar
        </CharString>
        <CharString name="dagger">
          68 -72 -21 691 -20 hstem
          218 308 rmoveto
          -63 -393 10 -8 61 9 43 395 rlineto
          12 93 rmoveto
          37 186 -10 8 -60 -9 -18 -188 rlineto
          59 -68 rmoveto
          158 -5 16 62 -6 9 -159 -13 rlineto
          -84 hmoveto
          -156 5 -16 -62 6 -11 157 15 rlineto
          endchar
        </CharString>
        <CharString name="daggerdbl">
          68 -72 -21 691 -20 hstem
          191 90 rmoveto
          -36 -175 10 -8 61 9 17 177 rlineto
          20 23 rmoveto
          157 -5 17 32 callsubr
          -17 -62 7 -11 156 15 rlineto
          43 219 rmoveto
          -18 -150 53 4 19 150 rlineto
          9 92 rmoveto
          34 159 -10 8 -60 -9 -15 -161 rlineto
          60 -67 rmoveto
          158 -5 16 32 callsubr
          -16 -62 6 -11 156 15 rlineto
          endchar
        </CharString>
        <CharString name="dcaron">
          133 -12 81 337 54 273 -20 hstem
          32 70 vstem
          331 64 rmoveto
          30 228 92 429 -45 callgsubr
          0 -100 -6 -61 vhcurveto
          -6 -67 callsubr
          33 12 -13 -31 -4 hvcurveto
          -26 -197 -81 callsubr
          464 640 -59 callgsubr
        </CharString>
        <CharString name="dcroat">
          77 -12 81 337 54 78 46 -46 189 6 -20 hstemhm
          32 70 hintmask 11010100
          331 64 rmoveto
          17 131 38 198 29 145 107 1 rcurveline
          4 37 -13 13 -89 -4 rlineto
          17 80 12 56 0 vvcurveto
          hintmask 11101100
          -9 12 rlineto
          hintmask 11010100
          0 -100 -6 -61 vhcurveto
          -6 -67 callsubr
          33 12 -13 -31 -4 hvcurveto
          hintmask 11101100
          -8 -61 -113 1 -7 -39 9 -9 rlineto
          105 hlineto
          -12 -89 -81 callsubr
          endchar
        </CharString>
        <CharString name="degree">
          -96 397 42 168 42 hstem
          60 510 rmoveto
          -63 45 -50 62 72 65 63 76 63 -44 50 -62 -73 -65 -63 -76 vhcurveto
          42 4 rmoveto
          50 39 43 47 41 34 -34 -41 -50 -40 -43 -47 -41 -33 34 41 vhcurveto
          endchar
        </CharString>
        <CharString name="dieresis">
          566 93 hstem
          309 566 -92 callsubr
          endchar
        </CharString>
        <CharString name="dieresis.cap">
          725 93 hstem
          328 725 -93 callsubr
        </CharString>
        <CharString name="divide">
          100 29 119 87 56 87 119 hstem
          cntrmask 11100000
          472 297 rmoveto
          0 -129 -6 -77 -21 callgsubr
          87 vhcurveto
          218 1 14 51 rlineto
          -265 -258 rmoveto
          41 28 32 37 28 -16 22 -33 -40 -28 -32 -37 -26 15 -24 33 hvcurveto
          43 349 rmoveto
          41 28 32 37 28 -16 22 -33 -40 -28 -32 -37 -26 14 -24 34 hvcurveto
          endchar
        </CharString>
        <CharString name="dollar">
          42 -133 -21 146 42 425 47 152 -20 hstem
          327 649 rmoveto
          -4 9 -28 -4 -32 -148 rlineto
          -103 -7 -75 -67 -84 vvcurveto
          -64 60 -33 57 -32 vhcurveto
          -39 -185 -63 5 -10 28 13 98 rlinecurve
          -41 -4 rlineto
          -10 -74 -18 -61 0 vvcurveto
          3 -9 rlineto
          0 48 -23 68 -3 vhcurveto
          -29 -138 4 -7 27 3 30 143 rlineto
          116 6 79 66 90 vvcurveto
          66 -70 34 -61 34 vhcurveto
          37 170 rlineto
          43 -3 17 -16 -36 vvcurveto
          -21 -8 -32 0 vhcurveto
          5 -4 36 3 rlineto
          14 72 20 61 9 callgsubr
          0 -50 17 -65 3 vhcurveto
          5 -386 rmoveto
          -50 -44 -34 -63 -3 vhcurveto
          37 169 rlineto
          39 -23 31 -24 -35 vvcurveto
          -143 261 rmoveto
          41 41 32 54 4 vhcurveto
          -33 -155 -2 2 rlineto
          -34 22 -26 22 32 vvcurveto
          endchar
        </CharString>
        <CharString name="dotaccent">
          602 110 hstem
          233 602 -58 callgsubr
        </CharString>
        <CharString name="dotaccent.cap">
          719 110 hstem
          248 719 -65 callsubr
        </CharString>
        <CharString name="dotbelowcomb">
          -8 -192 119 hstem
          135 -192 -31 callgsubr
          endchar
        </CharString>
        <CharString name="dotlessi">
          -122 9 -21 464 -20 hstem
          130 64 rmoveto
          -77 callsubr
          -7 -67 callsubr
          30 12 -12 -30 -35 -51 -308 0 hvcurveto
          -23 8 -12 22 23 48 37 69 69 vhcurveto
          -13 24 -12 1 rlineto
          -50 -57 -12 -9 -10 hhcurveto
          endchar
        </CharString>
        <CharString name="dotlessj">
          -141 -220 -21 693 -20 hstem
          124 21 -80 callsubr
          endchar
        </CharString>
        <CharString name="e">
          -30 callsubr
          hstem
          -104 callsubr
          endchar
        </CharString>
        <CharString name="e.sups">
          -126 343 52 204 48 hstem
          247 591 rmoveto
          35 -23 21 -38 -78 -76 -96 -100 -66 32 -42 51 42 48 35 46 24 vhcurveto
          -16 21 -11 1 rlineto
          -32 -17 -25 -19 -25 hhcurveto
          -27 -17 29 44 2 hvcurveto
          110 35 44 34 54 vvcurveto
          -82 8 rmoveto
          15 8 -9 -16 -30 -28 -22 -65 -21 hvcurveto
          56 9 30 42 31 hhcurveto
          endchar
        </CharString>
        <CharString name="eacute">
          -30 callsubr
          251 -20 hstem
          -104 callsubr
          134 266 -98 callsubr
          endchar
        </CharString>
        <CharString name="ebreve">
          -30 callsubr
          94 58 66 -20 hstem
          -104 callsubr
          28 210 -95 callgsubr
          endchar
        </CharString>
        <CharString name="ecaron">
          -30 callsubr
          246 -20 hstem
          -104 callsubr
          -113 280 -86 callsubr
        </CharString>
        <CharString name="ecircumflex">
          -30 callsubr
          239 -20 hstem
          -104 callsubr
          -113 122 -99 callgsubr
        </CharString>
        <CharString name="edieresis">
          -30 callsubr
          102 93 hstem
          -104 callsubr
          92 160 -92 callsubr
          endchar
        </CharString>
        <CharString name="edotaccent">
          -30 callsubr
          138 110 hstem
          -104 callsubr
          17 196 -58 callgsubr
        </CharString>
        <CharString name="egrave">
          -30 callsubr
          250 -20 hstem
          -104 callsubr
          -99 254 -78 callgsubr
          endchar
        </CharString>
        <CharString name="eight">
          0 callsubr
          68 -43 81 120 100 16 callsubr
          -66 39 -70 -109 -86 -58 callsubr
        </CharString>
        <CharString name="eight.dnom">
          -71 13 34 callsubr
          72 -94 callsubr
        </CharString>
        <CharString name="eight.lf">
          0 callsubr
          73 -43 81 120 95 16 callsubr
          -71 39 -70 -109 -81 -58 callsubr
        </CharString>
        <CharString name="eight.numr">
          -71 280 34 callsubr
          339 -94 callsubr
        </CharString>
        <CharString name="eight.sinf">
          -71 -107 34 callsubr
          -48 -94 callsubr
        </CharString>
        <CharString name="eight.sups">
          -71 364 34 callsubr
          423 -94 callsubr
        </CharString>
        <CharString name="eight.tf">
          64 -12 43 521 46 hstemhm
          36 74 215 73 -59 77 hintmask 11110000
          36 110 rmoveto
          -79 71 -43 80 118 93 89 104 67 -45 40 -49 31 vhcurveto
          hintmask 11101000
          45 24 67 50 86 vvcurveto
          80 -70 39 -68 -108 -79 -88 -90 -64 39 -38 47 -29 vhcurveto
          -48 -23 -93 -54 -102 vvcurveto
          173 -79 rmoveto
          -60 -39 50 55 82 65 38 35 15 hvcurveto
          hintmask 11110000
          57 -33 58 -30 -61 vvcurveto
          -66 -57 -50 -59 vhcurveto
          -45 425 rmoveto
          49 40 47 57 vhcurveto
          hintmask 11101000
          45 33 -32 -60 -70 -39 -35 -30 -18 hvcurveto
          -53 33 -53 30 56 vvcurveto
          endchar
        </CharString>
        <CharString name="eight.tosf">
          54 -12 43 521 46 hstemhm
          34 74 210 73 -58 76 hintmask 11110000
          34 109 rmoveto
          -78 65 -43 78 117 97 89 105 66 -44 40 -48 31 vhcurveto
          hintmask 11101000
          44 24 66 50 87 vvcurveto
          79 -63 39 -68 -106 -84 -88 -91 -63 39 -38 45 -29 vhcurveto
          -47 -23 -91 -54 -103 vvcurveto
          171 -78 rmoveto
          -59 -38 50 55 82 63 38 34 15 hvcurveto
          hintmask 11110000
          56 -33 57 -30 -61 vvcurveto
          -66 -56 -50 -57 vhcurveto
          -44 425 rmoveto
          49 40 47 55 vhcurveto
          hintmask 11101000
          45 32 -32 -59 -71 -38 -35 -30 -18 hvcurveto
          -52 33 -52 30 56 vvcurveto
          endchar
        </CharString>
        <CharString name="ellipsis">
          247 -12 119 hstem
          284 -12 rmoveto
          -73 callgsubr
          203 hmoveto
          -73 callgsubr
          -405 hmoveto
          -73 callgsubr
          endchar
        </CharString>
        <CharString name="emacron">
          -30 callsubr
          131 42 callgsubr
          hintmask 11010000
          -104 callsubr
          166 247 rmoveto
          hintmask 11100000
          -61 callsubr
        </CharString>
        <CharString name="emdash">
          493 226 55 22 callgsubr
          887 287 rmoveto
          hintmask 10000000
          -14 -260 -6 -152 -164 -281 1 -4 hhcurveto
          29 callsubr
          hintmask 10000000
          85 485 2 308 hhcurveto
          14 51 rlineto
          endchar
        </CharString>
        <CharString name="endash">
          53 226 55 22 callgsubr
          448 287 rmoveto
          hintmask 10000000
          -6 -41 -121 0 -44 hhcurveto
          -86 -144 1 0 hvcurveto
          29 callsubr
          hintmask 10000000
          42 243 1 callsubr
        </CharString>
        <CharString name="eng">
          116 -220 -21 253 -21 380 93 hstem
          364 72 vstem
          300 38 rmoveto
          -41 -161 -18 -36 -89 -55 -3 -8 rcurveline
          15 -19 107 49 40 69 41 146 rlinecurve
          22 83 62 193 -99 callsubr
          -69 -48 -156 -16 -67 hvcurveto
          endchar
        </CharString>
        <CharString name="eogonek">
          -27 -241 59 170 60 358 58 hstem
          256 -159 -50 callsubr
          78 99 36 82 129 vhcurveto
          -15 24 -14 1 rlineto
          -52 -27 -43 -34 -40 hhcurveto
          -47 -28 57 85 5 hvcurveto
          171 57 67 55 84 vvcurveto
          -14 callgsubr
          -112 -115 -1 callgsubr
          -102 44 -63 72 5 4 1 1 5 -31 callsubr
          -37 584 5 callgsubr
        </CharString>
        <CharString name="equal">
          100 158 56 -36 -21 158 56 6 -16 callgsubr
          463 220 rmoveto
          0 -130 -6 -77 -85 -144 1 0 vhcurveto
          29 callsubr
          hintmask 10010000
          0 134 1 86 vhcurveto
          218 1 14 51 rlineto
          15 167 rmoveto
          hintmask 10100000
          0 -130 -6 -76 -21 callgsubr
          86 vhcurveto
          219 1 14 51 rlineto
          endchar
        </CharString>
        <CharString name="estimated">
          411 9 -21 663 -20 hstem
          180 311 rmoveto
          597 8 hlineto
          184 -165 148 -203 -203 -166 -148 -184 -183 166 -148 203 118 107 51 78 67 vhcurveto
          -54 hlineto
          -67 -57 -85 -42 -95 hhcurveto
          -89 -81 37 60 -56 hvcurveto
          -5 6 -4 7 8 vvcurveto
          181 vlineto
          3 2 1 3 vhcurveto
          463 205 rmoveto
          -182 vlineto
          -3 -2 -2 -3 vhcurveto
          -458 hlineto
          -3 -2 2 3 hvcurveto
          178 vlineto
          9 4 8 6 6 vhcurveto
          59 57 79 37 89 hhcurveto
          87 79 -36 -57 57 hvcurveto
          6 -6 4 -7 -9 vvcurveto
          endchar
        </CharString>
        <CharString name="eth">
          43 callsubr
          36 84 249 85 vstem
          451 692 rmoveto
          -141 -67 -47 45 -57 39 -67 32 rlinecurve
          -10 -4 -20 -33 58 -30 48 -35 38 -40 rlinecurve
          -119 -58 1 -30 8 -3 136 64 33 -42 24 -48 15 -53 rlinecurve
          -2 -2 rlineto
          -1 -37 26 -29 hhcurveto
          -127 -119 -126 -151 -111 66 -77 103 132 117 128 173 114 -41 111 -77 85 hvcurveto
          123 59 -1 29 rlineto
          -89 -411 rmoveto
          -156 -55 -83 -77 -72 -45 67 98 121 56 76 86 59 31 -26 -15 13 vhcurveto
          3 -22 1 -35 -25 vvcurveto
          endchar
        </CharString>
        <CharString name="exclam">
          -112 -12 119 587 -20 hstem
          84 -12 -31 callgsubr
          16 222 rmoveto
          10 -8 29 7 109 474 -8 11 -84 -18 -9 -10 rlineto
          endchar
        </CharString>
        <CharString name="exclamdown">
          -113 -221 -21 587 119 hstem
          191 464 rmoveto
          -42 -28 -32 -37 -28 17 -22 32 41 28 32 37 26 -15 24 -33 hvcurveto
          -16 -222 rmoveto
          -10 8 -29 -7 -109 -474 8 -11 84 18 9 10 rlineto
          endchar
        </CharString>
        <CharString name="f">
          -129 -7 callsubr
          539 42 234 59 hstem
          37 405 rmoveto
          -51 callgsubr
          136 -16 callsubr
          -145 -1 15 120 rlineto
          76 9 31 38 53 hhcurveto
          27 35 -11 -22 37 7 callgsubr
          9 -25 -42 6 -34 25 callsubr
          rlineto
          endchar
        </CharString>
        <CharString name="f.f">
          -129 -7 callsubr
          536 42 207 59 hstem
          37 405 rmoveto
          -89 callsubr
          474 10 6 202 -16 callsubr
          -211 -1 15 93 rlineto
          76 10 34 38 59 hhcurveto
          33 43 -9 -19 45 hvcurveto
          19 3 29 48 -4 11 rlineto
          15 -32 -49 10 -40 43 callgsubr
          -50 -79 -12 -4 -29 rlineto
          endchar
        </CharString>
        <CharString name="f.l">
          -129 -7 callsubr
          539 42 234 59 hstem
          37 405 rmoveto
          -51 callgsubr
          136 -16 callsubr
          -145 -1 15 120 rlineto
          76 10 34 38 59 hhcurveto
          30 40 -13 -25 42 hvcurveto
          19 3 28 63 -4 11 rlineto
          12 -27 -46 8 -38 43 callgsubr
          -80 -79 -12 -4 -29 rlineto
          endchar
        </CharString>
        <CharString name="f.sups">
          -192 199 41 363 215 -47 47 hstemhm
          hintmask 11000000
          32 602 rmoveto
          45 -2 6 -4 -17 -218 -2 -26 0 -29 -4 -33 rlinecurve
          -30 -3 -19 -20 -23 hhcurveto
          -28 -17 19 32 hvcurveto
          -10 hlineto
          -9 -13 -14 -30 -5 -18 rrcurveto
          -18 7 28 -13 30 hhcurveto
          58 48 49 68 8 hvcurveto
          31 284 6 3 rlineto
          85 hlineto
          5 31 -3 2 rlineto
          -89 hlineto
          8 69 rlineto
          hintmask 10100000
          45 6 17 21 33 hhcurveto
          16 21 -7 -15 24 hvcurveto
          13 2 24 51 -3 7 rlineto
          6 -16 -27 3 -23 hhcurveto
          -72 -67 -60 -76 -9 hvcurveto
          -5 -45 -52 -8 -4 -24 rlineto
          endchar
        </CharString>
        <CharString name="f.t">
          -129 -7 callsubr
          537 41 237 59 hstem
          37 405 rmoveto
          -89 callsubr
          474 10 6 rlineto
          217 hlineto
          7 38 -4 3 rlineto
          -225 hlineto
          15 123 rlineto
          76 9 31 38 53 hhcurveto
          27 35 -11 -22 37 7 callgsubr
          9 -25 -42 6 -34 25 callsubr
          rlineto
          endchar
        </CharString>
        <CharString name="fi">
          135 -7 callsubr
          141 -21 420 41 234 59 hstem
          387 64 rmoveto
          -57 callgsubr
          190 -45 callgsubr
          -2 -117 -1 -57 vhcurveto
          -102 hlineto
          11 90 rlineto
          95 12 28 49 77 4 callsubr
          -97 -117 -62 -176 -20 hvcurveto
          -6 -53 -79 -12 -2 callsubr
          7 -5 -30 -372 -2 -46 -2 -44 -6 -51 rlinecurve
          -45 -6 -31 -34 -35 hhcurveto
          -43 -28 33 50 1 hvcurveto
          -14 hlineto
          -11 -19 -17 -42 -6 -23 rrcurveto
          -26 9 39 -20 42 hhcurveto
          118 29 90 150 16 hvcurveto
          44 404 10 6 rlineto
          143 hlineto
          30 12 -12 -30 -35 -51 -308 0 hvcurveto
          -23 8 -12 22 5 5 1 3 7 vhcurveto
          26 12 42 35 55 55 -13 24 rcurveline
          -12 1 rlineto
          -50 -57 -12 -9 -10 hhcurveto
          endchar
        </CharString>
        <CharString name="five">
          27 -105 70 457 69 47 -20 hstem
          260 80 vstem
          340 141 rmoveto
          86 -91 41 -119 25 vhcurveto
          22 129 rlineto
          111 97 -5 callsubr
          -14 -7 -37 -2 rlinecurve
          -183 19 callgsubr
          137 -25 48 -32 -58 vvcurveto
          -85 -87 -59 -106 -26 -25 3 6 -26 vhcurveto
          -6 -6 rlineto
          -59 -5 20 -14 37 hhcurveto
          122 182 119 127 hvcurveto
          endchar
        </CharString>
        <CharString name="five.dnom">
          -106 -8 -37 callgsubr
          140 -88 callgsubr
        </CharString>
        <CharString name="five.lf">
          18 36 callsubr
          269 79 vstem
          348 223 rmoveto
          86 -69 46 -147 11 vhcurveto
          27 149 rlineto
          111 97 -5 callsubr
          -13 -7 -38 -2 rlinecurve
          -183 -8 -9 -8 rlineto
          0 -22 -131 -25 -123 vhcurveto
          7 -11 rlineto
          128 -3 60 -35 -70 vvcurveto
          -82 -77 -59 -100 -25 -25 3 6 -26 vhcurveto
          -7 -6 rlineto
          -53 -3 14 -20 42 hhcurveto
          127 159 123 112 hvcurveto
          endchar
        </CharString>
        <CharString name="five.numr">
          -106 259 -37 callgsubr
          407 -88 callgsubr
        </CharString>
        <CharString name="five.sinf">
          -106 -128 -37 callgsubr
          20 -88 callgsubr
        </CharString>
        <CharString name="five.sups">
          -106 343 -37 callgsubr
          491 -88 callgsubr
        </CharString>
        <CharString name="five.tf">
          64 36 callsubr
          298 79 vstem
          377 222 rmoveto
          87 -74 46 -158 11 vhcurveto
          28 149 rlineto
          119 105 -8 0 hvcurveto
          6 6 40 118 -35 -4 -15 -30 -13 -7 -41 -2 rlinecurve
          -194 -8 -10 -8 rlineto
          0 -22 -131 -26 -123 vhcurveto
          8 -11 rlineto
          138 -3 65 -35 -71 vvcurveto
          -81 -83 -59 -108 -26 -27 3 6 -28 vhcurveto
          -6 -6 rlineto
          -53 -3 15 -20 44 hhcurveto
          134 167 122 112 hvcurveto
          endchar
        </CharString>
        <CharString name="five.tosf">
          54 -105 70 457 69 47 -20 hstem
          277 80 vstem
          357 140 rmoveto
          87 -96 41 -123 25 vhcurveto
          22 129 rlineto
          116 102 -5 callsubr
          -15 -7 -38 -2 rlinecurve
          -191 19 callgsubr
          144 -25 50 -32 -58 vvcurveto
          -85 -91 -59 -111 -27 -26 3 6 -27 vhcurveto
          -6 -6 rlineto
          -59 -5 21 -14 38 hhcurveto
          125 189 119 126 hvcurveto
          endchar
        </CharString>
        <CharString name="fj">
          116 -7 callsubr
          540 41 234 59 hstem
          381 21 rmoveto
          21 158 65 261 0 vvcurveto
          -10 12 rlineto
          0 -22 -2 -30 -1 vhcurveto
          -220 hlineto
          15 120 rlineto
          76 10 38 38 65 4 callsubr
          -117 -97 -89 -122 -17 -53 callgsubr
          rlineto
          141 hlineto
          31 13 -13 -30 -35 -50 -292 0 hvcurveto
          -18 -141 -33 -56 -77 -55 -3 -8 rcurveline
          15 -19 95 49 58 74 19 139 rlinecurve
          endchar
        </CharString>
        <CharString name="fl">
          121 -7 callsubr
          141 -21 419 42 234 59 hstem
          375 64 rmoveto
          34 258 89 399 -45 callgsubr
          0 -29 -2 -35 -2 vhcurveto
          8 -28 -33 5 -27 hhcurveto
          -107 -89 -89 -122 -15 -53 callgsubr
          136 -16 callsubr
          -145 -1 15 120 rlineto
          76 9 31 38 53 hhcurveto
          31 38 -9 -17 42 hvcurveto
          1 -2 0 -3 -3 vvcurveto
          -40 -94 -592 0 vhcurveto
          41 callgsubr
          48 37 69 69 vhcurveto
          -13 24 -12 1 rlineto
          -50 -57 -12 -9 -10 hhcurveto
          endchar
        </CharString>
        <CharString name="florin">
          -17 -159 41 423 53 197 43 hstem
          109 -43 rmoveto
          -54 -5 -24 -6 callgsubr
          76 56 82 8 vhcurveto
          30 328 128 -3 10 53 -3 3 -130 -3 6 69 rlineto
          64 5 1 65 55 hhcurveto
          40 39 -32 -35 16 hvcurveto
          13 hlineto
          9 10 9 44 20 vvcurveto
          21 -52 15 -45 -76 -64 -57 -84 -8 vhcurveto
          -10 -97 -70 -10 -7 -34 4 -6 rlineto
          61 -1 4 -1 -32 vvcurveto
          endchar
        </CharString>
        <CharString name="foundryicon">
          397 -59 152 52 157 42 180 -87 87 hstemhm
          hintmask 11100000
          328 344 rmoveto
          45 33 -31 -42 hvcurveto
          -178 -74 136 vlineto
          38 -14 18 -29 -18 -6 -3 -9 vhcurveto
          -180 -74 vlineto
          hintmask 11010000
          344 74 -116 vlineto
          -6 2 -3 4 3 3 2 2 3 vhcurveto
          hintmask 11100000
          155 4 rmoveto
          89 56 rlineto
          21 -28 hlineto
          -6 4 -4 6 vhcurveto
          58 -36 -58 hlineto
          -7 -3 -4 -6 hvcurveto
          -90 vlineto
          -40 12 -17 29 8 9 1 3 9 vhcurveto
          -25 vlineto
          -63 -37 rlineto
          -45 -33 31 42 hvcurveto
          132 vlineto
          7 -3 3 -7 vhcurveto
          -26 hlineto
          -255 -361 rmoveto
          423 hlineto
          52 28 28 52 hvcurveto
          423 vlineto
          52 -28 28 -52 vhcurveto
          -423 hlineto
          -52 -28 -28 -52 hvcurveto
          -423 vlineto
          -52 28 -28 52 vhcurveto
          endchar
        </CharString>
        <CharString name="four">
          45 26 callsubr
          -12 89 rmoveto
          74 88 -2 -2 74 hvcurveto
          -11 -78 -17 -24 callgsubr
          51 -2 35 -1 0 vvcurveto
          15 55 -5 8 rlineto
          -89 hlineto
          43 352 -32 10 rlineto
          hintmask 11100000
          -1 -2 -1 -1 hhcurveto
          -311 -378 -2 -12 -4 -13 -2 -12 rlinecurve
          262 278 39 callgsubr
          -161 hlineto
          endchar
        </CharString>
        <CharString name="four.dnom">
          -85 14 21 callgsubr
          107 -94 callgsubr
          endchar
        </CharString>
        <CharString name="four.lf">
          43 33 callgsubr
          -3 183 rmoveto
          236 -4 rlineto
          -10 -78 -18 -24 callgsubr
          87 -3 14 55 -5 8 rlineto
          -88 hlineto
          43 352 -33 10 -4 -1 -310 -378 rlineto
          253 241 39 callgsubr
          -161 hlineto
          endchar
        </CharString>
        <CharString name="four.numr">
          -85 281 21 callgsubr
          374 -94 callgsubr
          endchar
        </CharString>
        <CharString name="four.sinf">
          -85 -106 -21 113 46 225 -20 hstem
          10 -13 -94 callgsubr
          endchar
        </CharString>
        <CharString name="four.sups">
          -85 365 21 callgsubr
          458 -94 callgsubr
          endchar
        </CharString>
        <CharString name="four.tf">
          64 33 callgsubr
          1 183 rmoveto
          243 -4 rlineto
          -10 -78 -18 -103 0 vvcurveto
          5 -9 73 12 6 7 rlineto
          0 5 88 9 81 vhcurveto
          90 -3 14 55 -5 8 rlineto
          -91 hlineto
          43 352 -32 10 -5 -1 -318 -378 rlineto
          260 241 rmoveto
          10 hlineto
          -29 -224 rlineto
          -167 hlineto
          endchar
        </CharString>
        <CharString name="four.tosf">
          54 26 callsubr
          -11 89 rmoveto
          75 90 -2 -2 75 hvcurveto
          -11 -78 -17 -24 callgsubr
          52 -2 36 -1 0 vvcurveto
          15 55 -5 8 rlineto
          -91 hlineto
          43 352 -31 10 rlineto
          hintmask 11100000
          -1 -2 -1 -1 hhcurveto
          -316 -378 -2 -12 -4 -13 -2 -12 rlinecurve
          266 278 39 callgsubr
          -165 hlineto
          endchar
        </CharString>
        <CharString name="fraction">
          -261 -74 -21 773 -20 hstem
          277 659 -42 callgsubr
        </CharString>
        <CharString name="franc">
          45 0 42 -42 166 -155 -21 30 -21 130 150 -49 49 177 46 -41 -20 72 -20 hstemhm
          hintmask 1000101000000000
          176 90 rmoveto
          6 39 rlineto
          91 hlineto
          8 30 rlineto
          hintmask 0100011000000000
          -4 7 rlineto
          -91 hlineto
          11 62 81 5 rlineto
          36 41 -4 1 hvcurveto
          20 51 -5 8 rlineto
          0 -67 -10 -21 -22 -34 0 1 -21 vhcurveto
          13 79 5 33 1 57 25 5 rlinecurve
          1 7 11 1 16 hhcurveto
          79 17 -5 -31 -18 -7 -35 0 hvcurveto
          50 3 rlineto
          14 73 21 63 0 vvcurveto
          hintmask 1000100110000000
          -4 7 rlineto
          hintmask 1000101000000000
          -5 -52 -65 -6 -65 hhcurveto
          -48 hlineto
          -49 -68 3 0 hvcurveto
          -11 -37 1 -8 rlineto
          hintmask 0100010110000000
          0 23 1 9 21 3 -7 -30 -3 vhcurveto
          -33 -258 rlineto
          -64 hlineto
          -9 -30 rlineto
          hintmask 0010101000000000
          5 -7 rlineto
          64 hlineto
          -9 -70 -4 -15 -62 -11 -10 -43 rcurveline
          hintmask 1000101000000000
          0 58 10 39 vhcurveto
          hintmask 0001101000000000
          13 16 -1 18 hhcurveto
          34 37 -2 1 hvcurveto
          13 38 -1 8 rlineto
          hintmask 1000101000000000
          1 -36 -3 -18 -23 -5 11 37 4 vhcurveto
          endchar
        </CharString>
        <CharString name="g">
          -4 callgsubr
          10 -12 callsubr
          166 87 rmoveto
          -20 -18 51 58 106 58 104 60 25 36 -11 -20 40 hvcurveto
          -181 -84 -67 -107 -30 hhcurveto
          -13 -79 rmoveto
          48 35 31 40 62 115 8 -2 rcurveline
          -25 -207 rlineto
          -107 -13 -66 -65 -85 hhcurveto
          -53 -61 42 34 20 91 49 63 46 hvcurveto
          186 -8 rmoveto
          5 41 3 131 8 66 6 53 25 66 48 89 -8 9 rcurveline
          hintmask 10100000
          14 callgsubr
          rlineto
          hintmask 11000000
          -82 callsubr
          endchar
        </CharString>
        <CharString name="g.sups">
          -74 199 48 353 43 7 -12 callsubr
          128 415 rmoveto
          -12 -9 28 34 61 31 62 31 18 24 -9 -9 18 hvcurveto
          -100 -44 -40 -67 -17 hhcurveto
          -14 -62 rmoveto
          28 20 19 24 43 75 6 -1 rcurveline
          -15 -125 rlineto
          -62 -8 -38 -37 -52 hhcurveto
          -33 -36 23 20 10 51 28 35 25 hvcurveto
          136 4 rmoveto
          3 30 3 86 4 35 4 32 15 44 25 48 -6 9 rcurveline
          hintmask 10100000
          -37 9 -6 -3 -6 -15 rlineto
          hintmask 11000000
          -60 11 rlineto
          -70 -75 -103 -96 -40 13 -31 24 -12 hvcurveto
          -1 -5 -48 -27 -45 -27 -22 -15 rlinecurve
          -1 -5 rlineto
          -43 -4 52 -40 60 hhcurveto
          73 96 86 72 9 hvcurveto
          endchar
        </CharString>
        <CharString name="gbreve">
          -4 callgsubr
          98 58 66 -20 hstem
          -92 callgsubr
          -40 616 -95 callgsubr
          endchar
        </CharString>
        <CharString name="gcircumflex">
          -4 callgsubr
          242 -20 hstem
          339 hmoveto
          5 41 3 131 8 66 6 53 25 66 48 89 -8 9 rcurveline
          14 callgsubr
          -82 callsubr
          -186 8 rmoveto
          48 35 31 40 62 115 8 -2 rcurveline
          -25 -207 rlineto
          -107 -13 -66 -65 -85 hhcurveto
          -53 -61 42 34 20 91 49 63 46 hvcurveto
          13 79 rmoveto
          -20 -18 51 58 106 58 104 60 25 36 -11 -20 40 hvcurveto
          -181 -84 -67 -107 -30 hhcurveto
          8 440 -99 callgsubr
        </CharString>
        <CharString name="gcommaaccent">
          -4 callgsubr
          0 54 226 -20 hstemhm
          hintmask 11010000
          -92 callgsubr
          19 554 -56 callgsubr
          hintmask 10110000
          -19 callsubr
          endchar
        </CharString>
        <CharString name="gdotaccent">
          -4 callgsubr
          142 110 hstem
          -92 callgsubr
          -59 602 -58 callgsubr
        </CharString>
        <CharString name="germandbls">
          163 -7 callsubr
          120 44 651 59 hstemhm
          277 75 78 73 -46 76 hintmask 11111100
          37 405 rmoveto
          69 -3 7 -5 -28 -340 -8 -91 -4 -59 -3 -37 rlinecurve
          -38 -10 -28 -27 -31 hhcurveto
          -43 -28 33 50 1 hvcurveto
          -14 hlineto
          -11 -19 -17 -42 -6 -23 rrcurveto
          -26 8 40 -20 42 hhcurveto
          86 57 62 105 12 hvcurveto
          72 644 rlineto
          76 10 34 38 59 hhcurveto
          78 49 -33 -52 hvcurveto
          -86 -153 -40 -107 vvcurveto
          hintmask 11111010
          -121 180 -27 -94 vvcurveto
          -45 -42 -46 -41 -57 -29 35 60 8 vhcurveto
          -14 hlineto
          -19 -19 -26 -48 -3 -19 rrcurveto
          -28 -3 54 -25 65 hhcurveto
          97 86 80 92 hvcurveto
          122 -181 29 81 vvcurveto
          hintmask 11111100
          84 151 29 124 vvcurveto
          63 -70 50 -88 -112 -91 -88 -123 -16 vhcurveto
          16 callgsubr
          rlineto
          39 -526 rmoveto
          -1 -2 0 -2 -2 vvcurveto
          2 0 2 1 2 vhcurveto
          -7 -54 rmoveto
          -6 vlineto
          endchar
        </CharString>
        <CharString name="grave">
          542 -21 193 -20 hstem
          115 660 -78 callgsubr
          endchar
        </CharString>
        <CharString name="grave.cap">
          -3 724 -21 138 -20 hstem
          116 777 rmoveto
          0 101 -34 105 -40 vhcurveto
          8 5 6 24 rlineto
          -94 49 -105 60 -13 callgsubr
          -6 -16 -48 rlineto
          endchar
        </CharString>
        <CharString name="greater">
          98 91 -21 394 -20 hstem
          456 295 rmoveto
          0 -114 52 -66 32 vhcurveto
          -74 35 -94 50 0 vvcurveto
          -35 -40 rlineto
          -11 vlineto
          0 89 -43 74 -36 vhcurveto
          151 -70 -1 -6 -153 -60 rlineto
          -83 -34 -112 -39 0 vvcurveto
          2 -50 8 -5 rlineto
          0 110 42 92 39 vhcurveto
          204 86 8 47 rlineto
          endchar
        </CharString>
        <CharString name="greaterequal">
          99 -73 55 -36 -21 hstemhm
          hintmask 10000000
          456 295 rmoveto
          -1 -1 -112 53 -65 32 -38 18 rcurveline
          -66 31 -66 37 -1 vvcurveto
          -34 -40 rlineto
          -1 -4 1 -3 -4 vvcurveto
          0 89 -43 74 -36 vhcurveto
          150 -70 rlineto
          -6 vlineto
          -154 -60 rlineto
          -82 -34 -112 -39 0 vvcurveto
          1 -50 9 -5 rlineto
          0 109 42 92 39 vhcurveto
          205 86 7 47 rlineto
          -29 -296 27 callsubr
          -17 -49 rlineto
          hintmask 01000000
          2 callsubr
          hintmask 10000000
          41 242 1 callsubr
        </CharString>
        <CharString name="guillemotleft">
          25 35 callsubr
          387 400 -47 callgsubr
          -180 15 -47 callgsubr
          endchar
        </CharString>
        <CharString name="guillemotright">
          25 35 callsubr
          228 46 -47 callsubr
          -139 -15 -47 callsubr
          endchar
        </CharString>
        <CharString name="guilsinglleft">
          -135 35 callsubr
          206 400 -47 callgsubr
          endchar
        </CharString>
        <CharString name="guilsinglright">
          -135 35 callsubr
          46 46 -47 callsubr
          endchar
        </CharString>
        <CharString name="h">
          104 -35 callsubr
          269 -72 callgsubr
          endchar
        </CharString>
        <CharString name="h.sups">
          -48 365 -21 232 71 167 -20 hstem
          248 408 rmoveto
          10 45 40 92 39 vvcurveto
          36 -26 27 -36 vhcurveto
          -35 -21 -41 -53 -39 -79 -12 callgsubr
          19 7 -7 -18 -1 hvcurveto
          -2 -33 -58 -366 0 vvcurveto
          -35 callgsubr
          6 49 rlineto
          95 3 callgsubr
          19 29 21 54 53 26 callgsubr
        </CharString>
        <CharString name="hbar">
          104 -35 callsubr
          58 46 -46 205 6 -20 hstemhm
          352 75 hintmask 01101010
          340 64 rmoveto
          18 84 69 150 69 vvcurveto
          53 -36 44 -43 vhcurveto
          -62 -36 -72 -94 -69 -135 -5 3 rcurveline
          16 112 22 115 19 93 96 1 rcurveline
          4 37 -13 13 -77 -4 rlineto
          19 91 15 61 0 vvcurveto
          hintmask 01110110
          -9 12 rlineto
          hintmask 01101010
          0 -100 -6 -61 vhcurveto
          -6 -67 callsubr
          30 12 -12 -27 hvcurveto
          hintmask 01110110
          -8 -4 -30 -6 -44 vhcurveto
          -99 1 -7 -39 9 -9 90 1 rlineto
          -27 -190 -52 -332 0 vvcurveto
          -71 callsubr
          11 84 rlineto
          162 -28 callgsubr
          hintmask 10110110
          -27 callsubr
          22 44 33 73 74 vhcurveto
          -13 24 -12 1 rlineto
          -52 -60 -9 -7 -10 hhcurveto
          endchar
        </CharString>
        <CharString name="hcircumflex">
          104 -35 callsubr
          476 -72 callgsubr
          -283 705 -99 callgsubr
        </CharString>
        <CharString name="hungarumlaut">
          555 -21 171 -20 hstem
          295 664 -68 callgsubr
          130 9 -68 callgsubr
          endchar
        </CharString>
        <CharString name="hungarumlaut.cap">
          706 -21 152 -20 hstem
          328 790 rmoveto
          -22 43 -9 -49 callgsubr
          -81 -64 -72 -53 vhcurveto
          9 -21 8 -5 38 callgsubr
          143 hmoveto
          -22 42 -9 5 rlineto
          0 -81 -64 -72 -54 vhcurveto
          10 -21 7 -4 38 callgsubr
          endchar
        </CharString>
        <CharString name="hyphen">
          -75 231 -21 89 -20 hstem
          279 299 rmoveto
          0 -18 -4 -46 -5 vhcurveto
          -168 -20 -13 -52 6 -8 234 26 11 54 rlineto
          endchar
        </CharString>
        <CharString name="i">
          -122 9 -21 604 110 hstem
          178 592 -49 callsubr
          -48 -528 rmoveto
          -77 callsubr
          -7 -67 callsubr
          30 12 -12 -30 -35 -51 -308 0 hvcurveto
          -23 8 -12 22 23 48 37 69 69 vhcurveto
          -13 24 -12 1 rlineto
          -50 -57 -12 -9 -10 hhcurveto
          endchar
        </CharString>
        <CharString name="i.sups">
          -192 364 -21 373 84 hstem
          111 407 rmoveto
          15 111 33 112 -25 callsubr
          8 -7 -18 hvcurveto
          -37 vlineto
          -188 -24 -10 18 20 31 23 53 50 vhcurveto
          -10 19 -9 8 callsubr
          15 311 rmoveto
          28 21 22 29 19 -12 14 -21 -29 -20 -22 -28 -19 11 -15 22 hvcurveto
          endchar
        </CharString>
        <CharString name="iacute">
          -104 9 -21 727 -20 hstem
          307 672 -98 callsubr
          -176 -597 rmoveto
          -77 callsubr
          -7 -67 callsubr
          30 12 -12 -30 -35 -51 -308 0 hvcurveto
          -23 8 -12 22 23 48 37 69 69 vhcurveto
          -13 24 -12 1 rlineto
          -50 -57 -12 -9 -10 hhcurveto
          endchar
        </CharString>
        <CharString name="ibreve">
          -104 9 -21 570 58 66 -20 hstem
          179 616 -95 callgsubr
          -49 -552 rmoveto
          -77 callsubr
          -7 -67 callsubr
          30 12 -12 -30 -35 -51 -308 0 hvcurveto
          -23 8 -12 22 23 48 37 69 69 vhcurveto
          -13 24 -12 1 rlineto
          -50 -57 -12 -9 -10 hhcurveto
          endchar
        </CharString>
        <CharString name="icircumflex">
          -104 9 -21 714 -20 hstem
          130 64 rmoveto
          -77 callsubr
          -7 -67 callsubr
          30 12 -12 -30 -35 -51 -308 0 hvcurveto
          -23 8 -12 22 23 48 37 69 69 vhcurveto
          -13 24 -12 1 rlineto
          -50 -57 -12 -9 -10 hhcurveto
          -86 467 -99 callgsubr
        </CharString>
        <CharString name="idieresis">
          -104 9 -21 578 93 hstem
          250 566 -92 callsubr
          40 -502 rmoveto
          -77 callsubr
          -7 -67 callsubr
          30 12 -12 -30 -35 -51 -308 0 hvcurveto
          -23 8 -12 22 23 48 37 69 69 vhcurveto
          -13 24 -12 1 rlineto
          -50 -57 -12 -9 -10 hhcurveto
          endchar
        </CharString>
        <CharString name="idotaccent">
          -122 9 -21 604 110 hstem
          178 592 -49 callsubr
          -48 -528 rmoveto
          -77 callsubr
          -7 -67 callsubr
          30 12 -12 -30 -35 -51 -308 0 hvcurveto
          -23 8 -12 22 23 48 37 69 69 vhcurveto
          -13 24 -12 1 rlineto
          -50 -57 -12 -9 -10 hhcurveto
          endchar
        </CharString>
        <CharString name="igrave">
          -104 9 -21 726 -20 hstem
          50 660 -78 callgsubr
          81 -607 rmoveto
          -77 callsubr
          -7 -67 callsubr
          30 12 -12 -30 -35 -51 -308 0 hvcurveto
          -23 8 -12 22 23 48 37 69 69 vhcurveto
          -13 24 -12 1 rlineto
          -50 -57 -12 -9 -10 hhcurveto
          endchar
        </CharString>
        <CharString name="ij">
          123 -220 -21 250 -21 604 110 hstem
          178 592 -49 callsubr
          -48 -528 rmoveto
          -77 callsubr
          -7 -67 callsubr
          30 12 -12 -30 -35 -51 -308 0 hvcurveto
          -23 8 -12 22 23 48 37 69 69 vhcurveto
          -13 24 -12 1 rlineto
          -50 -57 -12 -9 -10 hhcurveto
          255 -39 -80 callsubr
          51 571 rmoveto
          34 30 30 36 26 -17 18 -25 -35 -29 -30 -36 -26 17 -18 25 hvcurveto
          endchar
        </CharString>
        <CharString name="imacron">
          -104 9 -21 420 239 -52 42 callgsubr
          hintmask 10010000
          307 653 rmoveto
          hintmask 10100000
          0 -70 -6 -43 -51 -82 1 0 vhcurveto
          -14 -45 -26 callgsubr
          73 1 51 vhcurveto
          123 1 11 47 rlineto
          hintmask 10010000
          -180 -579 rmoveto
          -77 callsubr
          hintmask 11000000
          -7 -67 callsubr
          30 12 -12 -30 -35 -51 -308 0 hvcurveto
          -23 8 -12 22 23 48 37 69 69 vhcurveto
          -13 24 -12 1 rlineto
          -50 -57 -12 -9 -10 hhcurveto
          endchar
        </CharString>
        <CharString name="infinity">
          100 117 60 167 56 hstem
          159 400 rmoveto
          -70 -71 -71 -98 -59 33 -55 61 62 36 54 35 20 hvcurveto
          -49 19 30 -40 58 hhcurveto
          70 70 70 99 58 -32 56 -61 -61 -37 -52 -35 -21 hvcurveto
          49 -20 -32 38 -54 hhcurveto
          -29 -223 rmoveto
          -47 -25 32 43 56 38 36 37 48 20 -53 -56 19 hvcurveto
          -25 -15 -28 -33 -47 hhcurveto
          234 163 rmoveto
          48 25 -33 -42 -56 -38 -36 -37 -47 -20 53 58 -20 hvcurveto
          24 16 28 32 45 hhcurveto
          endchar
        </CharString>
        <CharString name="integral">
          0 -158 41 673 43 hstem
          148 -42 rmoveto
          -54 -3 -26 -6 callgsubr
          77 56 86 5 vhcurveto
          31 513 rlineto
          39 2 24 20 28 hhcurveto
          36 35 -32 -35 14 hvcurveto
          13 hlineto
          8 10 10 44 20 vvcurveto
          21 -47 15 -40 -76 -67 -63 -71 -4 vhcurveto
          endchar
        </CharString>
        <CharString name="iogonek">
          -104 -241 59 774 110 hstem
          174 -159 -50 callsubr
          65 62 43 127 120 vhcurveto
          -13 24 -12 1 rlineto
          -50 -57 -12 -9 -10 hhcurveto
          -3 4 rlineto
          -77 callsubr
          -7 -67 callsubr
          30 12 -12 -30 -35 -51 -308 0 hvcurveto
          -17 4 -11 11 -5 -31 callsubr
          -6 770 -49 callsubr
          endchar
        </CharString>
        <CharString name="itilde">
          -104 9 -21 585 -17 callsubr
          hintmask 10110000
          39 551 -65 callgsubr
          98 -487 rmoveto
          -77 callsubr
          -7 -67 callsubr
          30 12 -12 -30 -35 -51 -308 0 hvcurveto
          -23 8 -12 22 23 48 37 69 69 vhcurveto
          -13 24 -12 1 rlineto
          -50 -57 -12 -9 -10 hhcurveto
          endchar
        </CharString>
        <CharString name="j">
          -141 -220 -21 833 110 hstem
          124 21 -80 callsubr
          51 571 rmoveto
          34 30 30 36 26 -17 18 -25 -35 -29 -30 -36 -26 17 -18 25 hvcurveto
          endchar
        </CharString>
        <CharString name="j.sups">
          -202 219 -21 518 84 hstem
          107 363 rmoveto
          17 123 37 144 0 vvcurveto
          -7 9 rlineto
          0 -69 -4 -44 24 callsubr
          19 8 -8 -17 -22 -32 -182 0 hvcurveto
          -11 -85 -19 -34 -48 -35 -2 -6 rcurveline
          14 -16 66 32 42 52 11 81 rlinecurve
          23 353 rmoveto
          27 22 22 29 20 -13 13 -20 -28 -21 -21 -29 -21 12 -13 21 hvcurveto
          endchar
        </CharString>
        <CharString name="jcircumflex">
          -136 -220 -21 944 -20 hstem
          124 21 -80 callsubr
          -95 507 -99 callgsubr
        </CharString>
        <CharString name="k">
          46 -3 -21 36 -21 380 93 269 45 callsubr
          320 -17 rmoveto
          13 -7 61 32 -2 12 rlineto
          0 -59 67 -63 99 vhcurveto
          100 59 54 65 62 vvcurveto
          51 -34 41 -42 vhcurveto
          -62 -36 -72 -94 -69 -135 -5 3 -74 callsubr
          -40 -96 -610 0 hvcurveto
          hintmask 01110000
          -71 callsubr
          11 83 rlineto
          161 68 77 113 42 hhcurveto
          19 14 -15 -22 -49 -43 -44 -93 -47 hvcurveto
          -4 -15 rlineto
          endchar
        </CharString>
        <CharString name="k.sups">
          -82 359 -21 238 71 167 -20 hstem
          215 342 rmoveto
          8 -4 56 18 rlineto
          9 vlineto
          0 -37 49 -35 56 vhcurveto
          60 36 32 41 39 vvcurveto
          35 -26 26 -37 vhcurveto
          -35 -21 -41 -54 -39 -78 -12 callgsubr
          18 7 -7 -17 -24 -60 -376 0 hvcurveto
          -35 callgsubr
          6 48 rlineto
          96 40 45 67 24 hhcurveto
          11 7 -8 -13 -32 -33 -24 -44 -22 hvcurveto
          -3 -10 rlineto
          endchar
        </CharString>
        <CharString name="kcommaaccent">
          46 -272 -21 305 -21 473 -20 289 -20 hstem
          320 -17 rmoveto
          13 -7 61 32 -2 12 rlineto
          0 -59 67 -63 99 vhcurveto
          100 59 54 65 62 vvcurveto
          51 -34 41 -42 vhcurveto
          -62 -36 -72 -94 -69 -135 -5 3 -74 callsubr
          -40 -96 -610 -54 callgsubr
          83 rlineto
          161 68 77 113 42 hhcurveto
          19 14 -15 -22 -49 -43 -44 -93 -47 hvcurveto
          -4 -15 rlineto
          -60 -286 -101 callgsubr
          endchar
        </CharString>
        <CharString name="kgreenlandic">
          107 0 42 -35 -21 466 -20 32 -20 hstemhm
          hintmask 10010000
          14 -6 rmoveto
          0 56 6 41 35 53 -44 callsubr
          -22 -2 -11 -20 -9 12 27 36 44 288 12 46 vhcurveto
          -4 13 rlineto
          0 -74 -11 -59 -6 vhcurveto
          -8 -35 5 -5 rlineto
          42 11 -11 -38 -4 hvcurveto
          -27 -223 -10 -79 -8 -14 -45 -7 rlinecurve
          259 36 rmoveto
          23 -44 16 -21 20 -10 rrcurveto
          hintmask 01100000
          -7 12 11 -3 10 hhcurveto
          15 58 16 0 hvcurveto
          9 29 -2 5 rlineto
          -40 -29 23 59 -36 hvcurveto
          -83 135 138 127 38 28 47 14 rlinecurve
          11 31 -2 5 rlineto
          0 -56 -6 -37 -35 -60 2 0 vhcurveto
          -12 -29 2 -5 rlineto
          35 15 -6 -13 -11 -5 -8 -22 -18 hvcurveto
          -129 -112 -4 -14 rlineto
          endchar
        </CharString>
        <CharString name="l">
          -136 9 -21 745 -20 hstem
          118 64 rmoveto
          34 258 89 399 -62 callsubr
          hvcurveto
          -40 -94 -575 -17 vvcurveto
          41 callgsubr
          48 37 69 69 vhcurveto
          -13 24 -12 1 rlineto
          -50 -57 -12 -9 -10 hhcurveto
          endchar
        </CharString>
        <CharString name="l.sups">
          -201 364 -21 471 -20 hstem
          103 407 rmoveto
          19 144 56 254 10 callsubr
          hvcurveto
          -23 -58 -349 -14 vvcurveto
          -16 9 -9 17 20 31 23 53 50 vhcurveto
          -10 19 -9 8 callsubr
          endchar
        </CharString>
        <CharString name="lacute">
          -136 9 -21 957 -20 hstem
          118 64 rmoveto
          34 258 89 399 -62 callsubr
          hvcurveto
          -40 -94 -575 -17 vvcurveto
          41 callgsubr
          48 37 69 69 vhcurveto
          -13 24 -12 1 rlineto
          -50 -57 -12 -9 -10 hhcurveto
          171 842 -98 callsubr
          endchar
        </CharString>
        <CharString name="lcaron">
          -60 9 -21 745 -20 hstem
          118 64 rmoveto
          34 258 89 399 -62 callsubr
          hvcurveto
          -40 -94 -575 -17 vvcurveto
          41 callgsubr
          48 37 69 69 vhcurveto
          -13 24 -12 1 rlineto
          -50 -57 -12 -9 -10 hhcurveto
          250 649 -59 callgsubr
        </CharString>
        <CharString name="lcommaaccent">
          -136 -22 callsubr
          55 745 -20 hstem
          54 85 vstem
          118 64 rmoveto
          34 258 89 399 -62 callsubr
          hvcurveto
          -40 -94 -575 -17 vvcurveto
          41 callgsubr
          48 37 69 69 vhcurveto
          -13 24 -12 1 rlineto
          -50 -57 -12 -9 -10 hhcurveto
          -96 -167 -101 callgsubr
          endchar
        </CharString>
        <CharString name="ldot">
          -70 9 -21 231 119 395 -20 hstem
          118 64 rmoveto
          34 258 89 399 -62 callsubr
          hvcurveto
          -40 -94 -575 -17 vvcurveto
          41 callgsubr
          48 37 69 69 vhcurveto
          -13 24 -12 1 rlineto
          -50 -57 -12 -9 -10 hhcurveto
          132 159 -36 callsubr
        </CharString>
        <CharString name="less">
          98 91 -21 394 -20 hstem
          40 239 rmoveto
          0 113 -52 66 -32 vhcurveto
          74 -35 94 -50 0 vvcurveto
          35 40 rlineto
          11 vlineto
          17 callsubr
          112 39 2 callgsubr
          50 -8 5 rlineto
          0 -110 -42 -91 -39 vhcurveto
          -205 -86 -8 -47 rlineto
          endchar
        </CharString>
        <CharString name="lessequal">
          98 -73 55 -36 -21 539 -16 callgsubr
          40 239 rmoveto
          2 111 -53 -31 66 hvcurveto
          37 -18 rlineto
          66 -31 66 -37 1 vvcurveto
          34 40 1 4 -1 3 1 4 rlinecurve
          17 callsubr
          111 39 0 vvcurveto
          -1 50 -8 5 rlineto
          0 -110 -43 -92 -38 vhcurveto
          -205 -86 -7 -47 rlineto
          399 -262 27 callsubr
          29 callsubr
          hintmask 10100000
          41 243 2 152 hhcurveto
          14 51 rlineto
          endchar
        </CharString>
        <CharString name="logicalnot">
          100 51 -21 205 56 6 -16 callgsubr
          443 297 rmoveto
          hintmask 11000000
          0 -101 -6 -76 -21 callgsubr
          87 vhcurveto
          133 1 rlineto
          -11 -88 -15 -112 30 callsubr
          7 66 9 70 vhcurveto
          6 47 15 63 -32 callsubr
        </CharString>
        <CharString name="lozenge">
          101 -73 -21 745 -20 hstem
          63 262 rmoveto
          57 -164 58 -185 10 -7 48 2 107 189 94 174 2 26 -55 162 -59 185 -10 7 -48 -2 -107 -189 -95 -177 rlineto
          140 156 rmoveto
          75 143 rlineto
          6 hlineto
          48 -156 48 -146 -84 -162 -75 -143 rlineto
          -6 hlineto
          -48 156 -47 145 rlineto
          endchar
        </CharString>
        <CharString name="lslash">
          -136 9 -21 745 -20 hstem
          118 64 rmoveto
          12 94 20 113 20 106 92 51 rcurveline
          -6 31 -8 4 -69 -38 rlineto
          32 162 30 134 -62 callsubr
          -17 -17 -114 -20 -127 hvcurveto
          -88 -49 6 -32 9 -2 66 36 rlineto
          -25 -157 -25 -161 -9 vvcurveto
          41 callgsubr
          48 37 69 69 vhcurveto
          -13 24 -12 1 rlineto
          -50 -57 -12 -9 -10 hhcurveto
          endchar
        </CharString>
        <CharString name="m">
          350 -35 callsubr
          hstemhm
          602 72 hintmask 01110000
          585 64 rmoveto
          20 85 69 151 71 vvcurveto
          53 -32 40 -42 vhcurveto
          -65 -38 -76 -97 -66 -130 -3 3 rcurveline
          0 41 135 34 vvcurveto
          51 -35 42 -42 vhcurveto
          -61 -36 -70 -93 -68 -136 -3 3 rcurveline
          19 117 42 121 -45 callgsubr
          0 -101 -6 -61 vhcurveto
          -7 -67 callsubr
          31 12 -12 -28 -32 -55 -336 -54 callgsubr
          85 rlineto
          162 67 73 110 40 hhcurveto
          20 14 -17 -24 -37 -67 -293 0 hvcurveto
          -71 callsubr
          12 65 rlineto
          173 73 80 119 43 hhcurveto
          20 14 -17 -24 hvcurveto
          -68 -82 -185 -60 vvcurveto
          hintmask 10110000
          -27 callsubr
          21 45 33 73 76 vhcurveto
          -13 24 -12 1 rlineto
          -53 -62 -8 -6 -10 hhcurveto
          endchar
        </CharString>
        <CharString name="m.sups">
          113 365 -21 232 71 hstem
          409 408 rmoveto
          11 46 41 92 40 vvcurveto
          36 -25 25 -36 vhcurveto
          -36 -22 -43 -55 -38 -76 -2 1 rcurveline
          0 21 71 20 vvcurveto
          35 -26 26 -35 vhcurveto
          -35 -21 -39 -53 -39 -79 -3 -45 callsubr
          49 rlineto
          96 39 42 66 23 hhcurveto
          11 8 -9 -14 -24 -42 -175 0 hvcurveto
          -35 callgsubr
          6 38 rlineto
          102 43 47 71 24 hhcurveto
          11 8 -10 -14 hvcurveto
          -38 -49 -112 -35 vvcurveto
          -15 9 -8 17 19 30 21 54 53 vhcurveto
          -9 19 -10 2 rlineto
          -31 -36 -5 -3 -5 hhcurveto
          endchar
        </CharString>
        <CharString name="macron">
          595 52 -32 -21 59 46 callgsubr
          383 653 rmoveto
          hintmask 10000000
          0 -77 -6 -48 -57 -91 1 0 vhcurveto
          -15 -45 19 callsubr
          81 1 57 vhcurveto
          136 1 13 47 rlineto
          endchar
        </CharString>
        <CharString name="macron.cap">
          730 52 -32 -21 59 46 callgsubr
          398 788 rmoveto
          hintmask 10000000
          0 -77 -6 -48 -56 -91 1 0 vhcurveto
          -16 -45 19 callsubr
          82 1 56 vhcurveto
          137 1 13 47 rlineto
          endchar
        </CharString>
        <CharString name="minus">
          100 235 56 22 callgsubr
          472 297 rmoveto
          hintmask 10000000
          0 -129 -6 -77 -86 -143 1 0 vhcurveto
          -17 -49 19 callsubr
          133 1 87 vhcurveto
          218 1 14 51 rlineto
          endchar
        </CharString>
        <CharString name="mu">
          114 -221 -21 230 71 405 -20 hstem
          96 445 rmoveto
          -6 -7 rlineto
          0 1 -58 -7 -52 vhcurveto
          -38 -255 rlineto
          -23 -161 -28 -142 0 vvcurveto
          5 -12 68 15 6 7 rlineto
          0 0 91 9 51 vhcurveto
          15 89 5 3 rlineto
          -15 16 22 -11 30 hhcurveto
          41 9 63 48 28 22 5 -2 rcurveline
          -51 -3 30 -26 50 hhcurveto
          34 61 80 0 hvcurveto
          -12 16 rlineto
          0 -30 -25 -30 -22 -12 14 24 41 49 284 16 30 vhcurveto
          -5 12 -88 -18 -5 -7 rlineto
          0 -1 -59 -4 -34 vhcurveto
          -28 -233 rlineto
          -1 -62 -56 -50 hhcurveto
          -49 -20 29 49 25 43 250 20 42 hvcurveto
          -4 12 rlineto
          endchar
        </CharString>
        <CharString name="multiply">
          100 101 -21 369 -20 hstem
          404 449 rmoveto
          0 -90 -90 -61 -58 vhcurveto
          -52 62 -64 79 0 vvcurveto
          -47 -26 -3 -11 rlineto
          0 68 -82 53 -62 vhcurveto
          -67 -62 -81 -74 0 vvcurveto
          22 -42 10 -3 rlineto
          0 83 79 68 63 vhcurveto
          116 -138 45 30 5 12 rlineto
          0 -73 78 -49 57 vhcurveto
          153 143 -26 42 rlineto
          endchar
        </CharString>
        <CharString name="n">
          116 -35 callsubr
          hstemhm
          364 72 hintmask 01110000
          352 64 rmoveto
          18 84 66 151 -99 callsubr
          hvcurveto
          -69 -76 -183 -61 vvcurveto
          hintmask 10110000
          -61 callgsubr
          endchar
        </CharString>
        <CharString name="n.sups">
          -40 365 -21 232 71 hstem
          256 408 rmoveto
          10 45 39 93 38 vvcurveto
          37 -25 26 -36 vhcurveto
          -35 -21 -41 -53 -39 -79 -4 -45 callsubr
          48 rlineto
          96 3 callgsubr
          20 30 23 52 51 26 callgsubr
        </CharString>
        <CharString name="nacute">
          116 -35 callsubr
          251 -20 hstemhm
          364 72 hintmask 01111000
          352 64 rmoveto
          18 84 66 151 -99 callsubr
          hvcurveto
          -69 -76 -183 -61 vvcurveto
          hintmask 10111000
          -61 callgsubr
          81 612 -98 callsubr
          endchar
        </CharString>
        <CharString name="nbspace">
          -194 endchar
        </CharString>
        <CharString name="ncaron">
          116 -35 callsubr
          246 -20 hstemhm
          364 72 hintmask 01111000
          352 64 rmoveto
          18 84 66 151 -99 callsubr
          hvcurveto
          -69 -76 -183 -61 vvcurveto
          hintmask 10111000
          -61 callgsubr
          -183 626 -86 callsubr
        </CharString>
        <CharString name="ncommaaccent">
          116 -22 callsubr
          55 24 -21 380 93 hstem
          364 72 vstem
          352 64 rmoveto
          18 84 66 151 -99 callsubr
          hvcurveto
          -69 -76 -183 -61 vvcurveto
          -61 callgsubr
          -186 -167 -101 callgsubr
          endchar
        </CharString>
        <CharString name="nine">
          51 -84 8 callgsubr
          44 77 210 37 callsubr
          371 109 322 vvcurveto
          102 -54 77 -96 37 callgsubr
          45 callgsubr
          -206 -73 0 vvcurveto
          194 278 rmoveto
          -62 -37 52 61 82 47 54 68 61 27 callgsubr
          -42 hhcurveto
          endchar
        </CharString>
        <CharString name="nine.dnom">
          -85 14 -9 callgsubr
          24 -87 callgsubr
        </CharString>
        <CharString name="nine.lf">
          51 10 8 callgsubr
          56 76 211 80 vstem
          38 24 rmoveto
          7 -30 7 -5 rlineto
          0 371 109 322 vvcurveto
          102 -55 77 -95 37 callgsubr
          55 32 20 28 vhcurveto
          3 -3 rlineto
          -74 -195 -205 -73 0 vvcurveto
          194 278 rmoveto
          -62 -38 53 61 81 47 54 69 61 34 -53 -82 -20 -3 -27 -8 -30 hvcurveto
          -11 -17 -41 -26 -42 hhcurveto
          endchar
        </CharString>
        <CharString name="nine.numr">
          -85 281 -9 callgsubr
          291 -87 callgsubr
        </CharString>
        <CharString name="nine.sinf">
          -85 -106 -9 callgsubr
          -96 -87 callgsubr
        </CharString>
        <CharString name="nine.sups">
          -85 365 -9 callgsubr
          375 -87 callgsubr
        </CharString>
        <CharString name="nine.tf">
          64 10 8 callgsubr
          59 76 217 80 vstem
          41 24 rmoveto
          7 -30 7 -5 rlineto
          0 377 109 321 vvcurveto
          103 -56 77 -97 -126 -94 -98 -110 -71 47 -77 103 29 56 32 20 29 vhcurveto
          3 -3 rlineto
          -75 -195 -210 -73 0 vvcurveto
          197 278 rmoveto
          -64 -39 53 61 81 48 54 71 63 35 -53 -82 -20 -3 -27 -8 -30 hvcurveto
          -11 -18 -42 -26 -43 hhcurveto
          endchar
        </CharString>
        <CharString name="nine.tosf">
          54 -84 8 callgsubr
          44 77 212 37 callsubr
          373 109 322 vvcurveto
          102 -54 77 -97 -124 -94 -98 -110 -71 47 -77 101 29 45 callgsubr
          -208 -73 0 vvcurveto
          195 278 rmoveto
          -62 -38 52 61 82 48 54 68 62 27 callgsubr
          -43 hhcurveto
          endchar
        </CharString>
        <CharString name="notequal">
          100 45 -21 134 56 101 56 135 -20 hstem
          482 377 rmoveto
          0 -107 -5 -78 -1 vhcurveto
          48 125 -7 10 rlineto
          -27 hlineto
          -51 -135 rlineto
          -86 -127 1 0 hvcurveto
          -17 -49 -26 callgsubr
          119 1 85 vhcurveto
          -37 -101 rlineto
          -81 -94 1 0 hvcurveto
          -17 -49 -26 callgsubr
          86 1 79 vhcurveto
          -46 -126 5 -8 rlineto
          28 hlineto
          50 134 rlineto
          20 hlineto
          72 72 1 72 hhcurveto
          14 51 -4 10 rlineto
          -1 -154 -5 -71 vhcurveto
          38 101 rlineto
          66 65 1 65 hhcurveto
          15 51 rlineto
          endchar
        </CharString>
        <CharString name="ntilde">
          116 -35 callsubr
          109 -17 callsubr
          364 72 hintmask 01101110
          352 64 rmoveto
          18 84 66 151 -99 callsubr
          hvcurveto
          -69 -76 -183 -61 vvcurveto
          hintmask 10101110
          -61 callgsubr
          -185 491 -23 callgsubr
          hintmask 01110110
          -76 callsubr
          hintmask 01101110
          -41 callsubr
        </CharString>
        <CharString name="numbersign">
          94 56 -21 173 46 108 44 167 -20 hstem
          66 362 rmoveto
          104 1 -18 -52 -19 -57 -104 1 -19 -37 2 -10 106 1 -56 -168 6 -6 41 8 55 166 35 1 66 -1 -56 -168 7 -6 40 8 54 165 98 -1 22 36 -3 9 rlineto
          -102 hlineto
          24 71 13 39 100 -1 23 36 -3 9 rlineto
          -103 hlineto
          56 161 -7 6 -41 -5 -55 -162 -50 1 rlineto
          -50 hlineto
          56 160 -7 6 -41 -5 -54 -160 -103 1 -19 -37 rlineto
          138 -49 rmoveto
          14 40 37 1 64 -1 -17 -52 -20 -59 -52 1 rlineto
          -50 hlineto
          endchar
        </CharString>
        <CharString name="o">
          -29 callgsubr
          -40 callsubr
          -97 callgsubr
          endchar
        </CharString>
        <CharString name="o.sups">
          -52 callsubr
        </CharString>
        <CharString name="oacute">
          -29 callgsubr
          251 30 callgsubr
          -97 callgsubr
          243 684 -98 callsubr
          endchar
        </CharString>
        <CharString name="obreve">
          -29 callgsubr
          94 58 66 30 callgsubr
          -97 callgsubr
          117 628 -95 callgsubr
          endchar
        </CharString>
        <CharString name="ocircumflex">
          -29 callgsubr
          239 30 callgsubr
          146 -12 rmoveto
          125 104 151 176 94 -44 55 -70 -121 -106 -148 -164 -100 46 -64 66 hvcurveto
          40 55 rmoveto
          -47 -33 65 94 116 48 86 65 50 31 -55 -89 -125 -48 -92 -66 hvcurveto
          -60 485 -99 callgsubr
        </CharString>
        <CharString name="odieresis">
          -29 callgsubr
          102 93 -40 callsubr
          -97 callgsubr
          186 578 -92 callsubr
          endchar
        </CharString>
        <CharString name="oe">
          236 -12 60 356 60 hstem
          34 72 vstem
          603 40 callsubr
          -61 -59 -46 -66 -41 vhcurveto
          71 -9 -33 41 -60 hhcurveto
          -121 -106 -148 -164 -100 46 -64 66 66 57 42 65 39 hvcurveto
          -67 12 35 -40 58 hhcurveto
          57 66 50 71 38 hvcurveto
          -15 24 -14 1 rlineto
          -52 -27 -43 -34 -40 hhcurveto
          -47 -28 57 85 5 hvcurveto
          171 57 67 55 84 vvcurveto
          -417 -343 rmoveto
          -47 -33 65 94 116 48 86 65 50 31 -55 -89 -125 -48 -92 -66 hvcurveto
          306 363 5 callgsubr
        </CharString>
        <CharString name="ogonek">
          -241 59 224 -20 hstem
          232 -159 -50 callsubr
          50 34 33 98 93 vhcurveto
          -41 hlineto
          -83 -76 -72 -60 -64 -59 callsubr
          endchar
        </CharString>
        <CharString name="ograve">
          -29 callgsubr
          250 30 callgsubr
          -97 callgsubr
          -8 672 -78 callgsubr
          endchar
        </CharString>
        <CharString name="ohungarumlaut">
          -29 callgsubr
          241 30 callgsubr
          -97 callgsubr
          172 676 -68 callgsubr
          130 9 -68 callgsubr
          endchar
        </CharString>
        <CharString name="omacron">
          -29 callgsubr
          131 42 callgsubr
          34 72 194 75 hintmask 11011100
          -97 callgsubr
          260 665 rmoveto
          hintmask 11101100
          -61 callsubr
        </CharString>
        <CharString name="one">
          -46 0 44 -35 -21 517 46 callgsubr
          235 404 rmoveto
          9 46 9 16 28 22 -4 17 rcurveline
          -2 -2 -2 -16 -97 hvcurveto
          -8 -50 -57 -7 -1 hhcurveto
          -9 -42 2 -3 rlineto
          0 32 6 20 32 19 -6 -51 -7 vhcurveto
          -28 -228 -10 -88 -19 -20 -71 -6 rlinecurve
          -11 -46 rlineto
          hintmask 10100000
          0 74 4 callgsubr
          26 23 159 21 130 vhcurveto
          endchar
        </CharString>
        <CharString name="one.dnom">
          -146 14 -21 28 -21 377 -16 callgsubr
          184 311 -90 callgsubr
          hintmask 01100000
          -25 callgsubr
        </CharString>
        <CharString name="one.lf">
          -46 0 44 -35 -21 610 46 callgsubr
          249 497 rmoveto
          8 46 11 16 27 22 -4 17 rcurveline
          -1 -4 -2 -16 -98 hvcurveto
          -9 -50 -57 -6 -1 hhcurveto
          -9 -42 3 -3 rlineto
          0 31 6 20 33 18 -6 -51 -6 vhcurveto
          -43 -349 -8 -64 -30 -17 -59 -5 rlinecurve
          -12 -46 rlineto
          hintmask 10100000
          0 75 4 callgsubr
          34 36 256 21 118 vhcurveto
          endchar
        </CharString>
        <CharString name="one.numr">
          -146 281 -21 330 -20 74 -20 hstem
          184 578 -90 callgsubr
          -25 callgsubr
        </CharString>
        <CharString name="one.sinf">
          -146 -120 -20 34 -21 384 46 callgsubr
          184 191 -90 callgsubr
          hintmask 10100000
          -25 callgsubr
        </CharString>
        <CharString name="one.sups">
          -146 365 -21 384 -20 hstem
          184 662 -90 callgsubr
          -25 callgsubr
        </CharString>
        <CharString name="one.tf">
          64 9 -21 33 -21 598 -16 callgsubr
          301 497 rmoveto
          8 46 13 16 31 22 -4 17 rcurveline
          -1 3 -2 -16 -115 hvcurveto
          -9 -60 -68 -6 3 hhcurveto
          -9 -42 3 -3 rlineto
          0 37 6 24 38 23 -6 -51 -6 vhcurveto
          -44 -349 -8 -64 -36 -17 -69 -5 rlinecurve
          -12 -46 rlineto
          hintmask 01100000
          0 84 12 56 55 94 -23 callsubr
          14 46 -1 -49 callgsubr
          -34 -3 -27 -37 -13 12 34 37 36 253 22 117 vhcurveto
          endchar
        </CharString>
        <CharString name="one.tosf">
          54 9 -21 33 -21 505 -16 callgsubr
          281 404 rmoveto
          10 46 9 16 33 22 -4 17 rcurveline
          -3 6 -2 -16 -113 hvcurveto
          -8 -59 -68 -7 4 hhcurveto
          -9 -42 2 -3 rlineto
          0 37 6 24 37 23 -6 -51 -7 vhcurveto
          -29 -228 -10 -88 -21 -20 -83 -6 rlinecurve
          -11 -46 rlineto
          hintmask 01100000
          0 82 12 56 54 92 -23 callsubr
          14 46 -1 -49 callgsubr
          -33 -3 -27 -36 -13 11 35 28 22 157 22 129 vhcurveto
          endchar
        </CharString>
        <CharString name="onedotenleader">
          -157 -12 119 hstem
          83 -12 rmoveto
          -73 callgsubr
          endchar
        </CharString>
        <CharString name="onehalf">
          327 -74 -21 95 51 539 -20 108 -20 hstem
          556 659 -84 callgsubr
          -377 -67 -90 callgsubr
          -76 callgsubr
          216 -585 rmoveto
          -95 callsubr
        </CharString>
        <CharString name="onequarter">
          299 -74 -21 200 47 438 -20 108 -20 hstem
          556 659 -84 callgsubr
          -377 -67 -90 callgsubr
          -76 callgsubr
          200 -471 -94 callgsubr
          endchar
        </CharString>
        <CharString name="ordfeminine">
          -69 callgsubr
        </CharString>
        <CharString name="ordmasculine">
          -52 callsubr
        </CharString>
        <CharString name="oslash">
          20 -77 -21 86 55 361 60 75 -72 callsubr
          endchar
        </CharString>
        <CharString name="oslashacute">
          20 -77 -21 86 55 361 60 251 -72 callsubr
          283 470 -98 callsubr
          endchar
        </CharString>
        <CharString name="otilde">
          -29 callgsubr
          109 -17 callsubr
          34 72 194 75 hintmask 11011110
          -97 callgsubr
          -21 563 -23 callgsubr
          hintmask 11101110
          -76 callsubr
          hintmask 11011110
          -41 callsubr
        </CharString>
        <CharString name="p">
          79 28 callsubr
          hstemhm
          hintmask 01111000
          -16 -235 rmoveto
          hintmask 10111000
          0 88 7 110 vhcurveto
          6 33 -1 6 rlineto
          -41 hlineto
          -38 -9 11 38 5 hvcurveto
          21 145 95 -13 rlineto
          102 110 164 151 93 -42 64 -60 hvcurveto
          -55 -45 -46 -69 -72 -148 -4 3 rcurveline
          15 84 19 72 28 79 -9 12 rcurveline
          0 -101 -6 -61 vhcurveto
          -7 -67 callsubr
          31 12 -12 -28 -34 -63 -417 -13 -50 hvcurveto
          -13 -50 -11 -13 -31 -3 rrcurveto
          hintmask 01111000
          327 580 rmoveto
          24 22 -58 -64 -104 -56 -109 -54 -29 -50 12 17 -38 hvcurveto
          185 78 72 121 31 hhcurveto
          endchar
        </CharString>
        <CharString name="p.sups">
          -58 224 -21 144 46 254 -20 hstem
          -5 203 rmoveto
          0 71 4 74 vhcurveto
          5 29 rlineto
          4 -28 vlineto
          -24 -6 6 24 3 hvcurveto
          13 87 61 -10 rlineto
          68 74 103 97 60 -29 40 -46 hvcurveto
          -33 -26 -28 -41 -42 -82 -3 1 rcurveline
          8 46 11 42 15 44 -6 8 rcurveline
          -19 callgsubr
          19 7 -7 -17 -23 -37 -241 -9 -40 hvcurveto
          -8 -31 -8 -9 -20 -2 rrcurveto
          218 352 rmoveto
          13 12 -31 -36 -59 -30 -66 -29 -20 -30 10 8 -18 hvcurveto
          105 42 43 69 17 hhcurveto
          endchar
        </CharString>
        <CharString name="paragraph">
          153 -105 47 650 49 -4 -16 callgsubr
          316 134 rmoveto
          -140 -17 -23 -52 -80 hhcurveto
          -54 -32 46 90 11 hvcurveto
          -15 hlineto
          -24 -25 -24 -42 -31 vvcurveto
          -59 56 -26 62 151 39 96 163 20 vhcurveto
          10 77 34 259 16 59 7 36 16 12 58 -3 2 4 rcurveline
          11 42 rlineto
          0 -85 -3 -36 vhcurveto
          hintmask 11000000
          -26 -51 4 -48 hhcurveto
          -135 -94 -100 -124 -131 95 -64 113 -10 hvcurveto
          2 15 rlineto
          -29 49 -15 50 67 vvcurveto
          118 39 81 76 25 0 -1 -13 vhcurveto
          endchar
        </CharString>
        <CharString name="parenleft">
          -89 -125 -21 795 -20 hstem
          73 163 rmoveto
          -30 -242 169 -67 0 vvcurveto
          4 hlineto
          25 26 rlineto
          5 vlineto
          0 -127 70 28 223 vhcurveto
          21 173 rlineto
          25 207 137 58 0 vvcurveto
          2 4 -10 29 rlineto
          -5 hlineto
          0 -188 -68 -30 -245 vhcurveto
          endchar
        </CharString>
        <CharString name="parenright">
          -85 -125 -21 795 -20 hstem
          232 340 rmoveto
          29 242 -169 67 0 vvcurveto
          -4 hlineto
          -24 -26 -1 -5 rlineto
          0 127 -70 -27 -223 vhcurveto
          -21 -173 rlineto
          -26 -207 -137 -58 0 vvcurveto
          -1 -4 10 -29 rlineto
          4 hlineto
          0 188 68 30 245 vhcurveto
          endchar
        </CharString>
        <CharString name="partialdiff">
          43 callsubr
          37 83 249 85 vstem
          349 427 rmoveto
          0 -42 26 -30 -126 -114 -124 -151 -98 51 -92 117 136 113 132 172 213 -140 155 -175 81 vhcurveto
          -10 -4 -20 -33 120 -62 87 -85 35 -128 rlinecurve
          18 -152 rmoveto
          -161 -58 -79 -74 -76 -41 73 92 126 55 71 85 69 28 -34 -13 9 vhcurveto
          2 -19 1 -33 -23 vvcurveto
          endchar
        </CharString>
        <CharString name="percent">
          261 -66 callgsubr
          112 -44 callgsubr
        </CharString>
        <CharString name="period">
          -157 -12 119 hstem
          83 -12 rmoveto
          -73 callgsubr
          endchar
        </CharString>
        <CharString name="periodcentered">
          -157 168 119 hstem
          105 168 -36 callsubr
        </CharString>
        <CharString name="perthousand">
          580 -66 callgsubr
          334 64 rmoveto
          -43 -43 -4 callsubr
          30 -40 -52 -84 -58 -17 -38 hvcurveto
          -15 -64 rmoveto
          102 59 97 97 65 -40 64 -80 -94 -66 -83 -107 -77 47 -56 72 hvcurveto
          -207 -44 callgsubr
        </CharString>
        <CharString name="pi">
          191 -81 -21 90 64 393 50 10 -20 hstemhm
          hintmask 11100000
          406 131 rmoveto
          38 18 77 28 144 vhcurveto
          46 9 18 9 85 hhcurveto
          7 7 16 46 rlineto
          hintmask 11010000
          -5 7 rlineto
          hintmask 11100000
          0 -86 -10 -56 vhcurveto
          hintmask 11010000
          -57 -163 10 -109 hhcurveto
          -15 -7 -71 -98 rlineto
          -7 vlineto
          23 -18 7 1 rlineto
          0 36 66 30 25 10 -8 -28 -48 -69 -432 -9 -16 vhcurveto
          5 -12 74 16 5 7 rlineto
          0 3 53 6 48 vhcurveto
          10 80 32 208 15 82 rrcurveto
          46 8 6 4 63 hhcurveto
          75 4 -3 -51 -6 hvcurveto
          -38 -269 rlineto
          -90 -13 32 -41 78 hhcurveto
          8 42 46 11 2 hvcurveto
          -5 7 rlineto
          -54 -24 24 55 hvcurveto
          endchar
        </CharString>
        <CharString name="plus">
          100 51 -21 205 56 209 -20 hstem
          299 500 rmoveto
          -53 -8 -25 -201 rlineto
          -83 -101 1 0 hvcurveto
          -17 -49 -26 callgsubr
          105 1 84 vhcurveto
          -11 -88 -15 -111 30 callsubr
          12 106 11 88 vhcurveto
          193 1 14 51 -5 10 rlineto
          0 -118 -6 -77 vhcurveto
          10 80 21 123 -32 callsubr
        </CharString>
        <CharString name="plusminus">
          100 -73 58 -39 -21 323 56 199 45 callsubr
          299 503 rmoveto
          -52 -8 -25 -191 rlineto
          -83 -101 1 0 hvcurveto
          -16 -49 4 -9 rlineto
          0 105 1 84 vhcurveto
          -10 -86 -14 -103 30 callsubr
          11 99 11 85 vhcurveto
          63 65 1 64 hhcurveto
          14 51 -4 10 rlineto
          0 -119 -6 -77 vhcurveto
          10 80 20 113 0 vvcurveto
          126 -509 rmoveto
          -1 -33 -1 -42 -1 vhcurveto
          -2 -42 -51 -1 -38 -85 -142 1 -2 hhcurveto
          -16 -49 rlineto
          hintmask 01110000
          4 -9 rlineto
          hintmask 10110000
          42 242 1 callsubr
        </CharString>
        <CharString name="product">
          294 0 44 -35 -21 596 53 -49 -20 78 -20 hstemhm
          hintmask 10011000
          592 538 rmoveto
          7 38 14 12 55 7 10 51 rcurveline
          hintmask 10100000
          -4 -3 -110 -5 -37 hhcurveto
          -296 hlineto
          -40 -75 3 0 hvcurveto
          -13 -50 1 -4 rlineto
          hintmask 01011000
          0 26 2 14 23 8 -8 -26 -38 -37 -258 -16 -138 vhcurveto
          -8 -58 -20 -16 -59 -12 -12 -46 rcurveline
          hintmask 10100000
          5 3 97 7 52 hhcurveto
          41 47 -4 1 1 hvcurveto
          14 46 -2 -49 callgsubr
          -27 -3 -23 -11 -7 2 4 -7 vhcurveto
          -8 5 -3 13 20 vvcurveto
          38 35 222 33 190 vhcurveto
          40 7 20 6 101 hhcurveto
          99 22 -3 -35 -36 -36 -253 -16 -137 hvcurveto
          -7 -58 -20 -16 -60 -12 rrcurveto
          hintmask 01100000
          -11 -46 rlineto
          hintmask 10100000
          0 64 12 50 45 28 callgsubr
          -26 -10 11 33 38 36 222 32 190 vhcurveto
          endchar
        </CharString>
        <CharString name="q">
          56 -227 40 -31 -21 227 81 337 54 38 -20 hstemhm
          hintmask 01111000
          243 -123 rmoveto
          -11 -60 -10 -10 -53 -7 -6 -39 rcurveline
          hintmask 10111000
          0 103 12 105 vhcurveto
          5 34 -2 6 rlineto
          -41 hlineto
          -23 -8 11 32 103 92 456 33 60 hvcurveto
          -7 12 -33 11 -7 -2 -21 -52 -98 16 rlineto
          -110 -117 -165 -156 -90 38 -61 55 hvcurveto
          54 45 53 74 64 120 7 -2 rcurveline
          -32 -174 rlineto
          -132 18 rmoveto
          -21 -18 54 61 113 63 109 65 26 37 -12 -20 36 hvcurveto
          -191 -86 -71 -114 -31 hhcurveto
          endchar
        </CharString>
        <CharString name="q.sups">
          -74 221 -21 400 43 24 -20 hstem
          171 278 rmoveto
          -7 -36 -6 -6 -36 -4 -6 -32 rcurveline
          0 65 7 82 vhcurveto
          5 30 -1 3 rlineto
          -24 hlineto
          -14 -4 7 18 67 59 291 16 27 hvcurveto
          -4 10 -38 7 -7 -3 -12 -32 -58 11 rlineto
          -73 -77 -105 -98 -59 28 -38 42 hvcurveto
          32 26 32 43 38 70 5 -1 rcurveline
          -18 -99 rlineto
          -75 25 rmoveto
          -11 -10 30 34 65 33 64 34 18 24 -10 -9 17 hvcurveto
          -104 -45 -42 -70 -18 hhcurveto
          endchar
        </CharString>
        <CharString name="question">
          -40 -12 119 519 68 hstem
          286 71 vstem
          101 203 rmoveto
          8 -4 63 17 4 8 -8 95 4 9 rlineto
          87 59 98 34 121 vvcurveto
          84 -86 64 -112 4 vhcurveto
          -14 -4 -39 -53 1 -11 rlineto
          108 -7 71 -35 -73 vvcurveto
          -45 -30 -30 -36 -23 vhcurveto
          -123 -76 -4 -14 rlineto
          16 -335 -31 callgsubr
          endchar
        </CharString>
        <CharString name="questiondown">
          -40 -242 68 519 119 hstem
          -9 70 vstem
          247 249 rmoveto
          -9 4 -62 -17 -4 -8 8 -95 -4 -9 rlineto
          -87 -59 -98 -34 -121 vvcurveto
          -84 86 -64 112 -4 vhcurveto
          14 4 38 53 -1 11 rlineto
          -107 7 -72 35 73 vvcurveto
          45 31 30 35 23 vhcurveto
          123 76 5 14 rlineto
          -17 335 rmoveto
          -41 -28 -32 -37 -28 16 -22 33 40 29 32 37 26 -15 24 -34 hvcurveto
          endchar
        </CharString>
        <CharString name="quotedbl">
          -99 -33 callgsubr
          113 8 rmoveto
          -71 -14 rlineto
          0 -4 -108 -17 -110 vhcurveto
          11 -2 27 14 rlineto
          33 -7 callgsubr
        </CharString>
        <CharString name="quotedblbase">
          -3 -106 41 callsubr
          29 59 -101 callgsubr
          153 -14 -101 callgsubr
          endchar
        </CharString>
        <CharString name="quotedblleft">
          -64 22 callsubr
          389 463 -56 callgsubr
          -19 callsubr
          -148 14 -56 callgsubr
          -19 callsubr
          endchar
        </CharString>
        <CharString name="quotedblright">
          -64 22 callsubr
          288 609 -101 callgsubr
          -152 -14 -101 callgsubr
          endchar
        </CharString>
        <CharString name="quoteleft">
          -215 22 callsubr
          177 463 -56 callgsubr
          -19 callsubr
          endchar
        </CharString>
        <CharString name="quoteright">
          -215 22 callsubr
          73 609 -101 callgsubr
          endchar
        </CharString>
        <CharString name="quotesinglbase">
          38 callsubr
          -20 hstem
          28 -57 callsubr
          endchar
        </CharString>
        <CharString name="quotesingle">
          -217 -33 callgsubr
          endchar
        </CharString>
        <CharString name="r">
          -40 12 -21 469 -91 callsubr
          endchar
        </CharString>
        <CharString name="r.sups">
          -135 367 -21 220 69 10 -12 callsubr
          49 354 rmoveto
          -35 callgsubr
          8 64 rlineto
          85 33 41 52 36 hhcurveto
          13 9 -6 0 hvcurveto
          7 3 rlineto
          3 11 2 9 8 vvcurveto
          hintmask 10100000
          23 -8 18 -16 13 vhcurveto
          -26 -49 -60 -72 -31 hvcurveto
          -3 hlineto
          11 56 19 61 0 vvcurveto
          -6 9 rlineto
          hintmask 11000000
          -19 callgsubr
          20 6 -7 -19 -24 -34 -199 0 hvcurveto
          endchar
        </CharString>
        <CharString name="racute">
          -40 12 -21 469 -20 275 -91 callsubr
          247 672 -98 callsubr
          endchar
        </CharString>
        <CharString name="radical">
          100 9 -21 754 -20 hstem
          91 366 rmoveto
          22 -84 67 -294 0 vvcurveto
          67 20 303 734 rlineto
          -45 hlineto
          -17 -13 -257 -641 rlineto
          -6 hlineto
          0 -61 284 1 75 vhcurveto
          -6 8 -42 -2 rlineto
          -22 -1 -59 -3 -13 callgsubr
          -33 3 -4 26 1 26 -8 9 -39 rlinecurve
          endchar
        </CharString>
        <CharString name="rcaron">
          -40 12 -21 469 -20 270 -91 callsubr
          -17 686 -86 callsubr
        </CharString>
        <CharString name="rcommaaccent">
          -40 -272 -21 305 -21 469 -91 callsubr
          -12 -107 -101 callgsubr
          endchar
        </CharString>
        <CharString name="registered">
          63 324 -21 110 208 -127 -20 123 114 hstemhm
          hintmask 10110000
          62 485 rmoveto
          -101 73 -81 100 117 105 102 124 101 -72 81 -100 -117 -106 -102 -124 vhcurveto
          35 4 rmoveto
          102 88 85 96 82 60 -67 -84 -102 -88 -85 -96 -82 -60 67 84 vhcurveto
          61 -78 rmoveto
          hintmask 11000000
          0 26 2 17 vhcurveto
          12 hlineto
          13 18 -1 0 hvcurveto
          4 17 -2 4 rlineto
          -16 -5 3 12 hvcurveto
          hintmask 10110000
          9 4 23 3 14 vhcurveto
          24 hlineto
          20 -55 rlineto
          -23 9 10 -9 13 hhcurveto
          26 12 0 17 2 hvcurveto
          -3 4 rlineto
          -13 -11 11 21 -11 hvcurveto
          -22 43 rlineto
          27 12 27 19 38 vvcurveto
          hintmask 11000000
          31 -27 18 -45 vhcurveto
          0 -18 -1 -12 -1 vhcurveto
          -11 hlineto
          -12 -28 1 -1 hhcurveto
          -5 -17 -11 callsubr
          10 hlineto
          9 2 -3 -15 -2 hvcurveto
          -13 -111 -4 -29 -2 -7 -23 -2 rlinecurve
          84 157 rmoveto
          hintmask 10110000
          6 1 1 2 5 hhcurveto
          28 17 -9 -24 -32 -24 -11 -11 -4 hvcurveto
          1 -9 -11 2 -7 hhcurveto
          endchar
        </CharString>
        <CharString name="ring">
          544 164 hstem
          237 582 -79 callgsubr
        </CharString>
        <CharString name="ring.cap">
          674 164 hstem
          253 712 -79 callgsubr
        </CharString>
        <CharString name="s">
          35 callgsubr
          hstem
          -97 callsubr
          endchar
        </CharString>
        <CharString name="s.sups">
          -140 343 42 219 43 hstem
          43 445 rmoveto
          -10 -14 -12 -31 -5 -20 rrcurveto
          -22 7 33 -15 42 hhcurveto
          64 54 46 54 47 -52 25 -29 26 hvcurveto
          -12 10 -7 11 12 vvcurveto
          17 14 13 18 23 19 -15 -26 9 vhcurveto
          11 hlineto
          8 15 11 23 8 20 rrcurveto
          16 -15 -28 10 -31 hhcurveto
          -61 -50 -43 -53 -38 32 -23 28 -21 hvcurveto
          22 -16 19 -15 -20 vvcurveto
          -18 -17 -15 -23 -36 -22 22 38 -1 vhcurveto
          endchar
        </CharString>
        <CharString name="sacute">
          35 callgsubr
          251 -20 hstem
          -97 callsubr
          312 534 -98 callsubr
          endchar
        </CharString>
        <CharString name="scaron">
          35 callgsubr
          246 -20 hstem
          -97 callsubr
          48 548 -86 callsubr
        </CharString>
        <CharString name="scedilla">
          -47 -27 callgsubr
          149 46 382 48 hstemhm
          hintmask 01111000
          81 -77 callgsubr
          hintmask 10111000
          -60 callsubr
          18 41 rlineto
          74 13 62 65 68 vvcurveto
          72 -81 45 -45 48 vhcurveto
          -18 19 -12 19 22 vvcurveto
          31 25 23 32 40 32 -26 -44 15 vhcurveto
          14 hlineto
          9 19 17 35 8 24 rrcurveto
          25 -19 -39 15 -45 hhcurveto
          -83 -73 -65 -75 -57 50 -40 44 -38 hvcurveto
          34 -29 29 -28 -34 vvcurveto
          -35 -32 -29 -38 -62 -34 36 68 vhcurveto
          -14 hlineto
          -11 -19 -17 -45 -8 -30 10 -33 40 -20 54 -3 rrcurveto
          endchar
        </CharString>
        <CharString name="scircumflex">
          35 callgsubr
          239 -20 hstem
          -97 callsubr
          48 390 -99 callgsubr
        </CharString>
        <CharString name="scommaaccent">
          -47 -22 callsubr
          55 0 46 382 48 hstemhm
          hintmask 10110000
          -97 callsubr
          36 -245 -38 callsubr
        </CharString>
        <CharString name="section">
          104 -105 47 658 49 hstem
          48 334 rmoveto
          -148 215 -51 -112 vvcurveto
          -46 -39 -35 -43 -56 -38 47 71 -4 vhcurveto
          -15 hlineto
          -10 -12 -16 -55 -24 vvcurveto
          -43 43 -31 61 89 79 80 60 10 vhcurveto
          75 38 58 77 72 141 -219 53 113 vvcurveto
          41 28 30 33 38 37 -32 -46 12 vhcurveto
          14 hlineto
          10 10 19 51 19 vvcurveto
          25 -42 22 -49 -78 -71 -64 -74 -11 vhcurveto
          -78 -46 -52 -66 -65 vvcurveto
          61 41 rmoveto
          40 18 31 51 30 vhcurveto
          17 -118 199 -79 -99 vvcurveto
          -42 -24 -36 -45 -28 vhcurveto
          -17 124 -199 71 106 vvcurveto
          endchar
        </CharString>
        <CharString name="semicolon">
          38 callsubr
          169 0 119 hstemhm
          60 79 hintmask 11010000
          28 -57 callsubr
          83 195 rmoveto
          41 29 32 37 hvcurveto
          hintmask 10110000
          28 -17 22 -33 -40 -29 -32 -37 -26 15 -24 34 vhcurveto
          endchar
        </CharString>
        <CharString name="seven">
          18 -84 -21 526 72 4 -12 callsubr
          124 -105 rmoveto
          35 86 49 89 86 163 138 232 rlinecurve
          -19 28 rlineto
          -203 hlineto
          hintmask 10100000
          -59 -57 4 0 hvcurveto
          -7 -5 rlineto
          -14 -76 -25 -97 0 vvcurveto
          39 6 21 71 13 19 66 3 rlinecurve
          164 7 -298 -490 7 -22 57 -18 rlineto
          endchar
        </CharString>
        <CharString name="seven.dnom">
          -107 14 -22 callgsubr
          -7 -81 callgsubr
        </CharString>
        <CharString name="seven.lf">
          18 9 -21 526 72 4 -12 callsubr
          136 -12 rmoveto
          35 86 49 89 86 163 137 232 rlinecurve
          -18 28 rlineto
          -203 hlineto
          hintmask 10100000
          -60 -57 4 0 hvcurveto
          -6 32 callgsubr
          13 19 65 3 rlinecurve
          165 7 -299 -490 7 -22 57 -18 rlineto
          endchar
        </CharString>
        <CharString name="seven.numr">
          -107 281 -22 callgsubr
          260 -81 callgsubr
        </CharString>
        <CharString name="seven.sinf">
          -107 -106 -22 callgsubr
          -127 -81 callgsubr
        </CharString>
        <CharString name="seven.sups">
          -107 365 -22 callgsubr
          344 -81 callgsubr
        </CharString>
        <CharString name="seven.tf">
          64 9 -21 526 72 4 -12 callsubr
          152 -12 rmoveto
          36 86 51 89 92 163 146 232 rlinecurve
          -18 28 rlineto
          -216 hlineto
          hintmask 10100000
          -64 -61 4 0 hvcurveto
          -6 -5 rlineto
          -14 -76 -27 -97 0 vvcurveto
          41 6 22 71 13 19 70 3 rlinecurve
          179 7 -318 -490 8 -22 59 -18 rlineto
          endchar
        </CharString>
        <CharString name="seven.tosf">
          54 -84 -21 526 72 4 -12 callsubr
          137 -105 rmoveto
          35 86 50 89 92 163 145 232 rlinecurve
          -19 28 rlineto
          -214 hlineto
          hintmask 10100000
          -62 -60 4 0 hvcurveto
          -7 32 callgsubr
          14 19 70 3 rlinecurve
          175 7 -313 -490 8 -22 58 -18 rlineto
          endchar
        </CharString>
        <CharString name="six">
          -48 callsubr
          vhcurveto
          -29 -82 -52 -1 hhcurveto
          -3 2 rlineto
          74 195 205 74 0 vvcurveto
          -193 -278 rmoveto
          61 38 -54 -61 -80 -47 -54 -68 -62 -34 53 82 25 4 23 7 29 hvcurveto
          11 16 43 26 42 hhcurveto
          endchar
        </CharString>
        <CharString name="six.dnom">
          -84 -8 -18 callgsubr
          346 rmoveto
          -7 27 -5 -49 callgsubr
          -242 -66 -203 vvcurveto
          -67 40 -49 64 84 59 62 75 48 -31 46 -62 vhcurveto
          -17 -1 -29 -16 -17 -11 -1 4 rcurveline
          48 106 116 41 0 vvcurveto
          -126 -171 rmoveto
          33 20 -28 -35 -47 -24 -30 -40 -34 -18 28 46 14 2 15 4 17 hvcurveto
          7 10 23 13 24 hhcurveto
          endchar
        </CharString>
        <CharString name="six.lf">
          -48 callsubr
          -29 -54 -32 -20 -29 vhcurveto
          -2 3 rlineto
          73 195 205 73 0 vvcurveto
          -193 -278 rmoveto
          61 38 -53 -61 -81 -47 -54 -68 -62 -34 53 82 21 4 26 7 30 hvcurveto
          11 17 42 26 42 hhcurveto
          endchar
        </CharString>
        <CharString name="six.numr">
          -84 259 -18 callgsubr
          613 rmoveto
          -7 27 -5 -49 callgsubr
          -242 -66 -203 vvcurveto
          -67 40 -49 64 84 59 62 75 48 -31 46 -62 vhcurveto
          -17 -1 -29 -16 -17 -11 -1 4 rcurveline
          48 106 116 41 0 vvcurveto
          -126 -171 rmoveto
          33 20 -28 -35 -47 -24 -30 -40 -34 -18 28 46 14 2 15 4 17 hvcurveto
          7 10 23 13 24 hhcurveto
          endchar
        </CharString>
        <CharString name="six.sinf">
          -84 -128 -18 callgsubr
          226 rmoveto
          -7 27 -5 -49 callgsubr
          -242 -66 -203 vvcurveto
          -67 40 -49 64 84 59 62 75 48 -31 46 -62 vhcurveto
          -17 -1 -29 -16 -17 -11 -1 4 rcurveline
          48 106 116 41 0 vvcurveto
          -126 -171 rmoveto
          33 20 -28 -35 -47 -24 -30 -40 -34 -18 28 46 14 2 15 4 17 hvcurveto
          7 10 23 13 24 hhcurveto
          endchar
        </CharString>
        <CharString name="six.sups">
          -84 343 -18 callgsubr
          697 rmoveto
          -7 27 -5 -49 callgsubr
          -242 -66 -203 vvcurveto
          -67 40 -49 64 84 59 62 75 48 -31 46 -62 vhcurveto
          -17 -1 -29 -16 -17 -11 -1 4 rcurveline
          48 106 116 41 0 vvcurveto
          -126 -171 rmoveto
          33 20 -28 -35 -47 -24 -30 -40 -34 -18 28 46 14 2 15 4 17 hvcurveto
          7 10 23 13 24 hhcurveto
          endchar
        </CharString>
        <CharString name="six.tf">
          64 -8 callgsubr
          36 79 217 77 vstem
          426 -9 callsubr
          -377 -109 -321 vvcurveto
          -103 55 -77 98 125 95 98 110 71 -48 77 -102 -30 -55 -32 -20 -30 vhcurveto
          -2 3 rlineto
          74 195 210 73 0 vvcurveto
          -196 -278 rmoveto
          63 39 -53 -61 -81 -48 -54 -70 -64 -35 53 82 21 4 26 7 30 hvcurveto
          11 18 43 26 43 hhcurveto
          endchar
        </CharString>
        <CharString name="six.tosf">
          54 -8 callgsubr
          33 79 213 77 vstem
          419 -9 callsubr
          -373 -109 -322 vvcurveto
          -102 55 -77 96 124 94 98 110 71 -47 77 -101 vhcurveto
          -29 -83 -52 -1 hhcurveto
          -3 2 rlineto
          75 195 206 74 0 vvcurveto
          -194 -278 rmoveto
          62 38 -54 -61 -80 -47 -54 -69 -62 -35 53 82 25 4 23 7 29 hvcurveto
          11 17 43 26 42 hhcurveto
          endchar
        </CharString>
        <CharString name="slash">
          -70 -89 -21 785 -20 hstem
          333 675 rmoveto
          -47 hlineto
          -165 -449 rlineto
          -56 -152 -73 -176 0 vvcurveto
          6 -8 rlineto
          48 hlineto
          0 60 160 61 165 vhcurveto
          61 162 111 288 -32 callsubr
        </CharString>
        <CharString name="space">
          -194 endchar
        </CharString>
        <CharString name="square1">
          48 21 -21 452 -20 hstem
          -26 hmoveto
          435 hlineto
          55 452 rlineto
          -434 hlineto
          endchar
        </CharString>
        <CharString name="square2">
          226 21 -21 637 -20 hstem
          -26 hmoveto
          612 hlineto
          78 637 rlineto
          -612 hlineto
          endchar
        </CharString>
        <CharString name="sterling">
          118 -12 79 -34 56 198 50 202 59 hstemhm
          hintmask 10110000
          413 142 rmoveto
          -51 -11 -27 -24 -43 hhcurveto
          hintmask 01110000
          -47 -58 22 -55 hhcurveto
          -54 -11 40 32 27 45 9 53 rlinecurve
          12 79 rlineto
          74 74 -3 0 hvcurveto
          17 53 -3 3 rlineto
          0 -80 -3 -74 vhcurveto
          12 78 rlineto
          83 13 33 41 55 hhcurveto
          26 33 -11 -22 37 hvcurveto
          18 3 31 63 -4 11 rlineto
          9 -18 -41 6 -38 hhcurveto
          -113 -88 -94 -143 -18 hvcurveto
          -2 -17 -59 -11 -11 -34 3 -6 48 -3 10 -7 -2 -31 rlinecurve
          -6 -48 -8 -63 -40 -54 -71 -46 rlinecurve
          10 -34 7 -4 rlineto
          21 30 26 9 30 hhcurveto
          hintmask 10110000
          75 91 -45 68 hhcurveto
          46 40 47 60 14 -2 16 -5 15 hvcurveto
          endchar
        </CharString>
</ttFont>
